Benne_0412.ufo
<glyph name="parenleft" format="1">
  <advance width="315"/>
  <unicode hex="0028"/>
  <outline>
    <contour>
      <point x="264" y="-205"/>
      <point x="252" y="-214"/>
      <point x="238" y="-214" type="curve" smooth="yes"/>
      <point x="231" y="-214"/>
      <point x="225" y="-212"/>
      <point x="220" y="-207" type="curve" smooth="yes"/>
      <point x="141" y="-128"/>
      <point x="40" y="111"/>
      <point x="40" y="268" type="curve" smooth="yes"/>
      <point x="40" y="425"/>
      <point x="132" y="610"/>
      <point x="216" y="694" type="curve" smooth="yes"/>
      <point x="223" y="701"/>
      <point x="231" y="705"/>
      <point x="238" y="705" type="curve" smooth="yes"/>
      <point x="253" y="705"/>
      <point x="265" y="697"/>
      <point x="265" y="689" type="curve" smooth="yes"/>
      <point x="265" y="685"/>
      <point x="261" y="679"/>
      <point x="252" y="670" type="curve" smooth="yes"/>
      <point x="171" y="589"/>
      <point x="100" y="439"/>
      <point x="100" y="278" type="curve" smooth="yes"/>
      <point x="100" y="117"/>
      <point x="175" y="-100"/>
      <point x="248" y="-173" type="curve" smooth="yes"/>
      <point x="259" y="-184"/>
      <point x="264" y="-190"/>
      <point x="264" y="-192" type="curve" smooth="yes"/>
    </contour>
  </outline>
</glyph>
<glyph name="asterisk" format="1">
  <advance width="340"/>
  <unicode hex="002A"/>
  <outline>
    <contour>
      <point x="38" y="562"/>
      <point x="34" y="569"/>
      <point x="34" y="578" type="curve" smooth="yes"/>
      <point x="34" y="587"/>
      <point x="40" y="591"/>
      <point x="51" y="591" type="curve" smooth="yes"/>
      <point x="54" y="591"/>
      <point x="59" y="589"/>
      <point x="66" y="586" type="curve" smooth="yes"/>
      <point x="93" y="575"/>
      <point x="119" y="564"/>
      <point x="146" y="555" type="curve"/>
      <point x="143" y="584"/>
      <point x="141" y="615"/>
      <point x="140" y="648" type="curve"/>
      <point x="140" y="662"/>
      <point x="145" y="669"/>
      <point x="156" y="670" type="curve"/>
      <point x="157" y="670" type="line" smooth="yes"/>
      <point x="167" y="670"/>
      <point x="173" y="664"/>
      <point x="174" y="652" type="curve"/>
      <point x="187" y="560" type="line"/>
      <point x="205" y="573"/>
      <point x="231" y="589"/>
      <point x="266" y="610" type="curve"/>
      <point x="269" y="613"/>
      <point x="272" y="614"/>
      <point x="277" y="614" type="curve" smooth="yes"/>
      <point x="289" y="614"/>
      <point x="295" y="609"/>
      <point x="295" y="600" type="curve" smooth="yes"/>
      <point x="295" y="595"/>
      <point x="292" y="589"/>
      <point x="286" y="583" type="curve"/>
      <point x="213" y="525" type="line"/>
      <point x="244" y="510"/>
      <point x="272" y="496"/>
      <point x="295" y="483" type="curve"/>
      <point x="303" y="480"/>
      <point x="307" y="474"/>
      <point x="307" y="465" type="curve" smooth="yes"/>
      <point x="307" y="456"/>
      <point x="301" y="451"/>
      <point x="290" y="451" type="curve" smooth="yes"/>
      <point x="287" y="451"/>
      <point x="281" y="453"/>
      <point x="274" y="456" type="curve" smooth="yes"/>
      <point x="248" y="467"/>
      <point x="222" y="478"/>
      <point x="195" y="487" type="curve"/>
      <point x="198" y="458"/>
      <point x="200" y="427"/>
      <point x="201" y="394" type="curve" smooth="yes"/>
      <point x="201" y="380"/>
      <point x="196" y="373"/>
      <point x="185" y="372" type="curve"/>
      <point x="184" y="372" type="line" smooth="yes"/>
      <point x="174" y="372"/>
      <point x="168" y="378"/>
      <point x="167" y="390" type="curve"/>
      <point x="154" y="482" type="line"/>
      <point x="136" y="469"/>
      <point x="110" y="453"/>
      <point x="75" y="432" type="curve"/>
      <point x="72" y="429"/>
      <point x="69" y="428"/>
      <point x="64" y="428" type="curve" smooth="yes"/>
      <point x="52" y="428"/>
      <point x="46" y="433"/>
      <point x="46" y="442" type="curve" smooth="yes"/>
      <point x="46" y="447"/>
      <point x="49" y="453"/>
      <point x="55" y="459" type="curve"/>
      <point x="128" y="517" type="line"/>
      <point x="97" y="532"/>
      <point x="69" y="546"/>
      <point x="46" y="559" type="curve"/>
    </contour>
  </outline>
</glyph>
<glyph name="slash" format="1">
  <advance width="399"/>
  <unicode hex="002F"/>
  <outline>
    <contour>
      <point x="327" y="648" type="line" smooth="yes"/>
      <point x="332" y="659"/>
      <point x="345" y="665"/>
      <point x="366" y="665" type="curve" smooth="yes"/>
      <point x="373" y="665"/>
      <point x="380" y="659"/>
      <point x="380" y="652" type="curve" smooth="yes"/>
      <point x="380" y="650" type="line"/>
      <point x="82" y="-47" type="line" smooth="yes"/>
      <point x="78" y="-57"/>
      <point x="68" y="-62"/>
      <point x="53" y="-62" type="curve" smooth="yes"/>
      <point x="37" y="-62"/>
      <point x="29" y="-58"/>
      <point x="29" y="-50" type="curve"/>
      <point x="30" y="-49" type="line"/>
      <point x="30" y="-48"/>
      <point x="30" y="-48"/>
      <point x="30" y="-47" type="curve"/>
    </contour>
  </outline>
</glyph>
<glyph name="D" format="1">
  <advance width="754"/>
  <unicode hex="0044"/>
  <outline>
    <contour>
      <point x="169" y="651" type="line"/>
      <point x="340" y="659" type="line"/>
      <point x="597" y="659"/>
      <point x="719" y="531"/>
      <point x="719" y="341" type="curve" smooth="yes"/>
      <point x="719" y="151"/>
      <point x="562" y="-7"/>
      <point x="371" y="-7" type="curve" smooth="yes"/>
      <point x="369" y="-7"/>
      <point x="342" y="-6"/>
      <point x="289" y="-3" type="curve" smooth="yes"/>
      <point x="236" y="-1"/>
      <point x="194" y="0"/>
      <point x="163" y="0" type="curve"/>
      <point x="58" y="-5" type="line"/>
      <point x="39" y="-5"/>
      <point x="29" y="-1"/>
      <point x="29" y="7" type="curve" smooth="yes"/>
      <point x="29" y="14"/>
      <point x="41" y="20"/>
      <point x="65" y="25" type="curve"/>
      <point x="112" y="33"/>
      <point x="129" y="51"/>
      <point x="129" y="99" type="curve" smooth="yes"/>
      <point x="129" y="549" type="line" smooth="yes"/>
      <point x="129" y="596"/>
      <point x="112" y="613"/>
      <point x="65" y="622" type="curve" smooth="yes"/>
      <point x="41" y="626"/>
      <point x="29" y="633"/>
      <point x="29" y="642" type="curve" smooth="yes"/>
      <point x="29" y="649"/>
      <point x="39" y="653"/>
      <point x="58" y="653" type="curve" smooth="yes"/>
      <point x="162" y="651" type="line"/>
    </contour>
    <contour>
      <point x="209" y="121" type="line" smooth="yes"/>
      <point x="209" y="42"/>
      <point x="278" y="28"/>
      <point x="359" y="28" type="curve" smooth="yes"/>
      <point x="515" y="28"/>
      <point x="624" y="149"/>
      <point x="624" y="328" type="curve" smooth="yes"/>
      <point x="624" y="507"/>
      <point x="492" y="628"/>
      <point x="345" y="628" type="curve" smooth="yes"/>
      <point x="282" y="628"/>
      <point x="244" y="623"/>
      <point x="231" y="614" type="curve" smooth="yes"/>
      <point x="216" y="604"/>
      <point x="209" y="588"/>
      <point x="209" y="567" type="curve" smooth="yes"/>
    </contour>
  </outline>
</glyph>
<glyph name="F" format="1">
  <advance width="512"/>
  <unicode hex="0046"/>
  <outline>
    <contour>
      <point x="237" y="650" type="line"/>
      <point x="408" y="652" type="line"/>
      <point x="447" y="652" type="line"/>
      <point x="462" y="653" type="line"/>
      <point x="473" y="653"/>
      <point x="479" y="650"/>
      <point x="480" y="644" type="curve" smooth="yes"/>
      <point x="483" y="625"/>
      <point x="485" y="591"/>
      <point x="485" y="544" type="curve" smooth="yes"/>
      <point x="485" y="530"/>
      <point x="482" y="523"/>
      <point x="476" y="523" type="curve" smooth="yes"/>
      <point x="468" y="523"/>
      <point x="463" y="527"/>
      <point x="461" y="535" type="curve"/>
      <point x="445" y="583"/>
      <point x="428" y="611"/>
      <point x="371" y="611" type="curve" smooth="yes"/>
      <point x="244" y="611" type="line" smooth="yes"/>
      <point x="224" y="611"/>
      <point x="215" y="598"/>
      <point x="213" y="586" type="curve" smooth="yes"/>
      <point x="212" y="580"/>
      <point x="211" y="570"/>
      <point x="210" y="557" type="curve" smooth="yes"/>
      <point x="209" y="543"/>
      <point x="209" y="513"/>
      <point x="209" y="467" type="curve" smooth="yes"/>
      <point x="209" y="421"/>
      <point x="209" y="390"/>
      <point x="210" y="375" type="curve"/>
      <point x="210" y="360"/>
      <point x="213" y="352"/>
      <point x="220" y="352" type="curve" smooth="yes"/>
      <point x="336" y="355" type="line" smooth="yes"/>
      <point x="365" y="355"/>
      <point x="386" y="368"/>
      <point x="397" y="394" type="curve"/>
      <point x="400" y="399"/>
      <point x="411" y="411"/>
      <point x="416" y="411" type="curve" smooth="yes"/>
      <point x="418" y="411"/>
      <point x="421" y="409"/>
      <point x="424" y="406" type="curve" smooth="yes"/>
      <point x="427" y="403"/>
      <point x="428" y="394"/>
      <point x="427" y="381" type="curve" smooth="yes"/>
      <point x="426" y="367"/>
      <point x="425" y="353"/>
      <point x="425" y="338" type="curve" smooth="yes"/>
      <point x="425" y="323"/>
      <point x="426" y="301"/>
      <point x="428" y="272" type="curve"/>
      <point x="428" y="261"/>
      <point x="425" y="255"/>
      <point x="419" y="255" type="curve" smooth="yes"/>
      <point x="408" y="255"/>
      <point x="401" y="263"/>
      <point x="396" y="278" type="curve" smooth="yes"/>
      <point x="387" y="304"/>
      <point x="372" y="317"/>
      <point x="349" y="317" type="curve" smooth="yes"/>
      <point x="349" y="317"/>
      <point x="332" y="317"/>
      <point x="299" y="318" type="curve" smooth="yes"/>
      <point x="284" y="318"/>
      <point x="262" y="317"/>
      <point x="234" y="316" type="curve" smooth="yes"/>
      <point x="218" y="315"/>
      <point x="210" y="306"/>
      <point x="210" y="291" type="curve" smooth="yes"/>
      <point x="210" y="208"/>
      <point x="211" y="145"/>
      <point x="213" y="101" type="curve" smooth="yes"/>
      <point x="216" y="56"/>
      <point x="232" y="32"/>
      <point x="278" y="24" type="curve" smooth="yes"/>
      <point x="301" y="20"/>
      <point x="312" y="14"/>
      <point x="312" y="7" type="curve" smooth="yes"/>
      <point x="312" y="-1"/>
      <point x="302" y="-5"/>
      <point x="283" y="-5" type="curve" smooth="yes"/>
      <point x="264" y="-5"/>
      <point x="245" y="-4"/>
      <point x="228" y="-1" type="curve"/>
      <point x="211" y="1"/>
      <point x="196" y="2"/>
      <point x="185" y="2" type="curve"/>
      <point x="59" y="-5" type="line"/>
      <point x="40" y="-5"/>
      <point x="30" y="-1"/>
      <point x="30" y="7" type="curve" smooth="yes"/>
      <point x="30" y="14"/>
      <point x="42" y="20"/>
      <point x="66" y="25" type="curve"/>
      <point x="113" y="33"/>
      <point x="130" y="52"/>
      <point x="130" y="100" type="curve" smooth="yes"/>
      <point x="130" y="522" type="line" smooth="yes"/>
      <point x="130" y="586"/>
      <point x="117" y="614"/>
      <point x="71" y="622" type="curve" smooth="yes"/>
      <point x="48" y="626"/>
      <point x="36" y="633"/>
      <point x="36" y="642" type="curve" smooth="yes"/>
      <point x="36" y="649"/>
      <point x="46" y="653"/>
      <point x="65" y="653" type="curve" smooth="yes"/>
    </contour>
  </outline>
</glyph>
<glyph name="G" format="1">
  <advance width="729"/>
  <unicode hex="0047"/>
  <outline>
    <contour>
      <point x="583" y="286" type="line"/>
      <point x="672" y="290" type="line"/>
      <point x="686" y="290"/>
      <point x="693" y="285"/>
      <point x="693" y="274" type="curve" smooth="yes"/>
      <point x="693" y="266"/>
      <point x="681" y="258"/>
      <point x="664" y="254" type="curve"/>
      <point x="627" y="243"/>
      <point x="625" y="184"/>
      <point x="625" y="132" type="curve" smooth="yes"/>
      <point x="625" y="105" type="line" smooth="yes"/>
      <point x="625" y="98"/>
      <point x="628" y="91"/>
      <point x="635" y="85" type="curve"/>
      <point x="641" y="78"/>
      <point x="644" y="74"/>
      <point x="644" y="72" type="curve" smooth="yes"/>
      <point x="644" y="61"/>
      <point x="639" y="54"/>
      <point x="630" y="53" type="curve"/>
      <point x="627" y="52"/>
      <point x="614" y="46"/>
      <point x="591" y="35" type="curve" smooth="yes"/>
      <point x="544" y="12"/>
      <point x="467" y="-14"/>
      <point x="392" y="-14" type="curve" smooth="yes"/>
      <point x="204" y="-14"/>
      <point x="45" y="127"/>
      <point x="45" y="316" type="curve" smooth="yes"/>
      <point x="45" y="505"/>
      <point x="212" y="663"/>
      <point x="413" y="663" type="curve" smooth="yes"/>
      <point x="469" y="663"/>
      <point x="620" y="637"/>
      <point x="621" y="624" type="curve"/>
      <point x="628" y="573"/>
      <point x="632" y="540"/>
      <point x="632" y="526" type="curve" smooth="yes"/>
      <point x="632" y="503"/>
      <point x="627" y="492"/>
      <point x="618" y="492" type="curve" smooth="yes"/>
      <point x="608" y="492"/>
      <point x="600" y="502"/>
      <point x="593" y="521" type="curve" smooth="yes"/>
      <point x="580" y="559"/>
      <point x="563" y="584"/>
      <point x="508" y="608" type="curve"/>
      <point x="480" y="619"/>
      <point x="445" y="625"/>
      <point x="404" y="625" type="curve" smooth="yes"/>
      <point x="253" y="625"/>
      <point x="144" y="489"/>
      <point x="144" y="317" type="curve" smooth="yes"/>
      <point x="144" y="145"/>
      <point x="265" y="23"/>
      <point x="406" y="23" type="curve" smooth="yes"/>
      <point x="519" y="23"/>
      <point x="558" y="74"/>
      <point x="558" y="137" type="curve" smooth="yes"/>
      <point x="560" y="195" type="line" smooth="yes"/>
      <point x="560" y="227"/>
      <point x="555" y="237"/>
      <point x="511" y="248" type="curve" smooth="yes"/>
      <point x="489" y="253"/>
      <point x="474" y="256"/>
      <point x="465" y="256" type="curve" smooth="yes"/>
      <point x="448" y="256"/>
      <point x="437" y="264"/>
      <point x="437" y="273" type="curve" smooth="yes"/>
      <point x="437" y="282"/>
      <point x="450" y="290"/>
      <point x="457" y="290" type="curve" smooth="yes"/>
    </contour>
  </outline>
</glyph>
<glyph name="J" format="1">
  <advance width="300"/>
  <unicode hex="004A"/>
  <outline>
    <contour>
      <point x="177" y="650" type="line"/>
      <point x="271" y="653" type="line" smooth="yes"/>
      <point x="290" y="653"/>
      <point x="300" y="649"/>
      <point x="300" y="642" type="curve" smooth="yes"/>
      <point x="300" y="633"/>
      <point x="289" y="626"/>
      <point x="266" y="622" type="curve" smooth="yes"/>
      <point x="220" y="613"/>
      <point x="210" y="599"/>
      <point x="210" y="551" type="curve" smooth="yes"/>
      <point x="210" y="142" type="line" smooth="yes"/>
      <point x="210" y="41"/>
      <point x="204" y="-27"/>
      <point x="193" y="-62" type="curve" smooth="yes"/>
      <point x="180" y="-102"/>
      <point x="177" y="-105"/>
      <point x="157" y="-134" type="curve" smooth="yes"/>
      <point x="126" y="-178"/>
      <point x="85" y="-200"/>
      <point x="34" y="-200" type="curve" smooth="yes"/>
      <point x="3" y="-200"/>
      <point x="-21" y="-196"/>
      <point x="-40" y="-187" type="curve"/>
      <point x="-59" y="-179"/>
      <point x="-69" y="-169"/>
      <point x="-69" y="-156" type="curve" smooth="yes"/>
      <point x="-69" y="-132"/>
      <point x="-50" y="-103"/>
      <point x="-33" y="-103" type="curve" smooth="yes"/>
      <point x="-11" y="-103"/>
      <point x="6" y="-112"/>
      <point x="18" y="-130" type="curve" smooth="yes"/>
      <point x="30" y="-149"/>
      <point x="45" y="-158"/>
      <point x="64" y="-158" type="curve" smooth="yes"/>
      <point x="108" y="-158"/>
      <point x="130" y="-105"/>
      <point x="130" y="0" type="curve" smooth="yes"/>
      <point x="130" y="551" type="line" smooth="yes"/>
      <point x="130" y="596"/>
      <point x="113" y="613"/>
      <point x="66" y="622" type="curve" smooth="yes"/>
      <point x="43" y="626"/>
      <point x="31" y="633"/>
      <point x="31" y="642" type="curve" smooth="yes"/>
      <point x="31" y="649"/>
      <point x="41" y="653"/>
      <point x="60" y="653" type="curve" smooth="yes"/>
    </contour>
  </outline>
</glyph>
<glyph name="Q" format="1">
  <advance width="806"/>
  <unicode hex="0051"/>
  <outline>
    <contour>
      <point x="666" y="483"/>
      <point x="540" y="626"/>
      <point x="389" y="626" type="curve" smooth="yes"/>
      <point x="238" y="626"/>
      <point x="139" y="499"/>
      <point x="139" y="354" type="curve" smooth="yes"/>
      <point x="139" y="175"/>
      <point x="269" y="12"/>
      <point x="430" y="12" type="curve" smooth="yes"/>
      <point x="526" y="12"/>
      <point x="604" y="88"/>
      <point x="640" y="181" type="curve" smooth="yes"/>
      <point x="657" y="228"/>
      <point x="666" y="275"/>
      <point x="666" y="324" type="curve" smooth="yes"/>
    </contour>
    <contour>
      <point x="354" y="-38"/>
      <point x="278" y="5"/>
      <point x="250" y="13" type="curve" smooth="yes"/>
      <point x="222" y="20"/>
      <point x="169" y="54"/>
      <point x="124" y="103" type="curve" smooth="yes"/>
      <point x="79" y="152"/>
      <point x="45" y="228"/>
      <point x="45" y="307" type="curve" smooth="yes"/>
      <point x="45" y="507"/>
      <point x="197" y="662"/>
      <point x="402" y="662" type="curve" smooth="yes"/>
      <point x="522" y="662"/>
      <point x="635" y="617"/>
      <point x="707" y="520" type="curve" smooth="yes"/>
      <point x="743" y="471"/>
      <point x="761" y="415"/>
      <point x="761" y="350" type="curve" smooth="yes"/>
      <point x="761" y="259"/>
      <point x="733" y="179"/>
      <point x="697" y="128" type="curve" smooth="yes"/>
      <point x="660" y="77"/>
      <point x="593" y="19"/>
      <point x="497" y="-8" type="curve"/>
      <point x="488" y="-11"/>
      <point x="483" y="-14"/>
      <point x="483" y="-17" type="curve" smooth="yes"/>
      <point x="483" y="-20"/>
      <point x="484" y="-23"/>
      <point x="487" y="-26" type="curve" smooth="yes"/>
      <point x="550" y="-93"/>
      <point x="643" y="-160"/>
      <point x="700" y="-178" type="curve" smooth="yes"/>
      <point x="729" y="-187"/>
      <point x="760" y="-192"/>
      <point x="793" y="-192" type="curve" smooth="yes"/>
      <point x="826" y="-192"/>
      <point x="847" y="-190"/>
      <point x="856" y="-186" type="curve"/>
      <point x="865" y="-183"/>
      <point x="873" y="-181"/>
      <point x="879" y="-181" type="curve" smooth="yes"/>
      <point x="885" y="-181"/>
      <point x="888" y="-185"/>
      <point x="888" y="-192" type="curve" smooth="yes"/>
      <point x="888" y="-200"/>
      <point x="882" y="-208"/>
      <point x="870" y="-215" type="curve" smooth="yes"/>
      <point x="832" y="-237"/>
      <point x="792" y="-248"/>
      <point x="749" y="-248" type="curve" smooth="yes"/>
      <point x="664" y="-248"/>
      <point x="606" y="-226"/>
      <point x="523" y="-166" type="curve" smooth="yes"/>
      <point x="481" y="-137"/>
      <point x="431" y="-99"/>
      <point x="374" y="-54" type="curve" smooth="yes"/>
    </contour>
  </outline>
</glyph>
<glyph name="T" format="1">
  <advance width="670"/>
  <unicode hex="0054"/>
  <outline>
    <contour>
      <point x="670" y="660" type="line"/>
      <point x="659" y="616"/>
      <point x="654" y="583"/>
      <point x="654" y="561" type="curve" smooth="yes"/>
      <point x="654" y="549" type="line" smooth="yes"/>
      <point x="654" y="536"/>
      <point x="647" y="517"/>
      <point x="638" y="517" type="curve" smooth="yes"/>
      <point x="631" y="517"/>
      <point x="624" y="531"/>
      <point x="619" y="558" type="curve" smooth="yes"/>
      <point x="614" y="589"/>
      <point x="581" y="604"/>
      <point x="520" y="604" type="curve" smooth="yes"/>
      <point x="459" y="604"/>
      <point x="416" y="603"/>
      <point x="392" y="600" type="curve" smooth="yes"/>
      <point x="381" y="599"/>
      <point x="376" y="584"/>
      <point x="376" y="557" type="curve" smooth="yes"/>
      <point x="376" y="102" type="line" smooth="yes"/>
      <point x="376" y="59"/>
      <point x="402" y="33"/>
      <point x="455" y="24" type="curve" smooth="yes"/>
      <point x="477" y="20"/>
      <point x="488" y="14"/>
      <point x="488" y="7" type="curve" smooth="yes"/>
      <point x="488" y="-1"/>
      <point x="478" y="-5"/>
      <point x="459" y="-5" type="curve"/>
      <point x="342" y="0" type="line"/>
      <point x="214" y="-5" type="line"/>
      <point x="195" y="-5"/>
      <point x="185" y="-1"/>
      <point x="185" y="7" type="curve" smooth="yes"/>
      <point x="185" y="14"/>
      <point x="197" y="20"/>
      <point x="221" y="24" type="curve" smooth="yes"/>
      <point x="271" y="33"/>
      <point x="296" y="59"/>
      <point x="296" y="102" type="curve" smooth="yes"/>
      <point x="296" y="557" type="line" smooth="yes"/>
      <point x="296" y="610"/>
      <point x="277" y="604"/>
      <point x="204" y="604" type="curve" smooth="yes"/>
      <point x="157" y="604" type="line" smooth="yes"/>
      <point x="122" y="604"/>
      <point x="88" y="589"/>
      <point x="77" y="569" type="curve" smooth="yes"/>
      <point x="66" y="548"/>
      <point x="47" y="527"/>
      <point x="34" y="527" type="curve" smooth="yes"/>
      <point x="29" y="527"/>
      <point x="27" y="531"/>
      <point x="27" y="539" type="curve" smooth="yes"/>
      <point x="27" y="546"/>
      <point x="29" y="553"/>
      <point x="32" y="560" type="curve"/>
      <point x="47" y="591"/>
      <point x="57" y="628"/>
      <point x="63" y="671" type="curve" smooth="yes"/>
      <point x="65" y="686"/>
      <point x="71" y="694"/>
      <point x="80" y="694" type="curve" smooth="yes"/>
      <point x="85" y="694"/>
      <point x="94" y="683"/>
      <point x="105" y="662" type="curve" smooth="yes"/>
      <point x="112" y="649"/>
      <point x="136" y="642"/>
      <point x="175" y="642" type="curve" smooth="yes"/>
      <point x="556" y="642" type="line" smooth="yes"/>
      <point x="581" y="642"/>
      <point x="601" y="647"/>
      <point x="614" y="656" type="curve"/>
      <point x="619" y="659"/>
      <point x="625" y="664"/>
      <point x="632" y="671" type="curve"/>
      <point x="646" y="684"/>
      <point x="655" y="692"/>
      <point x="664" y="692" type="curve" smooth="yes"/>
      <point x="669" y="692"/>
      <point x="671" y="684"/>
      <point x="671" y="669" type="curve"/>
    </contour>
  </outline>
</glyph>
<glyph name="V" format="1">
  <advance width="672"/>
  <unicode hex="0056"/>
  <outline>
    <contour>
      <point x="535" y="650" type="line"/>
      <point x="649" y="653" type="line" smooth="yes"/>
      <point x="668" y="653"/>
      <point x="678" y="649"/>
      <point x="678" y="642" type="curve" smooth="yes"/>
      <point x="678" y="633"/>
      <point x="667" y="627"/>
      <point x="645" y="622" type="curve" smooth="yes"/>
      <point x="600" y="612"/>
      <point x="564" y="575"/>
      <point x="547" y="535" type="curve" smooth="yes"/>
      <point x="359" y="79" type="line"/>
      <point x="358" y="78"/>
      <point x="357" y="73"/>
      <point x="354" y="65" type="curve"/>
      <point x="351" y="56"/>
      <point x="349" y="48"/>
      <point x="346" y="40" type="curve" smooth="yes"/>
      <point x="343" y="32"/>
      <point x="339" y="23"/>
      <point x="336" y="14" type="curve" smooth="yes"/>
      <point x="329" y="-5"/>
      <point x="322" y="-15"/>
      <point x="316" y="-15" type="curve" smooth="yes"/>
      <point x="313" y="-15"/>
      <point x="303" y="9"/>
      <point x="286" y="56" type="curve" smooth="yes"/>
      <point x="103" y="547" type="line" smooth="yes"/>
      <point x="88" y="586"/>
      <point x="65" y="611"/>
      <point x="33" y="620" type="curve" smooth="yes"/>
      <point x="11" y="627"/>
      <point x="0" y="634"/>
      <point x="0" y="642" type="curve" smooth="yes"/>
      <point x="0" y="649"/>
      <point x="10" y="653"/>
      <point x="29" y="653" type="curve" smooth="yes"/>
      <point x="151" y="650" type="line"/>
      <point x="253" y="652" type="line" smooth="yes"/>
      <point x="272" y="652"/>
      <point x="282" y="648"/>
      <point x="282" y="641" type="curve" smooth="yes"/>
      <point x="282" y="632"/>
      <point x="273" y="625"/>
      <point x="254" y="622" type="curve"/>
      <point x="216" y="614"/>
      <point x="186" y="599"/>
      <point x="186" y="577" type="curve" smooth="yes"/>
      <point x="186" y="566"/>
      <point x="189" y="551"/>
      <point x="195" y="533" type="curve"/>
      <point x="322" y="197" type="line" smooth="yes"/>
      <point x="329" y="178"/>
      <point x="335" y="169"/>
      <point x="340" y="169" type="curve" smooth="yes"/>
      <point x="344" y="169"/>
      <point x="350" y="178"/>
      <point x="358" y="197" type="curve" smooth="yes"/>
      <point x="499" y="547" type="line"/>
      <point x="504" y="558"/>
      <point x="507" y="568"/>
      <point x="507" y="579" type="curve" smooth="yes"/>
      <point x="507" y="593"/>
      <point x="485" y="607"/>
      <point x="440" y="620" type="curve" smooth="yes"/>
      <point x="418" y="626"/>
      <point x="407" y="633"/>
      <point x="407" y="640" type="curve" smooth="yes"/>
      <point x="407" y="647"/>
      <point x="417" y="651"/>
      <point x="436" y="651" type="curve" smooth="yes"/>
    </contour>
  </outline>
</glyph>
<glyph name="bracketleft" format="1">
  <advance width="373"/>
  <unicode hex="005B"/>
  <outline>
    <contour>
      <point x="315" y="701" type="line" smooth="yes"/>
      <point x="327" y="701"/>
      <point x="333" y="697"/>
      <point x="333" y="688" type="curve" smooth="yes"/>
      <point x="333" y="679"/>
      <point x="324" y="674"/>
      <point x="307" y="673" type="curve" smooth="yes"/>
      <point x="199" y="667" type="line"/>
      <point x="183" y="667"/>
      <point x="160" y="643"/>
      <point x="160" y="624" type="curve" smooth="yes"/>
      <point x="160" y="-105" type="line" smooth="yes"/>
      <point x="160" y="-132"/>
      <point x="176" y="-151"/>
      <point x="195" y="-154" type="curve"/>
      <point x="307" y="-167" type="line"/>
      <point x="324" y="-170"/>
      <point x="333" y="-176"/>
      <point x="333" y="-185" type="curve" smooth="yes"/>
      <point x="333" y="-195"/>
      <point x="324" y="-200"/>
      <point x="307" y="-200" type="curve" smooth="yes"/>
      <point x="143" y="-200" type="line" smooth="yes"/>
      <point x="118" y="-200"/>
      <point x="112" y="-198"/>
      <point x="112" y="-175" type="curve" smooth="yes"/>
      <point x="112" y="668" type="line" smooth="yes"/>
      <point x="112" y="700"/>
      <point x="115" y="702"/>
      <point x="150" y="702" type="curve" smooth="yes"/>
    </contour>
  </outline>
</glyph>
<glyph name="backslash" format="1">
  <advance width="399"/>
  <unicode hex="005C"/>
  <outline>
    <contour>
      <point x="378" y="-47" type="line"/>
      <point x="378" y="-47"/>
      <point x="378" y="-47"/>
      <point x="378" y="-48" type="curve"/>
      <point x="379" y="-50" type="line"/>
      <point x="379" y="-58"/>
      <point x="371" y="-62"/>
      <point x="356" y="-62" type="curve" smooth="yes"/>
      <point x="340" y="-62"/>
      <point x="330" y="-57"/>
      <point x="326" y="-47" type="curve" smooth="yes"/>
      <point x="29" y="648" type="line"/>
      <point x="28" y="650" type="line"/>
      <point x="28" y="652" type="line" smooth="yes"/>
      <point x="28" y="659"/>
      <point x="35" y="665"/>
      <point x="42" y="665" type="curve" smooth="yes"/>
      <point x="63" y="665"/>
      <point x="76" y="659"/>
      <point x="81" y="648" type="curve" smooth="yes"/>
    </contour>
  </outline>
</glyph>
<glyph name="bracketright" format="1">
  <advance width="373"/>
  <unicode hex="005D"/>
  <outline>
    <contour>
      <point x="219" y="702" type="line" smooth="yes"/>
      <point x="252" y="702"/>
      <point x="257" y="700"/>
      <point x="257" y="668" type="curve" smooth="yes"/>
      <point x="257" y="-175" type="line" smooth="yes"/>
      <point x="257" y="-198"/>
      <point x="251" y="-200"/>
      <point x="226" y="-200" type="curve" smooth="yes"/>
      <point x="62" y="-200" type="line" smooth="yes"/>
      <point x="45" y="-200"/>
      <point x="36" y="-195"/>
      <point x="36" y="-185" type="curve" smooth="yes"/>
      <point x="36" y="-176"/>
      <point x="45" y="-170"/>
      <point x="62" y="-167" type="curve"/>
      <point x="174" y="-154" type="line"/>
      <point x="193" y="-151"/>
      <point x="209" y="-132"/>
      <point x="209" y="-105" type="curve" smooth="yes"/>
      <point x="209" y="624" type="line" smooth="yes"/>
      <point x="209" y="643"/>
      <point x="186" y="667"/>
      <point x="170" y="667" type="curve"/>
      <point x="62" y="673" type="line" smooth="yes"/>
      <point x="45" y="674"/>
      <point x="36" y="679"/>
      <point x="36" y="688" type="curve" smooth="yes"/>
      <point x="36" y="697"/>
      <point x="42" y="701"/>
      <point x="54" y="701" type="curve" smooth="yes"/>
    </contour>
  </outline>
</glyph>
<glyph name="s" format="1">
  <advance width="323"/>
  <unicode hex="0073"/>
  <outline>
    <contour>
      <point x="238" y="359"/>
      <point x="209" y="388"/>
      <point x="174" y="388" type="curve" smooth="yes"/>
      <point x="138" y="388"/>
      <point x="113" y="360"/>
      <point x="113" y="328" type="curve" smooth="yes"/>
      <point x="113" y="296"/>
      <point x="143" y="267"/>
      <point x="160" y="256" type="curve"/>
      <point x="168" y="250"/>
      <point x="181" y="242"/>
      <point x="198" y="231" type="curve" smooth="yes"/>
      <point x="232" y="210"/>
      <point x="246" y="203"/>
      <point x="273" y="165" type="curve" smooth="yes"/>
      <point x="286" y="146"/>
      <point x="293" y="126"/>
      <point x="293" y="106" type="curve" smooth="yes"/>
      <point x="293" y="26"/>
      <point x="245" y="-14"/>
      <point x="149" y="-14" type="curve" smooth="yes"/>
      <point x="100" y="-14"/>
      <point x="50" y="7"/>
      <point x="43" y="22" type="curve" smooth="yes"/>
      <point x="36" y="37"/>
      <point x="31" y="58"/>
      <point x="30" y="83" type="curve"/>
      <point x="30" y="89"/>
      <point x="35" y="92"/>
      <point x="46" y="92" type="curve" smooth="yes"/>
      <point x="56" y="92"/>
      <point x="61" y="90"/>
      <point x="62" y="85" type="curve" smooth="yes"/>
      <point x="69" y="50"/>
      <point x="114" y="13"/>
      <point x="158" y="13" type="curve" smooth="yes"/>
      <point x="201" y="13"/>
      <point x="225" y="42"/>
      <point x="225" y="79" type="curve" smooth="yes"/>
      <point x="225" y="116"/>
      <point x="203" y="136"/>
      <point x="147" y="176" type="curve" smooth="yes"/>
      <point x="90" y="216"/>
      <point x="53" y="249"/>
      <point x="53" y="304" type="curve" smooth="yes"/>
      <point x="53" y="359"/>
      <point x="99" y="414"/>
      <point x="179" y="414" type="curve" smooth="yes"/>
      <point x="219" y="414"/>
      <point x="247" y="406"/>
      <point x="262" y="391" type="curve"/>
      <point x="273" y="377"/>
      <point x="279" y="351"/>
      <point x="279" y="313" type="curve" smooth="yes"/>
      <point x="279" y="310"/>
      <point x="277" y="309"/>
      <point x="272" y="309" type="curve" smooth="yes"/>
      <point x="263" y="309"/>
      <point x="239" y="322"/>
      <point x="239" y="330" type="curve"/>
    </contour>
  </outline>
</glyph>
<glyph name="v" format="1">
  <advance width="438"/>
  <unicode hex="0076"/>
  <outline>
    <contour>
      <point x="98" y="400" type="line"/>
      <point x="173" y="405" type="line"/>
      <point x="186" y="405"/>
      <point x="193" y="402"/>
      <point x="193" y="396" type="curve" smooth="yes"/>
      <point x="193" y="389"/>
      <point x="185" y="383"/>
      <point x="170" y="378" type="curve" smooth="yes"/>
      <point x="157" y="374"/>
      <point x="150" y="360"/>
      <point x="150" y="337" type="curve" smooth="yes"/>
      <point x="150" y="326"/>
      <point x="151" y="317"/>
      <point x="154" y="310" type="curve"/>
      <point x="228" y="111" type="line"/>
      <point x="231" y="104"/>
      <point x="233" y="100"/>
      <point x="234" y="100" type="curve" smooth="yes"/>
      <point x="235" y="100"/>
      <point x="237" y="103"/>
      <point x="240" y="110" type="curve" smooth="yes"/>
      <point x="312" y="295" type="line" smooth="yes"/>
      <point x="317" y="307"/>
      <point x="319" y="319"/>
      <point x="319" y="331" type="curve" smooth="yes"/>
      <point x="319" y="358"/>
      <point x="311" y="373"/>
      <point x="294" y="378" type="curve"/>
      <point x="279" y="383"/>
      <point x="271" y="389"/>
      <point x="271" y="396" type="curve" smooth="yes"/>
      <point x="271" y="402"/>
      <point x="278" y="405"/>
      <point x="291" y="405" type="curve"/>
      <point x="364" y="400" type="line"/>
      <point x="377" y="400"/>
      <point x="389" y="401"/>
      <point x="400" y="403" type="curve"/>
      <point x="411" y="404"/>
      <point x="421" y="405"/>
      <point x="430" y="405" type="curve" smooth="yes"/>
      <point x="439" y="405"/>
      <point x="443" y="402"/>
      <point x="443" y="396" type="curve" smooth="yes"/>
      <point x="443" y="389"/>
      <point x="437" y="384"/>
      <point x="424" y="380" type="curve" smooth="yes"/>
      <point x="398" y="371"/>
      <point x="371" y="343"/>
      <point x="358" y="311" type="curve" smooth="yes"/>
      <point x="280" y="123" type="line"/>
      <point x="243" y="23" type="line"/>
      <point x="228" y="-7"/>
      <point x="219" y="-22"/>
      <point x="216" y="-22" type="curve" smooth="yes"/>
      <point x="211" y="-22"/>
      <point x="205" y="-9"/>
      <point x="196" y="17" type="curve"/>
      <point x="74" y="329" type="line" smooth="yes"/>
      <point x="63" y="356"/>
      <point x="47" y="372"/>
      <point x="28" y="378" type="curve" smooth="yes"/>
      <point x="13" y="383"/>
      <point x="5" y="389"/>
      <point x="5" y="396" type="curve" smooth="yes"/>
      <point x="5" y="402"/>
      <point x="12" y="405"/>
      <point x="25" y="405" type="curve"/>
    </contour>
  </outline>
</glyph>
<glyph name="asciitilde" format="1">
  <advance width="500"/>
  <unicode hex="007E"/>
  <outline>
    <contour>
      <point x="398" y="354"/>
      <point x="412" y="362"/>
      <point x="423" y="370" type="curve" smooth="yes"/>
      <point x="434" y="378"/>
      <point x="440" y="382"/>
      <point x="441" y="382" type="curve" smooth="yes"/>
      <point x="444" y="382"/>
      <point x="450" y="369"/>
      <point x="450" y="362" type="curve" smooth="yes"/>
      <point x="450" y="342"/>
      <point x="366" y="260"/>
      <point x="330" y="260" type="curve" smooth="yes"/>
      <point x="311" y="260"/>
      <point x="283" y="268"/>
      <point x="244" y="284" type="curve" smooth="yes"/>
      <point x="205" y="300"/>
      <point x="178" y="308"/>
      <point x="162" y="308" type="curve" smooth="yes"/>
      <point x="130" y="308"/>
      <point x="99" y="288"/>
      <point x="80" y="273" type="curve"/>
      <point x="71" y="265"/>
      <point x="65" y="261"/>
      <point x="63" y="261" type="curve" smooth="yes"/>
      <point x="58" y="261"/>
      <point x="50" y="271"/>
      <point x="50" y="279" type="curve" smooth="yes"/>
      <point x="50" y="295"/>
      <point x="138" y="381"/>
      <point x="171" y="381" type="curve" smooth="yes"/>
      <point x="188" y="381"/>
      <point x="214" y="373"/>
      <point x="249" y="357" type="curve" smooth="yes"/>
      <point x="284" y="341"/>
      <point x="311" y="333"/>
      <point x="330" y="333" type="curve" smooth="yes"/>
      <point x="348" y="333"/>
      <point x="365" y="337"/>
      <point x="382" y="346" type="curve" smooth="yes"/>
    </contour>
  </outline>
</glyph>
<glyph name="brokenbar" format="1">
  <advance width="260"/>
  <unicode hex="00A6"/>
  <outline>
    <contour>
      <point x="160" y="297" type="line" smooth="yes"/>
      <point x="160" y="288"/>
      <point x="123" y="276"/>
      <point x="115" y="276" type="curve" smooth="yes"/>
      <point x="106" y="276"/>
      <point x="100" y="288"/>
      <point x="100" y="299" type="curve" smooth="yes"/>
      <point x="100" y="674" type="line" smooth="yes"/>
      <point x="100" y="693"/>
      <point x="134" y="705"/>
      <point x="144" y="705" type="curve" smooth="yes"/>
      <point x="154" y="705"/>
      <point x="160" y="699"/>
      <point x="160" y="692" type="curve" smooth="yes"/>
    </contour>
    <contour>
      <point x="100" y="156" type="line" smooth="yes"/>
      <point x="100" y="165"/>
      <point x="137" y="179"/>
      <point x="145" y="179" type="curve" smooth="yes"/>
      <point x="153" y="179"/>
      <point x="160" y="168"/>
      <point x="160" y="157" type="curve" smooth="yes"/>
      <point x="160" y="-266" type="line" smooth="yes"/>
      <point x="160" y="-283"/>
      <point x="129" y="-290"/>
      <point x="117" y="-290" type="curve" smooth="yes"/>
      <point x="105" y="-290"/>
      <point x="100" y="-283"/>
      <point x="100" y="-276" type="curve" smooth="yes"/>
    </contour>
  </outline>
</glyph>
<glyph name="degree" format="1">
  <advance width="290"/>
  <unicode hex="00B0"/>
  <outline>
    <contour>
      <point x="85" y="634"/>
      <point x="113" y="645"/>
      <point x="145" y="645" type="curve" smooth="yes"/>
      <point x="209" y="645"/>
      <point x="265" y="592"/>
      <point x="265" y="528" type="curve" smooth="yes"/>
      <point x="265" y="464"/>
      <point x="208" y="402"/>
      <point x="145" y="402" type="curve" smooth="yes"/>
      <point x="82" y="402"/>
      <point x="25" y="464"/>
      <point x="25" y="528" type="curve" smooth="yes"/>
      <point x="25" y="560"/>
      <point x="37" y="588"/>
      <point x="61" y="611" type="curve" smooth="yes"/>
    </contour>
    <contour>
      <point x="105" y="597"/>
      <point x="72" y="564"/>
      <point x="72" y="524" type="curve" smooth="yes"/>
      <point x="72" y="483"/>
      <point x="105" y="449"/>
      <point x="145" y="449" type="curve" smooth="yes"/>
      <point x="185" y="449"/>
      <point x="218" y="483"/>
      <point x="218" y="524" type="curve" smooth="yes"/>
      <point x="218" y="564"/>
      <point x="185" y="597"/>
      <point x="145" y="597" type="curve" smooth="yes"/>
    </contour>
  </outline>
</glyph>
<glyph name="acute" format="1">
  <advance width="400"/>
  <unicode hex="00B4"/>
  <outline>
    <contour>
      <point x="165" y="648" type="line"/>
      <point x="293" y="798" type="line"/>
      <point x="212" y="798" type="line"/>
      <point x="110" y="648" type="line"/>
    </contour>
  </outline>
</glyph>
<glyph name="periodcentered" format="1">
  <advance width="200"/>
  <unicode hex="00B7"/>
  <outline>
    <contour>
      <point x="73" y="255"/>
      <point x="85" y="260"/>
      <point x="100" y="260" type="curve" smooth="yes"/>
      <point x="129" y="260"/>
      <point x="155" y="236"/>
      <point x="155" y="205" type="curve" smooth="yes"/>
      <point x="155" y="174"/>
      <point x="129" y="150"/>
      <point x="100" y="150" type="curve" smooth="yes"/>
      <point x="71" y="150"/>
      <point x="45" y="174"/>
      <point x="45" y="205" type="curve" smooth="yes"/>
      <point x="45" y="220"/>
      <point x="51" y="233"/>
      <point x="62" y="244" type="curve" smooth="yes"/>
    </contour>
  </outline>
</glyph>
<glyph name="multiply" format="1">
  <advance width="600"/>
  <unicode hex="00D7"/>
  <outline>
    <contour>
      <point x="290" y="299" type="line" smooth="yes"/>
      <point x="293" y="296"/>
      <point x="295" y="296"/>
      <point x="297" y="298" type="curve" smooth="yes"/>
      <point x="441" y="441" type="line" smooth="yes"/>
      <point x="444" y="444"/>
      <point x="448" y="446"/>
      <point x="452" y="446" type="curve" smooth="yes"/>
      <point x="455" y="446"/>
      <point x="458" y="444"/>
      <point x="460" y="441" type="curve"/>
      <point x="471" y="420"/>
      <point x="477" y="406"/>
      <point x="477" y="401" type="curve" smooth="yes"/>
      <point x="477" y="396"/>
      <point x="475" y="391"/>
      <point x="470" y="386" type="curve" smooth="yes"/>
      <point x="339" y="255" type="line" smooth="yes"/>
      <point x="337" y="253"/>
      <point x="337" y="251"/>
      <point x="339" y="250" type="curve"/>
      <point x="482" y="107" type="line" smooth="yes"/>
      <point x="485" y="104"/>
      <point x="487" y="99"/>
      <point x="487" y="92" type="curve" smooth="yes"/>
      <point x="487" y="79"/>
      <point x="469" y="53"/>
      <point x="459" y="53" type="curve" smooth="yes"/>
      <point x="454" y="53"/>
      <point x="450" y="54"/>
      <point x="447" y="57" type="curve" smooth="yes"/>
      <point x="298" y="207" type="line"/>
      <point x="295" y="209"/>
      <point x="293" y="209"/>
      <point x="291" y="207" type="curve" smooth="yes"/>
      <point x="148" y="64" type="line" smooth="yes"/>
      <point x="145" y="61"/>
      <point x="142" y="60"/>
      <point x="139" y="60" type="curve" smooth="yes"/>
      <point x="135" y="60"/>
      <point x="132" y="61"/>
      <point x="130" y="63" type="curve" smooth="yes"/>
      <point x="115" y="78"/>
      <point x="108" y="89"/>
      <point x="108" y="97" type="curve" smooth="yes"/>
      <point x="108" y="105"/>
      <point x="110" y="111"/>
      <point x="113" y="114" type="curve" smooth="yes"/>
      <point x="247" y="248" type="line" smooth="yes"/>
      <point x="250" y="251"/>
      <point x="250" y="254"/>
      <point x="246" y="258" type="curve" smooth="yes"/>
      <point x="125" y="379" type="line" smooth="yes"/>
      <point x="122" y="382"/>
      <point x="120" y="389"/>
      <point x="120" y="399" type="curve" smooth="yes"/>
      <point x="120" y="408"/>
      <point x="125" y="420"/>
      <point x="136" y="434" type="curve"/>
      <point x="143" y="441"/>
      <point x="149" y="441"/>
      <point x="155" y="434" type="curve"/>
    </contour>
  </outline>
</glyph>
<glyph name="dotaccent" format="1">
  <advance width="400"/>
  <unicode hex="02D9"/>
  <outline>
    <contour>
      <point x="225" y="684"/>
      <point x="243" y="703"/>
      <point x="243" y="727" type="curve" smooth="yes"/>
      <point x="243" y="752"/>
      <point x="225" y="770"/>
      <point x="200" y="770" type="curve" smooth="yes"/>
      <point x="176" y="770"/>
      <point x="157" y="752"/>
      <point x="157" y="727" type="curve" smooth="yes"/>
      <point x="157" y="703"/>
      <point x="176" y="684"/>
      <point x="200" y="684" type="curve" smooth="yes"/>
    </contour>
  </outline>
</glyph>
<glyph name="knCandrabindu" format="1">
  <advance width="0"/>
  <unicode hex="0C81"/>
  <outline>
    <contour>
      <point x="93" y="651"/>
      <point x="152" y="714"/>
      <point x="153" y="807" type="curve"/>
      <point x="123" y="807" type="line"/>
      <point x="113" y="747"/>
      <point x="75" y="709"/>
      <point x="1" y="709" type="curve" smooth="yes"/>
      <point x="-72" y="709"/>
      <point x="-109" y="747"/>
      <point x="-120" y="807" type="curve"/>
      <point x="-150" y="807" type="line"/>
      <point x="-147" y="714"/>
      <point x="-89" y="651"/>
      <point x="1" y="651" type="curve" smooth="yes"/>
    </contour>
    <contour>
      <point x="27" y="819"/>
      <point x="47" y="839"/>
      <point x="47" y="866.5" type="curve" smooth="yes"/>
      <point x="47" y="895"/>
      <point x="27" y="914"/>
      <point x="-0.5" y="914" type="curve" smooth="yes"/>
      <point x="-28" y="914"/>
      <point x="-48" y="895"/>
      <point x="-48" y="866.5" type="curve" smooth="yes"/>
      <point x="-48" y="839"/>
      <point x="-28" y="819"/>
      <point x="-0.5" y="819" type="curve" smooth="yes"/>
    </contour>
  </outline>
</glyph>
<glyph name="knVisarga" format="1">
  <advance width="365"/>
  <unicode hex="0C83"/>
  <outline>
    <contour>
      <point x="88" y="436"/>
      <point x="130" y="484"/>
      <point x="182" y="484" type="curve" smooth="yes"/>
      <point x="235" y="484"/>
      <point x="277" y="436"/>
      <point x="277" y="377" type="curve" smooth="yes"/>
      <point x="277" y="319"/>
      <point x="235" y="271"/>
      <point x="182" y="271" type="curve" smooth="yes"/>
      <point x="130" y="271"/>
      <point x="88" y="319"/>
      <point x="88" y="377" type="curve" smooth="yes"/>
    </contour>
    <contour>
      <point x="123" y="344"/>
      <point x="150" y="318"/>
      <point x="182" y="318" type="curve" smooth="yes"/>
      <point x="215" y="318"/>
      <point x="242" y="344"/>
      <point x="242" y="377" type="curve" smooth="yes"/>
      <point x="242" y="410"/>
      <point x="215" y="437"/>
      <point x="182" y="437" type="curve" smooth="yes"/>
      <point x="150" y="437"/>
      <point x="123" y="410"/>
      <point x="123" y="377" type="curve" smooth="yes"/>
    </contour>
    <contour>
      <point x="88" y="151"/>
      <point x="130" y="200"/>
      <point x="182" y="200" type="curve" smooth="yes"/>
      <point x="235" y="200"/>
      <point x="277" y="151"/>
      <point x="277" y="93" type="curve" smooth="yes"/>
      <point x="277" y="35"/>
      <point x="235" y="-14"/>
      <point x="182" y="-14" type="curve" smooth="yes"/>
      <point x="130" y="-14"/>
      <point x="88" y="35"/>
      <point x="88" y="93" type="curve" smooth="yes"/>
    </contour>
    <contour>
      <point x="123" y="59"/>
      <point x="150" y="34"/>
      <point x="182" y="34" type="curve" smooth="yes"/>
      <point x="215" y="34"/>
      <point x="242" y="59"/>
      <point x="242" y="93" type="curve" smooth="yes"/>
      <point x="242" y="126"/>
      <point x="215" y="153"/>
      <point x="182" y="153" type="curve" smooth="yes"/>
      <point x="150" y="153"/>
      <point x="123" y="126"/>
      <point x="123" y="93" type="curve" smooth="yes"/>
    </contour>
  </outline>
</glyph>
<glyph name="knU" format="1">
  <advance width="1027"/>
  <unicode hex="0C89"/>
  <outline>
    <contour>
      <point x="785" y="-14" type="curve" smooth="yes"/>
      <point x="898" y="-14"/>
      <point x="978" y="95"/>
      <point x="978" y="242" type="curve" smooth="yes"/>
      <point x="978" y="415"/>
      <point x="882" y="513"/>
      <point x="811" y="513" type="curve" smooth="yes"/>
      <point x="780" y="513"/>
      <point x="763" y="493"/>
      <point x="763" y="470" type="curve" smooth="yes"/>
      <point x="763" y="451"/>
      <point x="775" y="435"/>
      <point x="791" y="430" type="curve" smooth="yes"/>
      <point x="814" y="423"/>
      <point x="835" y="428"/>
      <point x="859" y="420" type="curve" smooth="yes"/>
      <point x="896" y="407"/>
      <point x="943" y="344"/>
      <point x="943" y="255" type="curve" smooth="yes"/>
      <point x="943" y="137"/>
      <point x="873" y="71"/>
      <point x="785" y="71" type="curve" smooth="yes"/>
      <point x="712" y="71"/>
      <point x="671" y="138"/>
      <point x="671" y="206" type="curve" smooth="yes"/>
      <point x="671" y="256"/>
      <point x="680" y="312"/>
      <point x="680" y="375" type="curve" smooth="yes"/>
      <point x="680" y="453"/>
      <point x="636" y="519"/>
      <point x="555" y="519" type="curve" smooth="yes"/>
      <point x="468" y="519"/>
      <point x="418" y="453"/>
      <point x="418" y="368" type="curve" smooth="yes"/>
      <point x="418" y="312"/>
      <point x="435" y="256"/>
      <point x="435" y="189" type="curve" smooth="yes"/>
      <point x="435" y="118"/>
      <point x="378" y="71"/>
      <point x="320" y="71" type="curve" smooth="yes"/>
      <point x="189" y="71"/>
      <point x="99" y="171"/>
      <point x="99" y="294" type="curve" smooth="yes"/>
      <point x="99" y="387"/>
      <point x="141" y="454"/>
      <point x="234" y="454" type="curve" smooth="yes"/>
      <point x="272" y="454"/>
      <point x="306" y="440"/>
      <point x="306" y="401" type="curve" smooth="yes"/>
      <point x="306" y="365"/>
      <point x="278" y="344"/>
      <point x="231" y="344" type="curve" smooth="yes"/>
      <point x="189" y="344"/>
      <point x="158" y="365"/>
      <point x="158" y="408" type="curve" smooth="yes"/>
      <point x="158" y="419"/>
      <point x="162" y="440"/>
      <point x="165" y="450" type="curve"/>
      <point x="176" y="475"/>
      <point x="171" y="501"/>
      <point x="156" y="497" type="curve"/>
      <point x="134" y="429" type="line"/>
      <point x="131" y="407"/>
      <point x="130" y="394"/>
      <point x="130" y="381" type="curve" smooth="yes"/>
      <point x="130" y="308"/>
      <point x="173" y="273"/>
      <point x="231" y="273" type="curve" smooth="yes"/>
      <point x="294" y="273"/>
      <point x="336" y="325"/>
      <point x="336" y="391" type="curve" smooth="yes"/>
      <point x="336" y="457"/>
      <point x="300" y="519"/>
      <point x="229" y="519" type="curve" smooth="yes"/>
      <point x="127" y="519"/>
      <point x="59" y="414"/>
      <point x="59" y="283" type="curve" smooth="yes"/>
      <point x="59" y="104"/>
      <point x="167" y="-14"/>
      <point x="318" y="-14" type="curve" smooth="yes"/>
      <point x="386" y="-14"/>
      <point x="472" y="42"/>
      <point x="472" y="150" type="curve" smooth="yes"/>
      <point x="472" y="229"/>
      <point x="460" y="284"/>
      <point x="460" y="339" type="curve" smooth="yes"/>
      <point x="460" y="396"/>
      <point x="491" y="441"/>
      <point x="550" y="441" type="curve" smooth="yes"/>
      <point x="604" y="441"/>
      <point x="638" y="406"/>
      <point x="638" y="339" type="curve" smooth="yes"/>
      <point x="638" y="276"/>
      <point x="633" y="220"/>
      <point x="633" y="150" type="curve" smooth="yes"/>
      <point x="633" y="65"/>
      <point x="678" y="-14"/>
    </contour>
  </outline>
</glyph>
<glyph name="knvR" format="1">
  <advance width="1101"/>
  <unicode hex="0C8B"/>
  <outline>
    <contour>
      <point x="157" y="57" type="curve" smooth="yes"/>
      <point x="107" y="57"/>
      <point x="77" y="83"/>
      <point x="77" y="112" type="curve" smooth="yes"/>
      <point x="77" y="140"/>
      <point x="106" y="161"/>
      <point x="153" y="161" type="curve" smooth="yes"/>
      <point x="195" y="161"/>
      <point x="225" y="122"/>
      <point x="225" y="76" type="curve" smooth="yes"/>
      <point x="225" y="65"/>
      <point x="221" y="44"/>
      <point x="218" y="34" type="curve"/>
      <point x="249" y="54" type="line"/>
      <point x="252" y="76"/>
      <point x="253" y="89"/>
      <point x="253" y="102" type="curve" smooth="yes"/>
      <point x="253" y="175"/>
      <point x="209" y="227"/>
      <point x="151" y="227" type="curve" smooth="yes"/>
      <point x="88" y="227"/>
      <point x="39" y="176"/>
      <point x="39" y="110" type="curve" smooth="yes"/>
      <point x="39" y="42"/>
      <point x="95" y="-15"/>
      <point x="164" y="-15" type="curve" smooth="yes"/>
      <point x="307" y="-15"/>
      <point x="387" y="120"/>
      <point x="387" y="251" type="curve" smooth="yes"/>
      <point x="387" y="382"/>
      <point x="309" y="519"/>
      <point x="157" y="519" type="curve" smooth="yes"/>
      <point x="95" y="519"/>
      <point x="42" y="471"/>
      <point x="42" y="405" type="curve" smooth="yes"/>
      <point x="42" y="339"/>
      <point x="101" y="289"/>
      <point x="154" y="289" type="curve" smooth="yes"/>
      <point x="212" y="289"/>
      <point x="256" y="332"/>
      <point x="256" y="405" type="curve" smooth="yes"/>
      <point x="256" y="418"/>
      <point x="255" y="431"/>
      <point x="252" y="453" type="curve"/>
      <point x="221" y="470" type="line"/>
      <point x="224" y="460"/>
      <point x="228" y="439"/>
      <point x="228" y="428" type="curve" smooth="yes"/>
      <point x="228" y="382"/>
      <point x="198" y="355"/>
      <point x="156" y="355" type="curve" smooth="yes"/>
      <point x="110" y="355"/>
      <point x="79" y="377"/>
      <point x="79" y="405" type="curve" smooth="yes"/>
      <point x="79" y="432"/>
      <point x="108" y="449"/>
      <point x="152" y="449" type="curve" smooth="yes"/>
      <point x="265" y="449"/>
      <point x="347" y="365"/>
      <point x="347" y="249" type="curve" smooth="yes"/>
      <point x="347" y="149"/>
      <point x="280" y="57"/>
    </contour>
    <contour>
      <point x="658" y="644" type="line"/>
      <point x="682" y="635"/>
      <point x="704" y="610"/>
      <point x="704" y="576" type="curve" smooth="yes"/>
      <point x="704" y="536"/>
      <point x="673" y="509"/>
      <point x="612" y="509" type="curve" smooth="yes"/>
      <point x="420" y="509" type="line"/>
      <point x="420" y="434" type="line"/>
      <point x="612" y="434" type="line" smooth="yes"/>
      <point x="693" y="434"/>
      <point x="747" y="480"/>
      <point x="747" y="552" type="curve" smooth="yes"/>
      <point x="747" y="607"/>
      <point x="716" y="648"/>
      <point x="673" y="664" type="curve"/>
    </contour>
    <contour>
      <point x="971" y="-14"/>
      <point x="1051" y="95"/>
      <point x="1051" y="242" type="curve" smooth="yes"/>
      <point x="1051" y="415"/>
      <point x="955" y="513"/>
      <point x="884" y="513" type="curve" smooth="yes"/>
      <point x="853" y="513"/>
      <point x="836" y="493"/>
      <point x="836" y="470" type="curve" smooth="yes"/>
      <point x="836" y="451"/>
      <point x="848" y="435"/>
      <point x="864" y="430" type="curve" smooth="yes"/>
      <point x="887" y="423"/>
      <point x="908" y="428"/>
      <point x="932" y="420" type="curve" smooth="yes"/>
      <point x="969" y="407"/>
      <point x="1016" y="344"/>
      <point x="1016" y="255" type="curve" smooth="yes"/>
      <point x="1016" y="137"/>
      <point x="946" y="71"/>
      <point x="858" y="71" type="curve" smooth="yes"/>
      <point x="789" y="71"/>
      <point x="736" y="105"/>
      <point x="699" y="207" type="curve"/>
      <point x="679" y="188" type="line"/>
      <point x="697" y="61"/>
      <point x="772" y="-14"/>
      <point x="858" y="-14" type="curve" smooth="yes"/>
    </contour>
    <contour>
      <point x="635" y="-14"/>
      <point x="715" y="95"/>
      <point x="715" y="242" type="curve" smooth="yes"/>
      <point x="715" y="415"/>
      <point x="619" y="509"/>
      <point x="548" y="509" type="curve" smooth="yes"/>
      <point x="517" y="509"/>
      <point x="500" y="493"/>
      <point x="500" y="470" type="curve" smooth="yes"/>
      <point x="500" y="464"/>
      <point x="529" y="453"/>
      <point x="568" y="434" type="curve" smooth="yes"/>
      <point x="615" y="411"/>
      <point x="680" y="344"/>
      <point x="680" y="255" type="curve" smooth="yes"/>
      <point x="680" y="137"/>
      <point x="610" y="71"/>
      <point x="522" y="71" type="curve" smooth="yes"/>
      <point x="453" y="71"/>
      <point x="400" y="105"/>
      <point x="363" y="207" type="curve"/>
      <point x="343" y="188" type="line"/>
      <point x="361" y="61"/>
      <point x="436" y="-14"/>
      <point x="522" y="-14" type="curve" smooth="yes"/>
    </contour>
  </outline>
</glyph>
<glyph name="knOO" format="1">
  <advance width="678"/>
  <unicode hex="0C93"/>
  <outline>
    <contour>
      <point x="141" y="537"/>
      <point x="123" y="564"/>
      <point x="123" y="601" type="curve" smooth="yes"/>
      <point x="123" y="646"/>
      <point x="146" y="677"/>
      <point x="198" y="689" type="curve"/>
      <point x="189" y="711" type="line"/>
      <point x="105" y="706"/>
      <point x="59" y="660"/>
      <point x="59" y="606" type="curve" smooth="yes"/>
      <point x="59" y="551"/>
      <point x="108" y="511"/>
      <point x="162" y="492" type="curve"/>
      <point x="183" y="508" type="line"/>
    </contour>
    <component base="knO"/>
  </outline>
</glyph>
<glyph name="knAU" format="1">
  <advance width="713"/>
  <unicode hex="0C94"/>
  <outline>
    <contour>
      <point x="383" y="470"/>
      <point x="403" y="490"/>
      <point x="421" y="490" type="curve" smooth="yes"/>
      <point x="425" y="490"/>
      <point x="426" y="489"/>
      <point x="426" y="483" type="curve" smooth="yes"/>
      <point x="426" y="453"/>
      <point x="444" y="432"/>
      <point x="471" y="432" type="curve" smooth="yes"/>
      <point x="499" y="432"/>
      <point x="520" y="455"/>
      <point x="520" y="484" type="curve" smooth="yes"/>
      <point x="520" y="511"/>
      <point x="495" y="541"/>
      <point x="452" y="541" type="curve" smooth="yes"/>
      <point x="394" y="541"/>
      <point x="347" y="495"/>
      <point x="347" y="418" type="curve" smooth="yes"/>
      <point x="347" y="348"/>
      <point x="401" y="287"/>
      <point x="477" y="287" type="curve" smooth="yes"/>
      <point x="563" y="287"/>
      <point x="625" y="364"/>
      <point x="625" y="467" type="curve" smooth="yes"/>
      <point x="625" y="602"/>
      <point x="533" y="698"/>
      <point x="384" y="698" type="curve" smooth="yes"/>
      <point x="34" y="698" type="line"/>
      <point x="34" y="626" type="line"/>
      <point x="261" y="626" type="line"/>
      <point x="262" y="623"/>
      <point x="263" y="618"/>
      <point x="263" y="614" type="curve" smooth="yes"/>
      <point x="263" y="599"/>
      <point x="255" y="578"/>
      <point x="227" y="578" type="curve" smooth="yes"/>
      <point x="34" y="578" type="line"/>
      <point x="34" y="508" type="line"/>
      <point x="188" y="508" type="line"/>
      <point x="209" y="508" type="line"/>
      <point x="263" y="508"/>
      <point x="303" y="541"/>
      <point x="303" y="586" type="curve" smooth="yes"/>
      <point x="303" y="599"/>
      <point x="300" y="613"/>
      <point x="293" y="626" type="curve"/>
      <point x="384" y="626" type="line" smooth="yes"/>
      <point x="511" y="626"/>
      <point x="591" y="561"/>
      <point x="591" y="467" type="curve" smooth="yes"/>
      <point x="591" y="399"/>
      <point x="543" y="351"/>
      <point x="477" y="351" type="curve" smooth="yes"/>
      <point x="420" y="351"/>
      <point x="383" y="386"/>
      <point x="383" y="433" type="curve" smooth="yes"/>
    </contour>
    <component base="knO"/>
  </outline>
</glyph>
<glyph name="knKHA" format="1">
  <advance width="779"/>
  <unicode hex="0C96"/>
  <outline>
    <contour>
      <point x="529" y="-14" type="curve" smooth="yes"/>
      <point x="642" y="-14"/>
      <point x="722" y="95"/>
      <point x="724" y="242" type="curve" smooth="yes"/>
      <point x="722" y="415"/>
      <point x="626" y="513"/>
      <point x="557" y="513" type="curve" smooth="yes"/>
      <point x="524" y="513"/>
      <point x="507" y="493"/>
      <point x="509" y="470" type="curve" smooth="yes"/>
      <point x="507" y="451"/>
      <point x="519" y="435"/>
      <point x="537" y="430" type="curve" smooth="yes"/>
      <point x="558" y="423"/>
      <point x="579" y="428"/>
      <point x="605" y="420" type="curve" smooth="yes"/>
      <point x="640" y="407"/>
      <point x="687" y="344"/>
      <point x="689" y="255" type="curve" smooth="yes"/>
      <point x="687" y="137"/>
      <point x="617" y="71"/>
      <point x="531" y="71" type="curve" smooth="yes"/>
      <point x="382" y="71"/>
      <point x="313" y="231"/>
      <point x="169" y="231" type="curve" smooth="yes"/>
      <point x="93" y="231"/>
      <point x="41" y="187"/>
      <point x="41" y="116" type="curve" smooth="yes"/>
      <point x="41" y="46"/>
      <point x="101" y="-14"/>
      <point x="195" y="-14" type="curve" smooth="yes"/>
      <point x="349" y="-14"/>
      <point x="437" y="169"/>
      <point x="437" y="279" type="curve" smooth="yes"/>
      <point x="437" y="445"/>
      <point x="358" y="520"/>
      <point x="259" y="520" type="curve" smooth="yes"/>
      <point x="198" y="520"/>
      <point x="147" y="469"/>
      <point x="147" y="407" type="curve" smooth="yes"/>
      <point x="147" y="350"/>
      <point x="181" y="300"/>
      <point x="237" y="300" type="curve" smooth="yes"/>
      <point x="281" y="300"/>
      <point x="305" y="330"/>
      <point x="305" y="356" type="curve" smooth="yes"/>
      <point x="305" y="385"/>
      <point x="284" y="408"/>
      <point x="257" y="408" type="curve" smooth="yes"/>
      <point x="229" y="408"/>
      <point x="212" y="387"/>
      <point x="212" y="357" type="curve" smooth="yes"/>
      <point x="212" y="352"/>
      <point x="211" y="351"/>
      <point x="208" y="351" type="curve" smooth="yes"/>
      <point x="195" y="351"/>
      <point x="186" y="369"/>
      <point x="186" y="390" type="curve" smooth="yes"/>
      <point x="186" y="426"/>
      <point x="218" y="455"/>
      <point x="266" y="455" type="curve" smooth="yes"/>
      <point x="337" y="455"/>
      <point x="398" y="397"/>
      <point x="398" y="287" type="curve" smooth="yes"/>
      <point x="398" y="159"/>
      <point x="327" y="71"/>
      <point x="200" y="71" type="curve" smooth="yes"/>
      <point x="126" y="71"/>
      <point x="95" y="104"/>
      <point x="95" y="136" type="curve" smooth="yes"/>
      <point x="95" y="167"/>
      <point x="118" y="196"/>
      <point x="170" y="196" type="curve" smooth="yes"/>
      <point x="312" y="196"/>
      <point x="381" y="-14"/>
    </contour>
  </outline>
</glyph>
<glyph name="knNGA" format="1">
  <advance width="678"/>
  <unicode hex="0C99"/>
  <outline>
    <contour>
      <point x="329" y="361"/>
      <point x="352" y="385"/>
      <point x="382" y="385" type="curve" smooth="yes"/>
      <point x="412" y="385"/>
      <point x="435" y="361"/>
      <point x="435" y="331" type="curve" smooth="yes"/>
      <point x="435" y="302"/>
      <point x="412" y="278"/>
      <point x="382" y="278" type="curve" smooth="yes"/>
      <point x="352" y="278"/>
      <point x="329" y="302"/>
      <point x="329" y="331" type="curve" smooth="yes"/>
    </contour>
    <contour>
      <point x="371" y="536"/>
      <point x="271" y="438"/>
      <point x="219" y="346" type="curve"/>
      <point x="219" y="307" type="line"/>
      <point x="307" y="423"/>
      <point x="378" y="467"/>
      <point x="465" y="467" type="curve" smooth="yes"/>
      <point x="529" y="467"/>
      <point x="570" y="430"/>
      <point x="570" y="376" type="curve" smooth="yes"/>
      <point x="570" y="355"/>
      <point x="562" y="337"/>
      <point x="550" y="324" type="curve"/>
      <point x="569" y="308" type="line"/>
      <point x="592" y="332"/>
      <point x="613" y="360"/>
      <point x="613" y="402" type="curve" smooth="yes"/>
      <point x="613" y="472"/>
      <point x="564" y="536"/>
      <point x="480" y="536" type="curve" smooth="yes"/>
    </contour>
    <component base="knO"/>
  </outline>
</glyph>
<glyph name="knCHA" format="1">
  <advance width="810"/>
  <unicode hex="0C9B"/>
  <outline>
    <contour>
      <point x="656" y="644" type="line"/>
      <point x="680" y="635"/>
      <point x="702" y="610"/>
      <point x="702" y="576" type="curve" smooth="yes"/>
      <point x="702" y="536"/>
      <point x="671" y="509"/>
      <point x="610" y="509" type="curve" smooth="yes"/>
      <point x="449" y="509" type="line"/>
      <point x="449" y="434" type="line"/>
      <point x="610" y="434" type="line" smooth="yes"/>
      <point x="691" y="434"/>
      <point x="745" y="480"/>
      <point x="745" y="552" type="curve" smooth="yes"/>
      <point x="745" y="607"/>
      <point x="714" y="648"/>
      <point x="671" y="664" type="curve"/>
    </contour>
    <contour>
      <point x="247" y="71" type="curve" smooth="yes"/>
      <point x="156" y="71"/>
      <point x="99" y="149"/>
      <point x="99" y="272" type="curve" smooth="yes"/>
      <point x="99" y="365"/>
      <point x="141" y="454"/>
      <point x="234" y="454" type="curve" smooth="yes"/>
      <point x="272" y="454"/>
      <point x="306" y="440"/>
      <point x="306" y="401" type="curve" smooth="yes"/>
      <point x="306" y="365"/>
      <point x="278" y="344"/>
      <point x="231" y="344" type="curve" smooth="yes"/>
      <point x="189" y="344"/>
      <point x="158" y="365"/>
      <point x="158" y="408" type="curve" smooth="yes"/>
      <point x="158" y="419"/>
      <point x="162" y="440"/>
      <point x="165" y="450" type="curve"/>
      <point x="176" y="475"/>
      <point x="171" y="501"/>
      <point x="156" y="497" type="curve"/>
      <point x="134" y="429" type="line"/>
      <point x="131" y="407"/>
      <point x="130" y="394"/>
      <point x="130" y="381" type="curve" smooth="yes"/>
      <point x="130" y="308"/>
      <point x="173" y="273"/>
      <point x="231" y="273" type="curve" smooth="yes"/>
      <point x="294" y="273"/>
      <point x="336" y="325"/>
      <point x="336" y="391" type="curve" smooth="yes"/>
      <point x="336" y="457"/>
      <point x="300" y="519"/>
      <point x="229" y="519" type="curve" smooth="yes"/>
      <point x="127" y="519"/>
      <point x="59" y="392"/>
      <point x="59" y="261" type="curve" smooth="yes"/>
      <point x="59" y="82"/>
      <point x="136" y="-14"/>
      <point x="247" y="-14" type="curve" smooth="yes"/>
      <point x="317" y="-14"/>
      <point x="385" y="43"/>
      <point x="408" y="126" type="curve"/>
      <point x="410" y="126" type="line"/>
      <point x="433" y="43"/>
      <point x="501" y="-14"/>
      <point x="571" y="-14" type="curve"/>
      <point x="682" y="-14"/>
      <point x="744" y="78"/>
      <point x="744" y="224" type="curve" smooth="yes"/>
      <point x="744" y="416"/>
      <point x="590" y="509"/>
      <point x="457" y="509" type="curve"/>
      <point x="497" y="434" type="line"/>
      <point x="626" y="434"/>
      <point x="705" y="372"/>
      <point x="705" y="237" type="curve" smooth="yes"/>
      <point x="705" y="158"/>
      <point x="663" y="71"/>
      <point x="565" y="71" type="curve"/>
      <point x="492" y="71"/>
      <point x="426" y="146"/>
      <point x="413" y="221" type="curve"/>
      <point x="404" y="221" type="line"/>
      <point x="390" y="145"/>
      <point x="322" y="71"/>
    </contour>
    <contour>
      <point x="461" y="-117"/>
      <point x="432" y="-104"/>
      <point x="418" y="16" type="curve"/>
      <point x="402" y="16" type="line"/>
      <point x="389" y="-104"/>
      <point x="358" y="-117"/>
      <point x="358" y="-161" type="curve" smooth="yes"/>
      <point x="358" y="-197"/>
      <point x="383" y="-220"/>
      <point x="410" y="-220" type="curve" smooth="yes"/>
      <point x="436" y="-220"/>
      <point x="461" y="-201"/>
      <point x="461" y="-161" type="curve" smooth="yes"/>
    </contour>
  </outline>
</glyph>
<glyph name="knTA" format="1">
  <advance width="595"/>
  <unicode hex="0CA4"/>
  <outline>
    <contour>
      <point x="349" y="440"/>
      <point x="415" y="394"/>
      <point x="415" y="338" type="curve" smooth="yes"/>
      <point x="415" y="279"/>
      <point x="368" y="247"/>
      <point x="312" y="247" type="curve" smooth="yes"/>
      <point x="264" y="247"/>
      <point x="234" y="265"/>
      <point x="234" y="294" type="curve" smooth="yes"/>
      <point x="234" y="325"/>
      <point x="272" y="344"/>
      <point x="332" y="344" type="curve" smooth="yes"/>
      <point x="421" y="344"/>
      <point x="494" y="293"/>
      <point x="494" y="213" type="curve" smooth="yes"/>
      <point x="494" y="139"/>
      <point x="423" y="71"/>
      <point x="301" y="71" type="curve" smooth="yes"/>
      <point x="174" y="71"/>
      <point x="98" y="129"/>
      <point x="98" y="199" type="curve" smooth="yes"/>
      <point x="98" y="220"/>
      <point x="101" y="239"/>
      <point x="109" y="254" type="curve"/>
      <point x="85" y="258" type="line"/>
      <point x="73" y="240"/>
      <point x="61" y="204"/>
      <point x="61" y="170" type="curve" smooth="yes"/>
      <point x="61" y="76"/>
      <point x="146" y="-14"/>
      <point x="297" y="-14" type="curve" smooth="yes"/>
      <point x="445" y="-14"/>
      <point x="540" y="75"/>
      <point x="540" y="191" type="curve" smooth="yes"/>
      <point x="540" y="307"/>
      <point x="441" y="380"/>
      <point x="333" y="380" type="curve" smooth="yes"/>
      <point x="236" y="380"/>
      <point x="179" y="342"/>
      <point x="179" y="287" type="curve" smooth="yes"/>
      <point x="179" y="230"/>
      <point x="235" y="189"/>
      <point x="306" y="189" type="curve" smooth="yes"/>
      <point x="386" y="189"/>
      <point x="453" y="242"/>
      <point x="453" y="322" type="curve" smooth="yes"/>
      <point x="453" y="385"/>
      <point x="406" y="437"/>
      <point x="360" y="449" type="curve"/>
      <point x="295" y="440" type="line"/>
    </contour>
    <component base="lip" xOffset="40"/>
  </outline>
</glyph>
<glyph name="knBA" format="1">
  <advance width="707"/>
  <unicode hex="0CAC"/>
  <outline>
    <contour>
      <point x="191" y="-12" type="curve"/>
      <point x="259" y="-12"/>
      <point x="327" y="45"/>
      <point x="350" y="128" type="curve"/>
      <point x="352" y="128" type="line"/>
      <point x="375" y="45"/>
      <point x="443" y="-12"/>
      <point x="514" y="-12" type="curve" smooth="yes"/>
      <point x="617" y="-12"/>
      <point x="667" y="97"/>
      <point x="667" y="224" type="curve" smooth="yes"/>
      <point x="667" y="397"/>
      <point x="572" y="513"/>
      <point x="501" y="513" type="curve" smooth="yes"/>
      <point x="470" y="513"/>
      <point x="453" y="493"/>
      <point x="453" y="470" type="curve" smooth="yes"/>
      <point x="453" y="451"/>
      <point x="465" y="435"/>
      <point x="481" y="430" type="curve" smooth="yes"/>
      <point x="504" y="423"/>
      <point x="525" y="428"/>
      <point x="549" y="420" type="curve" smooth="yes"/>
      <point x="586" y="407"/>
      <point x="632" y="326"/>
      <point x="632" y="237" type="curve" smooth="yes"/>
      <point x="632" y="131"/>
      <point x="579" y="73"/>
      <point x="507" y="73" type="curve" smooth="yes"/>
      <point x="434" y="73"/>
      <point x="368" y="148"/>
      <point x="355" y="223" type="curve"/>
      <point x="346" y="223" type="line"/>
      <point x="332" y="147"/>
      <point x="267" y="73"/>
      <point x="194" y="73" type="curve"/>
      <point x="141" y="73"/>
      <point x="114" y="116"/>
      <point x="114" y="158" type="curve" smooth="yes"/>
      <point x="114" y="189"/>
      <point x="139" y="225"/>
      <point x="172" y="259" type="curve" smooth="yes"/>
      <point x="212" y="300"/>
      <point x="261" y="351"/>
      <point x="261" y="401" type="curve" smooth="yes"/>
      <point x="261" y="467"/>
      <point x="213" y="521"/>
      <point x="137" y="521" type="curve" smooth="yes"/>
      <point x="62" y="521"/>
      <point x="23" y="467"/>
      <point x="23" y="415" type="curve" smooth="yes"/>
      <point x="23" y="383"/>
      <point x="31" y="354"/>
      <point x="52" y="332" type="curve"/>
      <point x="72" y="347" type="line"/>
      <point x="65" y="362"/>
      <point x="62" y="374"/>
      <point x="62" y="385" type="curve" smooth="yes"/>
      <point x="62" y="423"/>
      <point x="85" y="454"/>
      <point x="137" y="454" type="curve" smooth="yes"/>
      <point x="174" y="454"/>
      <point x="208" y="429"/>
      <point x="208" y="387" type="curve" smooth="yes"/>
      <point x="208" y="346"/>
      <point x="177" y="313"/>
      <point x="145" y="280" type="curve" smooth="yes"/>
      <point x="106" y="240"/>
      <point x="63" y="195"/>
      <point x="63" y="127" type="curve" smooth="yes"/>
      <point x="63" y="40"/>
      <point x="124" y="-12"/>
    </contour>
  </outline>
</glyph>
<glyph name="knBHA" format="1">
  <advance width="730"/>
  <unicode hex="0CAD"/>
  <outline>
    <contour>
      <point x="581" y="644" type="line"/>
      <point x="605" y="635"/>
      <point x="627" y="610"/>
      <point x="627" y="576" type="curve" smooth="yes"/>
      <point x="627" y="536"/>
      <point x="596" y="509"/>
      <point x="535" y="509" type="curve" smooth="yes"/>
      <point x="344" y="509" type="line"/>
      <point x="344" y="434" type="line"/>
      <point x="535" y="434" type="line" smooth="yes"/>
      <point x="616" y="434"/>
      <point x="670" y="480"/>
      <point x="670" y="552" type="curve" smooth="yes"/>
      <point x="670" y="607"/>
      <point x="639" y="648"/>
      <point x="596" y="664" type="curve"/>
    </contour>
    <contour>
      <point x="194" y="71" type="curve" smooth="yes"/>
      <point x="141" y="71"/>
      <point x="114" y="114"/>
      <point x="114" y="156" type="curve" smooth="yes"/>
      <point x="114" y="187"/>
      <point x="139" y="223"/>
      <point x="172" y="257" type="curve" smooth="yes"/>
      <point x="212" y="298"/>
      <point x="261" y="349"/>
      <point x="261" y="399" type="curve" smooth="yes"/>
      <point x="261" y="465"/>
      <point x="213" y="519"/>
      <point x="137" y="519" type="curve" smooth="yes"/>
      <point x="62" y="519"/>
      <point x="23" y="465"/>
      <point x="23" y="413" type="curve" smooth="yes"/>
      <point x="23" y="381"/>
      <point x="31" y="352"/>
      <point x="52" y="330" type="curve"/>
      <point x="72" y="345" type="line"/>
      <point x="65" y="360"/>
      <point x="62" y="372"/>
      <point x="62" y="383" type="curve" smooth="yes"/>
      <point x="62" y="421"/>
      <point x="85" y="452"/>
      <point x="137" y="452" type="curve" smooth="yes"/>
      <point x="174" y="452"/>
      <point x="208" y="427"/>
      <point x="208" y="385" type="curve" smooth="yes"/>
      <point x="208" y="344"/>
      <point x="177" y="311"/>
      <point x="145" y="278" type="curve" smooth="yes"/>
      <point x="106" y="238"/>
      <point x="63" y="193"/>
      <point x="63" y="125" type="curve" smooth="yes"/>
      <point x="63" y="38"/>
      <point x="124" y="-14"/>
      <point x="191" y="-14" type="curve" smooth="yes"/>
      <point x="259" y="-14"/>
      <point x="327" y="43"/>
      <point x="350" y="126" type="curve"/>
      <point x="352" y="126" type="line"/>
      <point x="375" y="43"/>
      <point x="443" y="-14"/>
      <point x="514" y="-14" type="curve"/>
      <point x="616" y="-14"/>
      <point x="670" y="84"/>
      <point x="670" y="171" type="curve" smooth="yes"/>
      <point x="670" y="360"/>
      <point x="527" y="470"/>
      <point x="391" y="470" type="curve"/>
      <point x="381" y="434" type="line"/>
      <point x="533" y="424"/>
      <point x="632" y="301"/>
      <point x="632" y="203" type="curve" smooth="yes"/>
      <point x="632" y="121"/>
      <point x="583" y="71"/>
      <point x="507" y="71" type="curve"/>
      <point x="434" y="71"/>
      <point x="368" y="146"/>
      <point x="355" y="221" type="curve"/>
      <point x="346" y="221" type="line"/>
      <point x="332" y="145"/>
      <point x="267" y="71"/>
    </contour>
    <contour>
      <point x="403" y="-117"/>
      <point x="374" y="-104"/>
      <point x="360" y="16" type="curve"/>
      <point x="344" y="16" type="line"/>
      <point x="331" y="-104"/>
      <point x="300" y="-117"/>
      <point x="300" y="-161" type="curve" smooth="yes"/>
      <point x="300" y="-197"/>
      <point x="325" y="-220"/>
      <point x="352" y="-220" type="curve" smooth="yes"/>
      <point x="378" y="-220"/>
      <point x="403" y="-201"/>
      <point x="403" y="-161" type="curve" smooth="yes"/>
    </contour>
  </outline>
</glyph>
<glyph name="knRA" format="1">
  <advance width="580"/>
  <unicode hex="0CB0"/>
  <outline>
    <contour>
      <point x="244" y="461"/>
      <point x="207" y="453"/>
      <point x="175" y="436" type="curve" smooth="yes"/>
      <point x="101" y="398"/>
      <point x="55" y="315"/>
      <point x="55" y="226" type="curve" smooth="yes"/>
      <point x="55" y="86"/>
      <point x="149" y="-14"/>
      <point x="285" y="-14" type="curve" smooth="yes"/>
      <point x="421" y="-14"/>
      <point x="515" y="86"/>
      <point x="515" y="226" type="curve" smooth="yes"/>
      <point x="515" y="315"/>
      <point x="469" y="398"/>
      <point x="395" y="436" type="curve" smooth="yes"/>
      <point x="363" y="453"/>
      <point x="326" y="461"/>
      <point x="285" y="461" type="curve"/>
    </contour>
    <contour>
      <point x="386" y="433"/>
      <point x="470" y="349"/>
      <point x="470" y="248" type="curve" smooth="yes"/>
      <point x="470" y="145"/>
      <point x="394" y="71"/>
      <point x="285" y="71" type="curve" smooth="yes"/>
      <point x="175" y="71"/>
      <point x="100" y="144"/>
      <point x="100" y="247" type="curve" smooth="yes"/>
      <point x="100" y="348"/>
      <point x="184" y="433"/>
      <point x="285" y="433" type="curve"/>
    </contour>
    <contour>
      <point x="426" y="644" type="line"/>
      <point x="450" y="635"/>
      <point x="472" y="610"/>
      <point x="472" y="576" type="curve" smooth="yes"/>
      <point x="472" y="536"/>
      <point x="441" y="509"/>
      <point x="380" y="509" type="curve" smooth="yes"/>
      <point x="55" y="509" type="line"/>
      <point x="55" y="434" type="line"/>
      <point x="218" y="434" type="line"/>
      <point x="284" y="451" type="line"/>
      <point x="348" y="434" type="line"/>
      <point x="380" y="434" type="line" smooth="yes"/>
      <point x="461" y="434"/>
      <point x="515" y="480"/>
      <point x="515" y="552" type="curve" smooth="yes"/>
      <point x="515" y="607"/>
      <point x="484" y="648"/>
      <point x="441" y="664" type="curve"/>
    </contour>
  </outline>
</glyph>
<glyph name="knLA" format="1">
  <advance width="716"/>
  <unicode hex="0CB2"/>
  <outline>
    <contour>
      <point x="370" y="71" type="curve" smooth="yes"/>
      <point x="521" y="72"/>
      <point x="621" y="157"/>
      <point x="621" y="293" type="curve" smooth="yes"/>
      <point x="621" y="365"/>
      <point x="585" y="408"/>
      <point x="548" y="421" type="curve" smooth="yes"/>
      <point x="524" y="429"/>
      <point x="503" y="424"/>
      <point x="480" y="431" type="curve" smooth="yes"/>
      <point x="464" y="436"/>
      <point x="452" y="452"/>
      <point x="452" y="471" type="curve" smooth="yes"/>
      <point x="452" y="494"/>
      <point x="472" y="514"/>
      <point x="507" y="514" type="curve" smooth="yes"/>
      <point x="571" y="514"/>
      <point x="656" y="416"/>
      <point x="656" y="283" type="curve" smooth="yes"/>
      <point x="656" y="116"/>
      <point x="551" y="-13"/>
      <point x="370" y="-14" type="curve"/>
      <point x="179" y="-14"/>
      <point x="59" y="104"/>
      <point x="59" y="283" type="curve" smooth="yes"/>
      <point x="59" y="414"/>
      <point x="127" y="519"/>
      <point x="229" y="519" type="curve" smooth="yes"/>
      <point x="300" y="519"/>
      <point x="336" y="457"/>
      <point x="336" y="391" type="curve" smooth="yes"/>
      <point x="336" y="325"/>
      <point x="294" y="273"/>
      <point x="231" y="273" type="curve" smooth="yes"/>
      <point x="173" y="273"/>
      <point x="130" y="308"/>
      <point x="130" y="381" type="curve" smooth="yes"/>
      <point x="130" y="394"/>
      <point x="131" y="407"/>
      <point x="134" y="429" type="curve"/>
      <point x="156" y="497" type="line"/>
      <point x="171" y="501"/>
      <point x="176" y="475"/>
      <point x="165" y="450" type="curve"/>
      <point x="162" y="440"/>
      <point x="158" y="419"/>
      <point x="158" y="408" type="curve" smooth="yes"/>
      <point x="158" y="365"/>
      <point x="189" y="344"/>
      <point x="231" y="344" type="curve" smooth="yes"/>
      <point x="278" y="344"/>
      <point x="306" y="365"/>
      <point x="306" y="401" type="curve" smooth="yes"/>
      <point x="306" y="440"/>
      <point x="272" y="454"/>
      <point x="234" y="454" type="curve" smooth="yes"/>
      <point x="141" y="454"/>
      <point x="99" y="387"/>
      <point x="99" y="294" type="curve" smooth="yes"/>
      <point x="99" y="171"/>
      <point x="199" y="70"/>
    </contour>
  </outline>
</glyph>
<glyph name="knSHA" format="1">
  <advance width="560"/>
  <unicode hex="0CB6"/>
  <outline>
    <contour>
      <point x="164" y="471"/>
      <point x="123" y="426"/>
      <point x="123" y="377" type="curve" smooth="yes"/>
      <point x="123" y="342"/>
      <point x="149" y="308"/>
      <point x="196" y="308" type="curve" smooth="yes"/>
      <point x="230" y="308"/>
      <point x="248" y="331"/>
      <point x="248" y="353" type="curve"/>
      <point x="248" y="375"/>
      <point x="232" y="393"/>
      <point x="210" y="393" type="curve"/>
      <point x="190" y="393"/>
      <point x="176" y="376"/>
      <point x="176" y="354" type="curve" smooth="yes"/>
      <point x="176" y="351"/>
      <point x="175" y="347"/>
      <point x="171" y="347" type="curve" smooth="yes"/>
      <point x="162" y="347"/>
      <point x="154" y="360"/>
      <point x="154" y="378" type="curve" smooth="yes"/>
      <point x="154" y="412"/>
      <point x="188" y="439"/>
      <point x="231" y="439" type="curve"/>
      <point x="274" y="439"/>
      <point x="312" y="399"/>
      <point x="312" y="346" type="curve" smooth="yes"/>
      <point x="312" y="273"/>
      <point x="253" y="261"/>
      <point x="157" y="261" type="curve" smooth="yes"/>
      <point x="84" y="261"/>
      <point x="37" y="222"/>
      <point x="37" y="163" type="curve" smooth="yes"/>
      <point x="37" y="66"/>
      <point x="115" y="-14"/>
      <point x="242" y="-14" type="curve" smooth="yes"/>
      <point x="400" y="-14"/>
      <point x="501" y="90"/>
      <point x="501" y="236" type="curve" smooth="yes"/>
      <point x="501" y="379"/>
      <point x="400" y="469"/>
      <point x="257" y="470" type="curve" smooth="yes"/>
    </contour>
    <contour>
      <point x="376" y="435"/>
      <point x="451" y="373"/>
      <point x="451" y="263" type="curve" smooth="yes"/>
      <point x="451" y="138"/>
      <point x="372" y="71"/>
      <point x="241" y="71" type="curve" smooth="yes"/>
      <point x="147" y="71"/>
      <point x="84" y="126"/>
      <point x="84" y="174" type="curve" smooth="yes"/>
      <point x="84" y="209"/>
      <point x="107" y="231"/>
      <point x="191" y="231" type="curve" smooth="yes"/>
      <point x="304" y="231"/>
      <point x="344" y="274"/>
      <point x="344" y="339" type="curve" smooth="yes"/>
      <point x="344" y="383"/>
      <point x="327" y="420"/>
      <point x="295" y="440" type="curve"/>
    </contour>
    <contour>
      <point x="431" y="644" type="line"/>
      <point x="455" y="635"/>
      <point x="477" y="610"/>
      <point x="477" y="576" type="curve" smooth="yes"/>
      <point x="477" y="536"/>
      <point x="446" y="509"/>
      <point x="385" y="509" type="curve" smooth="yes"/>
      <point x="40" y="509" type="line"/>
      <point x="40" y="434" type="line"/>
      <point x="176" y="434" type="line"/>
      <point x="277" y="459" type="line"/>
      <point x="385" y="434" type="line"/>
      <point x="466" y="434"/>
      <point x="520" y="480"/>
      <point x="520" y="552" type="curve" smooth="yes"/>
      <point x="520" y="607"/>
      <point x="489" y="648"/>
      <point x="446" y="664" type="curve"/>
    </contour>
  </outline>
</glyph>
<glyph name="knNukta" format="1">
  <advance width="476"/>
  <unicode hex="0CBC"/>
  <outline>
    <contour>
      <point x="80" y="-152"/>
      <point x="105" y="-177"/>
      <point x="137" y="-177" type="curve" smooth="yes"/>
      <point x="170" y="-177"/>
      <point x="194" y="-152"/>
      <point x="194" y="-120" type="curve" smooth="yes"/>
      <point x="194" y="-87"/>
      <point x="170" y="-63"/>
      <point x="137" y="-63" type="curve" smooth="yes"/>
      <point x="105" y="-63"/>
      <point x="80" y="-87"/>
      <point x="80" y="-120" type="curve" smooth="yes"/>
    </contour>
    <contour>
      <point x="282" y="-152"/>
      <point x="307" y="-177"/>
      <point x="339" y="-177" type="curve" smooth="yes"/>
      <point x="372" y="-177"/>
      <point x="396" y="-152"/>
      <point x="396" y="-120" type="curve" smooth="yes"/>
      <point x="396" y="-87"/>
      <point x="372" y="-63"/>
      <point x="339" y="-63" type="curve" smooth="yes"/>
      <point x="307" y="-63"/>
      <point x="282" y="-87"/>
      <point x="282" y="-120" type="curve" smooth="yes"/>
    </contour>
  </outline>
</glyph>
<glyph name="knAvagraha" format="1">
  <advance width="415"/>
  <unicode hex="0CBD"/>
  <outline>
    <contour>
      <point x="365" y="437" type="line"/>
      <point x="365" y="519" type="line"/>
      <point x="170" y="519" type="line" smooth="yes"/>
      <point x="92" y="519"/>
      <point x="47" y="467"/>
      <point x="47" y="413" type="curve" smooth="yes"/>
      <point x="47" y="380"/>
      <point x="53" y="354"/>
      <point x="72" y="331" type="curve" smooth="yes"/>
      <point x="135" y="258"/>
      <point x="320" y="229"/>
      <point x="320" y="150" type="curve" smooth="yes"/>
      <point x="320" y="116"/>
      <point x="287" y="93"/>
      <point x="229" y="93" type="curve" smooth="yes"/>
      <point x="147" y="93"/>
      <point x="94" y="126"/>
      <point x="68" y="178" type="curve"/>
      <point x="44" y="154" type="line"/>
      <point x="56" y="45"/>
      <point x="124" y="-14"/>
      <point x="215" y="-14" type="curve" smooth="yes"/>
      <point x="298" y="-14"/>
      <point x="370" y="40"/>
      <point x="370" y="127" type="curve" smooth="yes"/>
      <point x="370" y="284"/>
      <point x="99" y="288"/>
      <point x="99" y="383" type="curve" smooth="yes"/>
      <point x="99" y="411"/>
      <point x="121" y="437"/>
      <point x="173" y="437" type="curve" smooth="yes"/>
    </contour>
  </outline>
</glyph>
<glyph name="knmI" format="1">
  <advance width="244"/>
  <unicode hex="0CBF"/>
  <outline>
    <contour>
      <point x="233" y="581"/>
      <point x="172" y="674"/>
      <point x="88" y="674" type="curve" smooth="yes"/>
      <point x="29" y="674"/>
      <point x="-7" y="629"/>
      <point x="-7" y="560" type="curve" smooth="yes"/>
      <point x="-7" y="499"/>
      <point x="33" y="450"/>
      <point x="89" y="451" type="curve" smooth="yes"/>
      <point x="147" y="452"/>
      <point x="177" y="505"/>
      <point x="177" y="563" type="curve" smooth="yes"/>
      <point x="177" y="594"/>
      <point x="170" y="612"/>
      <point x="159" y="627" type="curve"/>
      <point x="131" y="631" type="line"/>
      <point x="145" y="617"/>
      <point x="149" y="601"/>
      <point x="149" y="578" type="curve" smooth="yes"/>
      <point x="149" y="548"/>
      <point x="130" y="511"/>
      <point x="83" y="511" type="curve" smooth="yes"/>
      <point x="47" y="511"/>
      <point x="26" y="530"/>
      <point x="26" y="560" type="curve" smooth="yes"/>
      <point x="26" y="583"/>
      <point x="46" y="608"/>
      <point x="90" y="608" type="curve" smooth="yes"/>
      <point x="156" y="608"/>
      <point x="201" y="549"/>
      <point x="201" y="498" type="curve" smooth="yes"/>
      <point x="201" y="431"/>
      <point x="151" y="389"/>
      <point x="30" y="375" type="curve"/>
      <point x="59" y="314" type="line"/>
      <point x="181" y="334"/>
      <point x="233" y="400"/>
      <point x="233" y="494" type="curve" smooth="yes"/>
    </contour>
  </outline>
</glyph>
<glyph name="knmII" format="1">
  <advance width="533"/>
  <unicode hex="0CC0"/>
  <outline>
    <contour>
      <point x="233" y="581"/>
      <point x="172" y="674"/>
      <point x="88" y="674" type="curve" smooth="yes"/>
      <point x="29" y="674"/>
      <point x="-7" y="629"/>
      <point x="-7" y="560" type="curve" smooth="yes"/>
      <point x="-7" y="499"/>
      <point x="33" y="450"/>
      <point x="89" y="451" type="curve" smooth="yes"/>
      <point x="147" y="452"/>
      <point x="177" y="505"/>
      <point x="177" y="563" type="curve" smooth="yes"/>
      <point x="177" y="594"/>
      <point x="170" y="612"/>
      <point x="159" y="627" type="curve"/>
      <point x="131" y="631" type="line"/>
      <point x="145" y="617"/>
      <point x="149" y="601"/>
      <point x="149" y="578" type="curve" smooth="yes"/>
      <point x="149" y="548"/>
      <point x="130" y="511"/>
      <point x="83" y="511" type="curve" smooth="yes"/>
      <point x="47" y="511"/>
      <point x="26" y="530"/>
      <point x="26" y="560" type="curve" smooth="yes"/>
      <point x="26" y="583"/>
      <point x="46" y="608"/>
      <point x="90" y="608" type="curve" smooth="yes"/>
      <point x="156" y="608"/>
      <point x="201" y="549"/>
      <point x="201" y="498" type="curve" smooth="yes"/>
      <point x="201" y="431"/>
      <point x="151" y="389"/>
      <point x="30" y="375" type="curve"/>
      <point x="59" y="314" type="line"/>
      <point x="181" y="334"/>
      <point x="233" y="400"/>
      <point x="233" y="494" type="curve" smooth="yes"/>
    </contour>
    <component base="knLengthmark" xOffset="320"/>
  </outline>
</glyph>
<glyph name="knmvRR" format="1">
  <advance width="336"/>
  <unicode hex="0CC4"/>
  <outline>
    <contour>
      <point x="132" y="-224"/>
      <point x="81" y="-269"/>
      <point x="16" y="-269" type="curve"/>
      <point x="-48" y="-269"/>
      <point x="-97" y="-229"/>
      <point x="-97" y="-175" type="curve"/>
      <point x="-97" y="-144"/>
      <point x="-90" y="-120"/>
      <point x="-75" y="-105" type="curve"/>
      <point x="-75" y="-110"/>
      <point x="-75" y="-116"/>
      <point x="-75" y="-122" type="curve" smooth="yes"/>
      <point x="-75" y="-155"/>
      <point x="-57" y="-171"/>
      <point x="-34" y="-171" type="curve" smooth="yes"/>
      <point x="-10" y="-171"/>
      <point x="5" y="-148"/>
      <point x="5" y="-117" type="curve" smooth="yes"/>
      <point x="5" y="-87"/>
      <point x="-7" y="-62"/>
      <point x="-40" y="-62" type="curve" smooth="yes"/>
      <point x="-83" y="-62"/>
      <point x="-117" y="-118"/>
      <point x="-117" y="-175" type="curve"/>
      <point x="-117" y="-254"/>
      <point x="-62" y="-308"/>
      <point x="17" y="-308" type="curve"/>
      <point x="97" y="-308"/>
      <point x="153" y="-243"/>
      <point x="153" y="-170" type="curve"/>
      <point x="153" y="-95"/>
      <point x="119" y="-30"/>
      <point x="80" y="21" type="curve"/>
      <point x="249" y="21" type="line"/>
      <point x="322" y="21"/>
      <point x="369" y="-40"/>
      <point x="369" y="-103" type="curve"/>
      <point x="369" y="-159"/>
      <point x="339" y="-201"/>
      <point x="284" y="-201" type="curve" smooth="yes"/>
      <point x="243" y="-201"/>
      <point x="217" y="-176"/>
      <point x="217" y="-143" type="curve"/>
      <point x="217" y="-117"/>
      <point x="223" y="-102"/>
      <point x="230" y="-102" type="curve" smooth="yes"/>
      <point x="234" y="-102"/>
      <point x="234" y="-104"/>
      <point x="234" y="-107" type="curve" smooth="yes"/>
      <point x="234" y="-129"/>
      <point x="247" y="-144"/>
      <point x="266" y="-144" type="curve" smooth="yes"/>
      <point x="287" y="-144"/>
      <point x="302" y="-127"/>
      <point x="302" y="-105" type="curve" smooth="yes"/>
      <point x="302" y="-86"/>
      <point x="287" y="-65"/>
      <point x="255" y="-65" type="curve" smooth="yes"/>
      <point x="208" y="-65"/>
      <point x="186" y="-104"/>
      <point x="186" y="-151" type="curve"/>
      <point x="186" y="-210"/>
      <point x="225" y="-251"/>
      <point x="274" y="-251" type="curve" smooth="yes"/>
      <point x="341" y="-251"/>
      <point x="393" y="-193"/>
      <point x="393" y="-95" type="curve"/>
      <point x="393" y="9"/>
      <point x="324" y="60"/>
      <point x="242" y="60" type="curve"/>
      <point x="24" y="60" type="line"/>
      <point x="24" y="46" type="line"/>
      <point x="70" y="-3"/>
      <point x="132" y="-78"/>
      <point x="132" y="-168" type="curve"/>
    </contour>
    <contour>
      <point x="-9" y="-129"/>
      <point x="-18" y="-139"/>
      <point x="-34" y="-139" type="curve" smooth="yes"/>
      <point x="-49" y="-139"/>
      <point x="-62" y="-131"/>
      <point x="-62" y="-109" type="curve" smooth="yes"/>
      <point x="-62" y="-104"/>
      <point x="-62" y="-99"/>
      <point x="-61" y="-94" type="curve"/>
      <point x="-55" y="-92"/>
      <point x="-49" y="-90"/>
      <point x="-42" y="-90" type="curve" smooth="yes"/>
      <point x="-20" y="-90"/>
      <point x="-9" y="-99"/>
      <point x="-9" y="-117" type="curve" smooth="yes"/>
    </contour>
  </outline>
</glyph>
<glyph name="knmEE" format="1">
  <advance width="352"/>
  <unicode hex="0CC7"/>
  <outline>
    <contour>
      <point x="143" y="392"/>
      <point x="133" y="361"/>
      <point x="133" y="325" type="curve" smooth="yes"/>
      <point x="133" y="267"/>
      <point x="160" y="229"/>
      <point x="208" y="229" type="curve" smooth="yes"/>
      <point x="245" y="229"/>
      <point x="302" y="269"/>
      <point x="302" y="345" type="curve" smooth="yes"/>
      <point x="302" y="421"/>
      <point x="265" y="476"/>
      <point x="200" y="476" type="curve" smooth="yes"/>
      <point x="110" y="476"/>
      <point x="59" y="363"/>
      <point x="59" y="248" type="curve" smooth="yes"/>
      <point x="59" y="151"/>
      <point x="97" y="59"/>
      <point x="166" y="-15" type="curve"/>
      <point x="219" y="-15" type="line"/>
      <point x="218" y="14" type="line"/>
      <point x="139" y="91"/>
      <point x="95" y="170"/>
      <point x="95" y="240" type="curve"/>
      <point x="95" y="346"/>
      <point x="137" y="408"/>
      <point x="207" y="408" type="curve" smooth="yes"/>
      <point x="245" y="408"/>
      <point x="274" y="386"/>
      <point x="274" y="347" type="curve" smooth="yes"/>
      <point x="274" y="317"/>
      <point x="249" y="287"/>
      <point x="210" y="287" type="curve" smooth="yes"/>
      <point x="175" y="287"/>
      <point x="157" y="314"/>
      <point x="157" y="347" type="curve" smooth="yes"/>
      <point x="157" y="381"/>
      <point x="170" y="408"/>
      <point x="197" y="438" type="curve"/>
      <point x="153" y="420" type="line"/>
    </contour>
    <contour>
      <point x="-200" y="434" type="line"/>
      <point x="-119" y="434"/>
      <point x="-65" y="480"/>
      <point x="-65" y="553" type="curve" smooth="yes"/>
      <point x="-65" y="651"/>
      <point x="-143" y="685"/>
      <point x="-200" y="685" type="curve" smooth="yes"/>
      <point x="-255" y="685"/>
      <point x="-283" y="657"/>
      <point x="-283" y="625" type="curve" smooth="yes"/>
      <point x="-283" y="592"/>
      <point x="-260" y="571"/>
      <point x="-226" y="571" type="curve" smooth="yes"/>
      <point x="-192" y="571"/>
      <point x="-171" y="597"/>
      <point x="-171" y="633" type="curve" smooth="yes"/>
      <point x="-171" y="639"/>
      <point x="-169" y="643"/>
      <point x="-165" y="643" type="curve" smooth="yes"/>
      <point x="-152" y="643"/>
      <point x="-108" y="629"/>
      <point x="-108" y="577" type="curve"/>
      <point x="-108" y="530"/>
      <point x="-148" y="509"/>
      <point x="-199" y="509" type="curve"/>
    </contour>
  </outline>
</glyph>
<glyph name="knmO" format="1">
  <advance width="732"/>
  <unicode hex="0CCA"/>
  <outline>
    <contour>
      <point x="623" y="140"/>
      <point x="573" y="71"/>
      <point x="481" y="71" type="curve" smooth="yes"/>
      <point x="410" y="71"/>
      <point x="368" y="112"/>
      <point x="368" y="169" type="curve"/>
      <point x="368" y="211"/>
      <point x="377" y="237"/>
      <point x="389" y="237" type="curve" smooth="yes"/>
      <point x="394" y="237"/>
      <point x="395" y="232"/>
      <point x="395" y="227" type="curve" smooth="yes"/>
      <point x="395" y="191"/>
      <point x="417" y="165"/>
      <point x="450" y="165" type="curve" smooth="yes"/>
      <point x="485" y="165"/>
      <point x="510" y="194"/>
      <point x="510" y="230" type="curve" smooth="yes"/>
      <point x="510" y="262"/>
      <point x="485" y="299"/>
      <point x="432" y="299" type="curve" smooth="yes"/>
      <point x="353" y="299"/>
      <point x="316" y="233"/>
      <point x="316" y="155" type="curve"/>
      <point x="316" y="56"/>
      <point x="379" y="-14"/>
      <point x="465" y="-14" type="curve" smooth="yes"/>
      <point x="576" y="-14"/>
      <point x="662" y="82"/>
      <point x="662" y="238" type="curve"/>
      <point x="662" y="424"/>
      <point x="524" y="519"/>
      <point x="407" y="519" type="curve"/>
      <point x="314" y="519"/>
      <point x="193" y="456"/>
      <point x="193" y="273" type="curve"/>
      <point x="193" y="177"/>
      <point x="177" y="71"/>
      <point x="84" y="71" type="curve"/>
      <point x="3" y="71"/>
      <point x="-47" y="145"/>
      <point x="-76" y="222" type="curve"/>
      <point x="-98" y="182" type="line"/>
      <point x="-89" y="84"/>
      <point x="-2" y="-14"/>
      <point x="87" y="-14" type="curve"/>
      <point x="210" y="-14"/>
      <point x="240" y="103"/>
      <point x="240" y="274" type="curve"/>
      <point x="240" y="416"/>
      <point x="329" y="437"/>
      <point x="407" y="437" type="curve" smooth="yes"/>
      <point x="501" y="437"/>
      <point x="623" y="357"/>
      <point x="623" y="235" type="curve"/>
    </contour>
    <contour>
      <point x="-200" y="434" type="line"/>
      <point x="-119" y="434"/>
      <point x="-65" y="480"/>
      <point x="-65" y="553" type="curve" smooth="yes"/>
      <point x="-65" y="651"/>
      <point x="-143" y="685"/>
      <point x="-200" y="685" type="curve" smooth="yes"/>
      <point x="-255" y="685"/>
      <point x="-283" y="657"/>
      <point x="-283" y="625" type="curve" smooth="yes"/>
      <point x="-283" y="592"/>
      <point x="-260" y="571"/>
      <point x="-226" y="571" type="curve" smooth="yes"/>
      <point x="-192" y="571"/>
      <point x="-171" y="597"/>
      <point x="-171" y="633" type="curve" smooth="yes"/>
      <point x="-171" y="639"/>
      <point x="-169" y="643"/>
      <point x="-165" y="643" type="curve" smooth="yes"/>
      <point x="-152" y="643"/>
      <point x="-108" y="629"/>
      <point x="-108" y="577" type="curve"/>
      <point x="-108" y="530"/>
      <point x="-148" y="509"/>
      <point x="-199" y="509" type="curve"/>
    </contour>
  </outline>
</glyph>
<glyph name="knvRR" format="1">
  <advance width="1482"/>
  <unicode hex="0CE0"/>
  <outline>
    <contour>
      <point x="157" y="57" type="curve" smooth="yes"/>
      <point x="107" y="57"/>
      <point x="77" y="83"/>
      <point x="77" y="112" type="curve" smooth="yes"/>
      <point x="77" y="140"/>
      <point x="106" y="161"/>
      <point x="153" y="161" type="curve" smooth="yes"/>
      <point x="195" y="161"/>
      <point x="225" y="122"/>
      <point x="225" y="76" type="curve" smooth="yes"/>
      <point x="225" y="65"/>
      <point x="221" y="44"/>
      <point x="218" y="34" type="curve"/>
      <point x="249" y="54" type="line"/>
      <point x="252" y="76"/>
      <point x="253" y="89"/>
      <point x="253" y="102" type="curve" smooth="yes"/>
      <point x="253" y="175"/>
      <point x="209" y="227"/>
      <point x="151" y="227" type="curve" smooth="yes"/>
      <point x="88" y="227"/>
      <point x="39" y="176"/>
      <point x="39" y="110" type="curve" smooth="yes"/>
      <point x="39" y="42"/>
      <point x="95" y="-15"/>
      <point x="164" y="-15" type="curve" smooth="yes"/>
      <point x="307" y="-15"/>
      <point x="387" y="120"/>
      <point x="387" y="251" type="curve" smooth="yes"/>
      <point x="387" y="382"/>
      <point x="309" y="519"/>
      <point x="157" y="519" type="curve" smooth="yes"/>
      <point x="95" y="519"/>
      <point x="42" y="471"/>
      <point x="42" y="405" type="curve" smooth="yes"/>
      <point x="42" y="339"/>
      <point x="101" y="289"/>
      <point x="154" y="289" type="curve" smooth="yes"/>
      <point x="212" y="289"/>
      <point x="256" y="332"/>
      <point x="256" y="405" type="curve" smooth="yes"/>
      <point x="256" y="418"/>
      <point x="255" y="431"/>
      <point x="252" y="453" type="curve"/>
      <point x="221" y="470" type="line"/>
      <point x="224" y="460"/>
      <point x="228" y="439"/>
      <point x="228" y="428" type="curve" smooth="yes"/>
      <point x="228" y="382"/>
      <point x="198" y="355"/>
      <point x="156" y="355" type="curve" smooth="yes"/>
      <point x="110" y="355"/>
      <point x="79" y="377"/>
      <point x="79" y="405" type="curve" smooth="yes"/>
      <point x="79" y="432"/>
      <point x="108" y="449"/>
      <point x="152" y="449" type="curve" smooth="yes"/>
      <point x="265" y="449"/>
      <point x="347" y="365"/>
      <point x="347" y="249" type="curve" smooth="yes"/>
      <point x="347" y="149"/>
      <point x="280" y="57"/>
    </contour>
    <contour>
      <point x="658" y="644" type="line"/>
      <point x="682" y="635"/>
      <point x="704" y="610"/>
      <point x="704" y="576" type="curve" smooth="yes"/>
      <point x="704" y="536"/>
      <point x="673" y="509"/>
      <point x="612" y="509" type="curve" smooth="yes"/>
      <point x="420" y="509" type="line"/>
      <point x="420" y="434" type="line"/>
      <point x="612" y="434" type="line" smooth="yes"/>
      <point x="693" y="434"/>
      <point x="747" y="480"/>
      <point x="747" y="552" type="curve" smooth="yes"/>
      <point x="747" y="607"/>
      <point x="716" y="648"/>
      <point x="673" y="664" type="curve"/>
    </contour>
    <contour>
      <point x="635" y="-14"/>
      <point x="715" y="95"/>
      <point x="715" y="242" type="curve" smooth="yes"/>
      <point x="715" y="415"/>
      <point x="619" y="509"/>
      <point x="548" y="509" type="curve" smooth="yes"/>
      <point x="517" y="509"/>
      <point x="500" y="493"/>
      <point x="500" y="470" type="curve" smooth="yes"/>
      <point x="500" y="464"/>
      <point x="529" y="453"/>
      <point x="568" y="434" type="curve" smooth="yes"/>
      <point x="615" y="411"/>
      <point x="680" y="344"/>
      <point x="680" y="255" type="curve" smooth="yes"/>
      <point x="680" y="137"/>
      <point x="610" y="71"/>
      <point x="522" y="71" type="curve" smooth="yes"/>
      <point x="453" y="71"/>
      <point x="400" y="105"/>
      <point x="363" y="207" type="curve"/>
      <point x="343" y="188" type="line"/>
      <point x="361" y="61"/>
      <point x="436" y="-14"/>
      <point x="522" y="-14" type="curve" smooth="yes"/>
    </contour>
    <contour>
      <point x="1392" y="235" type="curve" smooth="yes"/>
      <point x="1392" y="129"/>
      <point x="1330" y="68"/>
      <point x="1240" y="68" type="curve" smooth="yes"/>
      <point x="1167" y="68"/>
      <point x="1123" y="111"/>
      <point x="1122" y="169" type="curve" smooth="yes"/>
      <point x="1121" y="211"/>
      <point x="1143" y="237"/>
      <point x="1155" y="237" type="curve" smooth="yes"/>
      <point x="1160" y="237"/>
      <point x="1162" y="233"/>
      <point x="1161" y="227" type="curve" smooth="yes"/>
      <point x="1162" y="191"/>
      <point x="1183" y="165"/>
      <point x="1216" y="165" type="curve" smooth="yes"/>
      <point x="1251" y="165"/>
      <point x="1277" y="194"/>
      <point x="1276" y="230" type="curve" smooth="yes"/>
      <point x="1277" y="262"/>
      <point x="1252" y="299"/>
      <point x="1197" y="299" type="curve" smooth="yes"/>
      <point x="1125" y="299"/>
      <point x="1085" y="235"/>
      <point x="1084" y="157" type="curve" smooth="yes"/>
      <point x="1085" y="58"/>
      <point x="1145" y="-14"/>
      <point x="1241" y="-14" type="curve" smooth="yes"/>
      <point x="1353" y="-14"/>
      <point x="1427" y="92"/>
      <point x="1427" y="238" type="curve" smooth="yes"/>
      <point x="1427" y="402"/>
      <point x="1317" y="519"/>
      <point x="1169" y="519" type="curve" smooth="yes"/>
      <point x="1047" y="519"/>
      <point x="958" y="423"/>
      <point x="958" y="248" type="curve" smooth="yes"/>
      <point x="958" y="116"/>
      <point x="922" y="71"/>
      <point x="849" y="71" type="curve" smooth="yes"/>
      <point x="768" y="71"/>
      <point x="718" y="145"/>
      <point x="689" y="222" type="curve"/>
      <point x="672" y="186" type="line"/>
      <point x="696" y="88"/>
      <point x="774" y="-14"/>
      <point x="852" y="-14" type="curve" smooth="yes"/>
      <point x="962" y="-14"/>
      <point x="995" y="73"/>
      <point x="995" y="231" type="curve" smooth="yes"/>
      <point x="995" y="371"/>
      <point x="1071" y="441"/>
      <point x="1178" y="441" type="curve" smooth="yes"/>
      <point x="1293" y="441"/>
      <point x="1392" y="363"/>
    </contour>
  </outline>
</glyph>
<glyph name="knmvL" format="1">
  <advance width="65"/>
  <unicode hex="0CE2"/>
  <outline>
    <contour>
      <point x="323" y="-135"/>
      <point x="263" y="-55"/>
      <point x="211" y="-55" type="curve" smooth="yes"/>
      <point x="192" y="-55"/>
      <point x="179" y="-61"/>
      <point x="179" y="-75" type="curve" smooth="yes"/>
      <point x="179" y="-86"/>
      <point x="187" y="-93"/>
      <point x="194" y="-97" type="curve" smooth="yes"/>
      <point x="202" y="-102"/>
      <point x="216" y="-98"/>
      <point x="235" y="-103" type="curve" smooth="yes"/>
      <point x="265" y="-112"/>
      <point x="297" y="-175"/>
      <point x="297" y="-228" type="curve"/>
      <point x="297" y="-275"/>
      <point x="265" y="-315"/>
      <point x="213" y="-315" type="curve" smooth="yes"/>
      <point x="113" y="-315" type="line" smooth="yes"/>
      <point x="76" y="-315"/>
      <point x="56" y="-287"/>
      <point x="56" y="-263" type="curve" smooth="yes"/>
      <point x="56" y="-215"/>
      <point x="141" y="-206"/>
      <point x="141" y="-137" type="curve" smooth="yes"/>
      <point x="141" y="-83"/>
      <point x="107" y="-49"/>
      <point x="68" y="-49" type="curve" smooth="yes"/>
      <point x="27" y="-49"/>
      <point x="-13" y="-83"/>
      <point x="-27" y="-134" type="curve"/>
      <point x="-28" y="-134" type="line"/>
      <point x="-42" y="-83"/>
      <point x="-83" y="-49"/>
      <point x="-122" y="-49" type="curve" smooth="yes"/>
      <point x="-166" y="-49"/>
      <point x="-203" y="-86"/>
      <point x="-203" y="-134" type="curve" smooth="yes"/>
      <point x="-203" y="-149"/>
      <point x="-197" y="-166"/>
      <point x="-184" y="-180" type="curve"/>
      <point x="-165" y="-168" type="line"/>
      <point x="-170" y="-163"/>
      <point x="-172" y="-154"/>
      <point x="-172" y="-147" type="curve" smooth="yes"/>
      <point x="-172" y="-125"/>
      <point x="-155" y="-93"/>
      <point x="-120" y="-93" type="curve" smooth="yes"/>
      <point x="-71" y="-93"/>
      <point x="-39" y="-145"/>
      <point x="-30" y="-189" type="curve"/>
      <point x="-25" y="-189" type="line"/>
      <point x="-18" y="-145"/>
      <point x="17" y="-93"/>
      <point x="67" y="-93" type="curve" smooth="yes"/>
      <point x="98" y="-93"/>
      <point x="113" y="-111"/>
      <point x="113" y="-135" type="curve" smooth="yes"/>
      <point x="113" y="-197"/>
      <point x="28" y="-193"/>
      <point x="28" y="-271" type="curve" smooth="yes"/>
      <point x="28" y="-324"/>
      <point x="61" y="-355"/>
      <point x="99" y="-355" type="curve" smooth="yes"/>
      <point x="213" y="-355" type="line" smooth="yes"/>
      <point x="282" y="-355"/>
      <point x="323" y="-314"/>
      <point x="323" y="-239" type="curve"/>
    </contour>
    <contour>
      <point x="-11" y="0" type="move" name="_bottom"/>
    </contour>
  </outline>
</glyph>
<glyph name="knmvLL" format="1">
  <advance width="358"/>
  <unicode hex="0CE3"/>
  <outline>
    <contour>
      <point x="567" y="-105"/>
      <point x="498" y="-54"/>
      <point x="416" y="-54" type="curve"/>
      <point x="226" y="-54" type="line"/>
      <point x="218" y="-78" type="line"/>
      <point x="254" y="-107"/>
      <point x="300" y="-158"/>
      <point x="300" y="-228" type="curve"/>
      <point x="300" y="-276"/>
      <point x="265" y="-315"/>
      <point x="212" y="-315" type="curve" smooth="yes"/>
      <point x="113" y="-315" type="line" smooth="yes"/>
      <point x="75" y="-315"/>
      <point x="57" y="-288"/>
      <point x="57" y="-261" type="curve" smooth="yes"/>
      <point x="57" y="-218"/>
      <point x="141" y="-213"/>
      <point x="141" y="-136" type="curve" smooth="yes"/>
      <point x="141" y="-83"/>
      <point x="106" y="-49"/>
      <point x="68" y="-49" type="curve" smooth="yes"/>
      <point x="27" y="-49"/>
      <point x="-13" y="-83"/>
      <point x="-26" y="-132" type="curve"/>
      <point x="-27" y="-132" type="line"/>
      <point x="-41" y="-83"/>
      <point x="-83" y="-49"/>
      <point x="-124" y="-49" type="curve" smooth="yes"/>
      <point x="-168" y="-49"/>
      <point x="-203" y="-86"/>
      <point x="-203" y="-132" type="curve" smooth="yes"/>
      <point x="-203" y="-150"/>
      <point x="-199" y="-166"/>
      <point x="-185" y="-181" type="curve"/>
      <point x="-167" y="-168" type="line"/>
      <point x="-171" y="-164"/>
      <point x="-174" y="-155"/>
      <point x="-174" y="-146" type="curve" smooth="yes"/>
      <point x="-174" y="-124"/>
      <point x="-157" y="-93"/>
      <point x="-122" y="-93" type="curve" smooth="yes"/>
      <point x="-71" y="-93"/>
      <point x="-38" y="-144"/>
      <point x="-30" y="-188" type="curve"/>
      <point x="-25" y="-188" type="line"/>
      <point x="-16" y="-144"/>
      <point x="16" y="-93"/>
      <point x="65" y="-93" type="curve" smooth="yes"/>
      <point x="97" y="-93"/>
      <point x="113" y="-110"/>
      <point x="113" y="-136" type="curve" smooth="yes"/>
      <point x="113" y="-197"/>
      <point x="29" y="-194"/>
      <point x="29" y="-273" type="curve" smooth="yes"/>
      <point x="29" y="-324"/>
      <point x="61" y="-356"/>
      <point x="99" y="-356" type="curve" smooth="yes"/>
      <point x="212" y="-356" type="line" smooth="yes"/>
      <point x="282" y="-356"/>
      <point x="325" y="-313"/>
      <point x="325" y="-241" type="curve"/>
      <point x="325" y="-175"/>
      <point x="300" y="-124"/>
      <point x="266" y="-93" type="curve"/>
      <point x="423" y="-93" type="line" smooth="yes"/>
      <point x="496" y="-93"/>
      <point x="543" y="-154"/>
      <point x="543" y="-217" type="curve"/>
      <point x="543" y="-273"/>
      <point x="513" y="-315"/>
      <point x="458" y="-315" type="curve" smooth="yes"/>
      <point x="417" y="-315"/>
      <point x="391" y="-290"/>
      <point x="391" y="-257" type="curve"/>
      <point x="391" y="-231"/>
      <point x="397" y="-216"/>
      <point x="404" y="-216" type="curve" smooth="yes"/>
      <point x="408" y="-216"/>
      <point x="408" y="-218"/>
      <point x="408" y="-221" type="curve" smooth="yes"/>
      <point x="408" y="-243"/>
      <point x="421" y="-258"/>
      <point x="440" y="-258" type="curve" smooth="yes"/>
      <point x="461" y="-258"/>
      <point x="476" y="-241"/>
      <point x="476" y="-219" type="curve" smooth="yes"/>
      <point x="476" y="-200"/>
      <point x="461" y="-179"/>
      <point x="429" y="-179" type="curve" smooth="yes"/>
      <point x="382" y="-179"/>
      <point x="360" y="-218"/>
      <point x="360" y="-265" type="curve"/>
      <point x="360" y="-324"/>
      <point x="399" y="-365"/>
      <point x="448" y="-365" type="curve" smooth="yes"/>
      <point x="515" y="-365"/>
      <point x="567" y="-307"/>
      <point x="567" y="-209" type="curve"/>
    </contour>
    <contour>
      <point x="50" y="0" type="move" name="_bottom"/>
    </contour>
  </outline>
</glyph>
<glyph name="knOne" format="1">
  <advance width="538"/>
  <unicode hex="0CE7"/>
  <outline>
    <contour>
      <point x="358" y="444"/>
      <point x="437" y="392"/>
      <point x="437" y="261" type="curve" smooth="yes"/>
      <point x="437" y="151"/>
      <point x="391" y="95"/>
      <point x="317" y="46" type="curve"/>
      <point x="361" y="-14" type="line"/>
      <point x="448" y="66"/>
      <point x="483" y="140"/>
      <point x="483" y="249" type="curve" smooth="yes"/>
      <point x="483" y="411"/>
      <point x="395" y="519"/>
      <point x="269" y="519" type="curve"/>
      <point x="143" y="519"/>
      <point x="55" y="411"/>
      <point x="55" y="249" type="curve" smooth="yes"/>
      <point x="55" y="140"/>
      <point x="90" y="66"/>
      <point x="177" y="-14" type="curve"/>
      <point x="221" y="46" type="line"/>
      <point x="147" y="95"/>
      <point x="101" y="151"/>
      <point x="101" y="261" type="curve" smooth="yes"/>
      <point x="101" y="392"/>
      <point x="180" y="444"/>
      <point x="269" y="444" type="curve"/>
    </contour>
  </outline>
</glyph>
<glyph name="knTwo" format="1">
  <advance width="493"/>
  <unicode hex="0CE8"/>
  <outline>
    <contour>
      <point x="185" y="62" type="line" smooth="yes"/>
      <point x="329" y="62"/>
      <point x="397" y="147"/>
      <point x="397" y="260" type="curve" smooth="yes"/>
      <point x="397" y="380"/>
      <point x="347" y="444"/>
      <point x="272" y="444" type="curve" smooth="yes"/>
      <point x="221" y="444"/>
      <point x="189" y="415"/>
      <point x="189" y="379" type="curve" smooth="yes"/>
      <point x="189" y="345"/>
      <point x="216" y="323"/>
      <point x="252" y="323" type="curve" smooth="yes"/>
      <point x="283" y="323"/>
      <point x="302" y="334"/>
      <point x="317" y="346" type="curve"/>
      <point x="333" y="326" type="line"/>
      <point x="327" y="278"/>
      <point x="283" y="246"/>
      <point x="247" y="246" type="curve" smooth="yes"/>
      <point x="182" y="246"/>
      <point x="146" y="301"/>
      <point x="146" y="375" type="curve" smooth="yes"/>
      <point x="146" y="450"/>
      <point x="189" y="519"/>
      <point x="270" y="519" type="curve" smooth="yes"/>
      <point x="364" y="519"/>
      <point x="438" y="423"/>
      <point x="438" y="260" type="curve" smooth="yes"/>
      <point x="438" y="105"/>
      <point x="351" y="-14"/>
      <point x="162" y="-14" type="curve" smooth="yes"/>
      <point x="20" y="-14" type="line"/>
      <point x="20" y="62" type="line"/>
    </contour>
  </outline>
</glyph>
<glyph name="knThree" format="1">
  <advance width="553"/>
  <unicode hex="0CE9"/>
  <outline>
    <contour>
      <point x="289" y="-14"/>
      <point x="286" y="177"/>
      <point x="147" y="177" type="curve" smooth="yes"/>
      <point x="99" y="177"/>
      <point x="69" y="158"/>
      <point x="69" y="122" type="curve" smooth="yes"/>
      <point x="69" y="91"/>
      <point x="101" y="69"/>
      <point x="154" y="69" type="curve"/>
      <point x="234" y="69"/>
      <point x="311" y="134"/>
      <point x="311" y="272" type="curve"/>
      <point x="311" y="380"/>
      <point x="260" y="444"/>
      <point x="185" y="444" type="curve"/>
      <point x="134" y="444"/>
      <point x="103" y="422"/>
      <point x="103" y="392" type="curve" smooth="yes"/>
      <point x="103" y="363"/>
      <point x="129" y="346"/>
      <point x="166" y="346" type="curve" smooth="yes"/>
      <point x="197" y="346"/>
      <point x="215" y="357"/>
      <point x="230" y="369" type="curve"/>
      <point x="246" y="349" type="line"/>
      <point x="241" y="301"/>
      <point x="197" y="269"/>
      <point x="160" y="269" type="curve" smooth="yes"/>
      <point x="96" y="269"/>
      <point x="59" y="319"/>
      <point x="59" y="388" type="curve" smooth="yes"/>
      <point x="59" y="462"/>
      <point x="103" y="519"/>
      <point x="183" y="519" type="curve"/>
      <point x="277" y="519"/>
      <point x="351" y="423"/>
      <point x="351" y="260" type="curve"/>
      <point x="351" y="124"/>
      <point x="270" y="-14"/>
      <point x="155" y="-14" type="curve" smooth="yes"/>
      <point x="65" y="-14"/>
      <point x="25" y="42"/>
      <point x="25" y="107" type="curve" smooth="yes"/>
      <point x="25" y="169"/>
      <point x="68" y="214"/>
      <point x="150" y="214" type="curve" smooth="yes"/>
      <point x="268" y="214"/>
      <point x="339" y="69"/>
      <point x="449" y="69" type="curve"/>
      <point x="485" y="69"/>
      <point x="510" y="77"/>
      <point x="537" y="109" type="curve"/>
      <point x="553" y="95" type="line"/>
      <point x="548" y="47"/>
      <point x="515" y="-14"/>
      <point x="444" y="-14" type="curve"/>
    </contour>
  </outline>
</glyph>
<glyph name="knFour" format="1">
  <advance width="566"/>
  <unicode hex="0CEA"/>
  <outline>
    <contour>
      <point x="497" y="222"/>
      <point x="199" y="245"/>
      <point x="199" y="86" type="curve"/>
      <point x="199" y="28"/>
      <point x="244" y="-14"/>
      <point x="315" y="-14" type="curve"/>
      <point x="382" y="-14"/>
      <point x="426" y="34"/>
      <point x="426" y="97" type="curve" smooth="yes"/>
      <point x="426" y="291"/>
      <point x="77" y="208"/>
      <point x="77" y="370" type="curve"/>
      <point x="77" y="435"/>
      <point x="140" y="459"/>
      <point x="208" y="459" type="curve" smooth="yes"/>
      <point x="259" y="459"/>
      <point x="274" y="445"/>
      <point x="274" y="428" type="curve" smooth="yes"/>
      <point x="274" y="405"/>
      <point x="251" y="394"/>
      <point x="215" y="394" type="curve" smooth="yes"/>
      <point x="168" y="394"/>
      <point x="152" y="418"/>
      <point x="152" y="441" type="curve" smooth="yes"/>
      <point x="152" y="464"/>
      <point x="160" y="471"/>
      <point x="167" y="477" type="curve"/>
      <point x="143" y="482" type="line"/>
      <point x="131" y="460"/>
      <point x="122" y="450"/>
      <point x="122" y="414" type="curve" smooth="yes"/>
      <point x="122" y="364"/>
      <point x="162" y="336"/>
      <point x="211" y="336" type="curve" smooth="yes"/>
      <point x="275" y="336"/>
      <point x="304" y="373"/>
      <point x="304" y="429" type="curve" smooth="yes"/>
      <point x="304" y="482"/>
      <point x="271" y="519"/>
      <point x="201" y="519" type="curve" smooth="yes"/>
      <point x="114" y="519"/>
      <point x="39" y="460"/>
      <point x="39" y="363" type="curve"/>
      <point x="39" y="127"/>
      <point x="386" y="197"/>
      <point x="386" y="109" type="curve"/>
      <point x="386" y="83"/>
      <point x="357" y="71"/>
      <point x="320" y="71" type="curve"/>
      <point x="277" y="71"/>
      <point x="247" y="85"/>
      <point x="247" y="112" type="curve"/>
      <point x="247" y="203"/>
      <point x="536" y="196"/>
      <point x="536" y="364" type="curve"/>
      <point x="536" y="461"/>
      <point x="460" y="519"/>
      <point x="411" y="519" type="curve" smooth="yes"/>
      <point x="387" y="519"/>
      <point x="373" y="507"/>
      <point x="373" y="491" type="curve" smooth="yes"/>
      <point x="373" y="484"/>
      <point x="378" y="477"/>
      <point x="385" y="472" type="curve" smooth="yes"/>
      <point x="394" y="467"/>
      <point x="412" y="470"/>
      <point x="427" y="467" type="curve" smooth="yes"/>
      <point x="472" y="456"/>
      <point x="497" y="415"/>
      <point x="497" y="364" type="curve"/>
    </contour>
  </outline>
</glyph>
<glyph name="knJihvamuliya" format="1">
  <advance width="600"/>
  <unicode hex="0CF1"/>
  <outline>
    <contour>
      <point x="254" y="270" type="line"/>
      <point x="118" y="553" type="line"/>
      <point x="453" y="553" type="line"/>
      <point x="316" y="270" type="line"/>
      <point x="453" y="-14" type="line"/>
      <point x="118" y="-14" type="line"/>
    </contour>
    <contour>
      <point x="372" y="32" type="line"/>
      <point x="285" y="211" type="line"/>
      <point x="197" y="32" type="line"/>
    </contour>
    <contour>
      <point x="372" y="507" type="line"/>
      <point x="197" y="507" type="line"/>
      <point x="285" y="328" type="line"/>
    </contour>
  </outline>
</glyph>
<glyph name="uni2010" format="1">
  <advance width="274"/>
  <unicode hex="2010"/>
  <outline>
    <contour>
      <point x="35" y="170" type="line" smooth="yes"/>
      <point x="31" y="170"/>
      <point x="29" y="172"/>
      <point x="29" y="176" type="curve"/>
      <point x="32" y="211"/>
      <point x="38" y="229"/>
      <point x="45" y="230" type="curve" smooth="yes"/>
      <point x="130" y="242"/>
      <point x="194" y="250"/>
      <point x="237" y="255" type="curve"/>
      <point x="242" y="255"/>
      <point x="245" y="253"/>
      <point x="245" y="249" type="curve"/>
      <point x="242" y="214"/>
      <point x="235" y="196"/>
      <point x="224" y="195" type="curve"/>
      <point x="146" y="183"/>
      <point x="84" y="175"/>
      <point x="39" y="170" type="curve"/>
    </contour>
  </outline>
</glyph>
<glyph name="emdash" format="1">
  <advance width="950"/>
  <unicode hex="2014"/>
  <outline>
    <contour>
      <point x="887" y="239" type="line" smooth="yes"/>
      <point x="894" y="239"/>
      <point x="900" y="234"/>
      <point x="900" y="222" type="curve" smooth="yes"/>
      <point x="900" y="209"/>
      <point x="885" y="185"/>
      <point x="869" y="185" type="curve" smooth="yes"/>
      <point x="64" y="185" type="line" smooth="yes"/>
      <point x="57" y="185"/>
      <point x="50" y="189"/>
      <point x="50" y="201" type="curve" smooth="yes"/>
      <point x="50" y="212"/>
      <point x="58" y="239"/>
      <point x="74" y="239" type="curve" smooth="yes"/>
    </contour>
  </outline>
</glyph>
<glyph name="uni2015" format="1">
  <advance width="2000"/>
  <unicode hex="2015"/>
  <outline>
    <contour>
      <point x="1937" y="239" type="line" smooth="yes"/>
      <point x="1944" y="239"/>
      <point x="1950" y="234"/>
      <point x="1950" y="222" type="curve" smooth="yes"/>
      <point x="1950" y="209"/>
      <point x="1935" y="185"/>
      <point x="1919" y="185" type="curve" smooth="yes"/>
      <point x="64" y="185" type="line" smooth="yes"/>
      <point x="57" y="185"/>
      <point x="50" y="189"/>
      <point x="50" y="201" type="curve" smooth="yes"/>
      <point x="50" y="212"/>
      <point x="58" y="239"/>
      <point x="74" y="239" type="curve" smooth="yes"/>
    </contour>
  </outline>
</glyph>
<glyph name="quotedblleft" format="1">
  <advance width="420"/>
  <unicode hex="201C"/>
  <outline>
    <contour>
      <point x="92" y="541"/>
      <point x="110" y="516"/>
      <point x="135" y="514" type="curve" smooth="yes"/>
      <point x="159" y="512"/>
      <point x="178" y="495"/>
      <point x="178" y="471" type="curve" smooth="yes"/>
      <point x="178" y="446"/>
      <point x="155" y="426"/>
      <point x="116" y="426" type="curve" smooth="yes"/>
      <point x="77" y="426"/>
      <point x="40" y="467"/>
      <point x="40" y="523" type="curve" smooth="yes"/>
      <point x="40" y="615"/>
      <point x="122" y="687"/>
      <point x="182" y="690" type="curve"/>
      <point x="184" y="690" type="line" smooth="yes"/>
      <point x="196" y="690"/>
      <point x="202" y="686"/>
      <point x="202" y="679" type="curve" smooth="yes"/>
      <point x="202" y="673"/>
      <point x="197" y="669"/>
      <point x="188" y="667" type="curve" smooth="yes"/>
      <point x="136" y="656"/>
      <point x="92" y="622"/>
      <point x="92" y="558" type="curve" smooth="yes"/>
    </contour>
    <contour>
      <point x="270" y="541"/>
      <point x="288" y="516"/>
      <point x="313" y="514" type="curve" smooth="yes"/>
      <point x="337" y="512"/>
      <point x="356" y="495"/>
      <point x="356" y="471" type="curve" smooth="yes"/>
      <point x="356" y="446"/>
      <point x="333" y="426"/>
      <point x="294" y="426" type="curve" smooth="yes"/>
      <point x="255" y="426"/>
      <point x="218" y="467"/>
      <point x="218" y="523" type="curve" smooth="yes"/>
      <point x="218" y="615"/>
      <point x="300" y="687"/>
      <point x="360" y="690" type="curve"/>
      <point x="362" y="690" type="line" smooth="yes"/>
      <point x="374" y="690"/>
      <point x="380" y="686"/>
      <point x="380" y="679" type="curve" smooth="yes"/>
      <point x="380" y="673"/>
      <point x="375" y="669"/>
      <point x="366" y="667" type="curve" smooth="yes"/>
      <point x="314" y="656"/>
      <point x="270" y="622"/>
      <point x="270" y="558" type="curve" smooth="yes"/>
    </contour>
  </outline>
</glyph>
<glyph name="twodotenleader" format="1">
  <advance width="456"/>
  <unicode hex="2025"/>
  <outline>
    <contour>
      <point x="315" y="91"/>
      <point x="328" y="96"/>
      <point x="343" y="96" type="curve" smooth="yes"/>
      <point x="374" y="96"/>
      <point x="398" y="72"/>
      <point x="398" y="41" type="curve" smooth="yes"/>
      <point x="398" y="10"/>
      <point x="374" y="-14"/>
      <point x="343" y="-14" type="curve" smooth="yes"/>
      <point x="312" y="-14"/>
      <point x="288" y="10"/>
      <point x="288" y="41" type="curve" smooth="yes"/>
      <point x="288" y="56"/>
      <point x="293" y="69"/>
      <point x="304" y="80" type="curve" smooth="yes"/>
    </contour>
    <contour>
      <point x="87" y="91"/>
      <point x="100" y="96"/>
      <point x="115" y="96" type="curve" smooth="yes"/>
      <point x="146" y="96"/>
      <point x="170" y="72"/>
      <point x="170" y="41" type="curve" smooth="yes"/>
      <point x="170" y="10"/>
      <point x="146" y="-14"/>
      <point x="115" y="-14" type="curve" smooth="yes"/>
      <point x="84" y="-14"/>
      <point x="60" y="10"/>
      <point x="60" y="41" type="curve" smooth="yes"/>
      <point x="60" y="56"/>
      <point x="65" y="69"/>
      <point x="76" y="80" type="curve" smooth="yes"/>
    </contour>
  </outline>
</glyph>
<glyph name="minute" format="1">
  <advance width="178"/>
  <unicode hex="2032"/>
  <outline>
    <contour>
      <point x="62" y="614" type="line"/>
      <point x="62" y="620" type="line" smooth="yes"/>
      <point x="62" y="644"/>
      <point x="101" y="676"/>
      <point x="124" y="676" type="curve" smooth="yes"/>
      <point x="133" y="676"/>
      <point x="138" y="665"/>
      <point x="138" y="644" type="curve" smooth="yes"/>
      <point x="138" y="598"/>
      <point x="122" y="540"/>
      <point x="91" y="469" type="curve" smooth="yes"/>
      <point x="84" y="452"/>
      <point x="78" y="444"/>
      <point x="72" y="444" type="curve" smooth="yes"/>
      <point x="67" y="444"/>
      <point x="65" y="451"/>
      <point x="66" y="466" type="curve"/>
      <point x="66" y="481"/>
      <point x="66" y="500"/>
      <point x="66" y="524" type="curve"/>
    </contour>
  </outline>
</glyph>
<glyph name="afii61352" format="1">
  <advance width="1065"/>
  <unicode hex="2116"/>
  <outline>
    <contour>
      <point x="1021" y="196" type="line" smooth="yes"/>
      <point x="1028" y="196"/>
      <point x="1035" y="190"/>
      <point x="1035" y="187" type="curve" smooth="yes"/>
      <point x="1035" y="185"/>
      <point x="1035" y="183"/>
      <point x="1034" y="182" type="curve"/>
      <point x="1027" y="168"/>
      <point x="1016" y="161"/>
      <point x="1003" y="161" type="curve" smooth="yes"/>
      <point x="789" y="161" type="line" smooth="yes"/>
      <point x="782" y="161"/>
      <point x="775" y="166"/>
      <point x="775" y="174" type="curve" smooth="yes"/>
      <point x="775" y="182"/>
      <point x="787" y="196"/>
      <point x="799" y="196" type="curve" smooth="yes"/>
    </contour>
    <contour>
      <point x="973" y="443"/>
      <point x="943" y="491"/>
      <point x="900" y="491" type="curve" smooth="yes"/>
      <point x="856" y="491"/>
      <point x="836" y="453"/>
      <point x="836" y="400" type="curve" smooth="yes"/>
      <point x="836" y="347"/>
      <point x="868" y="299"/>
      <point x="910" y="299" type="curve" smooth="yes"/>
      <point x="952" y="299"/>
      <point x="973" y="337"/>
      <point x="973" y="390" type="curve" smooth="yes"/>
    </contour>
    <contour>
      <point x="775" y="462"/>
      <point x="838" y="524"/>
      <point x="907" y="524" type="curve" smooth="yes"/>
      <point x="976" y="524"/>
      <point x="1034" y="469"/>
      <point x="1034" y="400" type="curve" smooth="yes"/>
      <point x="1034" y="331"/>
      <point x="981" y="268"/>
      <point x="905" y="268" type="curve" smooth="yes"/>
      <point x="828" y="268"/>
      <point x="775" y="317"/>
      <point x="775" y="390" type="curve" smooth="yes"/>
    </contour>
    <contour>
      <point x="179" y="653" type="line" smooth="yes"/>
      <point x="186" y="653"/>
      <point x="194" y="647"/>
      <point x="203" y="636" type="curve"/>
      <point x="220" y="612"/>
      <point x="559" y="186"/>
      <point x="583" y="158" type="curve" smooth="yes"/>
      <point x="595" y="143"/>
      <point x="604" y="136"/>
      <point x="610" y="136" type="curve" smooth="yes"/>
      <point x="615" y="136"/>
      <point x="618" y="143"/>
      <point x="619" y="157" type="curve"/>
      <point x="620" y="200"/>
      <point x="621" y="306"/>
      <point x="621" y="477" type="curve" smooth="yes"/>
      <point x="621" y="564" type="line"/>
      <point x="620" y="588"/>
      <point x="590" y="615"/>
      <point x="556" y="621" type="curve" smooth="yes"/>
      <point x="539" y="624"/>
      <point x="530" y="630"/>
      <point x="530" y="639" type="curve" smooth="yes"/>
      <point x="530" y="646"/>
      <point x="540" y="650"/>
      <point x="559" y="650" type="curve" smooth="yes"/>
      <point x="616" y="650" type="line"/>
      <point x="731" y="653" type="line" smooth="yes"/>
      <point x="750" y="653"/>
      <point x="760" y="649"/>
      <point x="760" y="642" type="curve" smooth="yes"/>
      <point x="760" y="633"/>
      <point x="748" y="626"/>
      <point x="725" y="622" type="curve" smooth="yes"/>
      <point x="678" y="613"/>
      <point x="666" y="605"/>
      <point x="664" y="557" type="curve" smooth="yes"/>
      <point x="663" y="532"/>
      <point x="662" y="349"/>
      <point x="662" y="8" type="curve" smooth="yes"/>
      <point x="662" y="-9"/>
      <point x="655" y="-17"/>
      <point x="641" y="-17" type="curve" smooth="yes"/>
      <point x="634" y="-17"/>
      <point x="622" y="-11"/>
      <point x="606" y="0" type="curve" smooth="yes"/>
      <point x="590" y="11"/>
      <point x="574" y="27"/>
      <point x="558" y="50" type="curve"/>
      <point x="541" y="72"/>
      <point x="423" y="217"/>
      <point x="204" y="484" type="curve" smooth="yes"/>
      <point x="195" y="495"/>
      <point x="188" y="500"/>
      <point x="183" y="500" type="curve" smooth="yes"/>
      <point x="177" y="500"/>
      <point x="174" y="493"/>
      <point x="174" y="479" type="curve" smooth="yes"/>
      <point x="171" y="314"/>
      <point x="169" y="189"/>
      <point x="169" y="104" type="curve" smooth="yes"/>
      <point x="169" y="59"/>
      <point x="190" y="32"/>
      <point x="233" y="24" type="curve" smooth="yes"/>
      <point x="255" y="20"/>
      <point x="266" y="14"/>
      <point x="266" y="7" type="curve" smooth="yes"/>
      <point x="266" y="-1"/>
      <point x="256" y="-5"/>
      <point x="237" y="-5" type="curve"/>
      <point x="143" y="0" type="line"/>
      <point x="52" y="-5" type="line"/>
      <point x="33" y="-5"/>
      <point x="23" y="-1"/>
      <point x="23" y="7" type="curve" smooth="yes"/>
      <point x="23" y="14"/>
      <point x="33" y="20"/>
      <point x="52" y="23" type="curve" smooth="yes"/>
      <point x="90" y="30"/>
      <point x="110" y="80"/>
      <point x="114" y="107" type="curve" smooth="yes"/>
      <point x="126" y="207"/>
      <point x="132" y="340"/>
      <point x="132" y="507" type="curve" smooth="yes"/>
      <point x="132" y="572"/>
      <point x="97" y="600"/>
      <point x="43" y="617" type="curve" smooth="yes"/>
      <point x="16" y="626"/>
      <point x="2" y="635"/>
      <point x="2" y="644" type="curve" smooth="yes"/>
      <point x="2" y="653"/>
      <point x="10" y="658"/>
      <point x="25" y="658" type="curve" smooth="yes"/>
    </contour>
  </outline>
</glyph>
<glyph name="trademark" format="1">
  <advance width="1012"/>
  <unicode hex="2122"/>
  <outline>
    <contour>
      <point x="812" y="614" type="line" smooth="yes"/>
      <point x="811" y="607"/>
      <point x="810" y="603"/>
      <point x="809" y="600" type="curve"/>
      <point x="806" y="594"/>
      <point x="799" y="595"/>
      <point x="796" y="600" type="curve"/>
      <point x="795" y="602"/>
      <point x="794" y="605"/>
      <point x="793" y="609" type="curve"/>
      <point x="792" y="612"/>
      <point x="791" y="614"/>
      <point x="790" y="615" type="curve" smooth="yes"/>
      <point x="789" y="616"/>
      <point x="786" y="622"/>
      <point x="786" y="624" type="curve"/>
      <point x="785" y="626"/>
      <point x="782" y="630"/>
      <point x="779" y="631" type="curve" smooth="yes"/>
      <point x="776" y="632"/>
      <point x="772" y="635"/>
      <point x="765" y="636" type="curve"/>
      <point x="760" y="637"/>
      <point x="746" y="638"/>
      <point x="723" y="638" type="curve" smooth="yes"/>
      <point x="700" y="638"/>
      <point x="680" y="637"/>
      <point x="664" y="636" type="curve"/>
      <point x="657" y="635"/>
      <point x="653" y="627"/>
      <point x="653" y="610" type="curve" smooth="yes"/>
      <point x="653" y="349" type="line" smooth="yes"/>
      <point x="653" y="323"/>
      <point x="670" y="307"/>
      <point x="705" y="302" type="curve" smooth="yes"/>
      <point x="719" y="300"/>
      <point x="726" y="295"/>
      <point x="726" y="288" type="curve" smooth="yes"/>
      <point x="726" y="283"/>
      <point x="720" y="280"/>
      <point x="707" y="280" type="curve" smooth="yes"/>
      <point x="536" y="280" type="line" smooth="yes"/>
      <point x="523" y="280"/>
      <point x="517" y="283"/>
      <point x="517" y="288" type="curve" smooth="yes"/>
      <point x="517" y="295"/>
      <point x="524" y="300"/>
      <point x="539" y="302" type="curve" smooth="yes"/>
      <point x="572" y="307"/>
      <point x="589" y="323"/>
      <point x="589" y="349" type="curve" smooth="yes"/>
      <point x="589" y="610" type="line" smooth="yes"/>
      <point x="589" y="642"/>
      <point x="573" y="638"/>
      <point x="554" y="638" type="curve" smooth="yes"/>
      <point x="521" y="638" type="line" smooth="yes"/>
      <point x="493" y="638"/>
      <point x="475" y="631"/>
      <point x="467" y="617" type="curve" smooth="yes"/>
      <point x="459" y="603"/>
      <point x="450" y="596"/>
      <point x="441" y="596" type="curve" smooth="yes"/>
      <point x="438" y="596"/>
      <point x="436" y="598"/>
      <point x="436" y="602" type="curve" smooth="yes"/>
      <point x="436" y="606"/>
      <point x="439" y="614"/>
      <point x="445" y="625" type="curve"/>
      <point x="450" y="636"/>
      <point x="455" y="656"/>
      <point x="460" y="683" type="curve"/>
      <point x="461" y="692"/>
      <point x="465" y="696"/>
      <point x="471" y="696" type="curve" smooth="yes"/>
      <point x="477" y="696"/>
      <point x="483" y="692"/>
      <point x="488" y="683" type="curve" smooth="yes"/>
      <point x="493" y="674"/>
      <point x="508" y="670"/>
      <point x="533" y="670" type="curve" smooth="yes"/>
      <point x="750" y="670" type="line" smooth="yes"/>
      <point x="774" y="670"/>
      <point x="790" y="675"/>
      <point x="797" y="685" type="curve"/>
      <point x="800" y="690"/>
      <point x="804" y="692"/>
      <point x="809" y="692" type="curve" smooth="yes"/>
      <point x="818" y="692"/>
      <point x="823" y="689"/>
      <point x="823" y="682" type="curve"/>
    </contour>
    <contour>
      <point x="536" y="583"/>
      <point x="534" y="581"/>
      <point x="533" y="573" type="curve"/>
      <point x="533" y="342" type="line" smooth="yes"/>
      <point x="533" y="320"/>
      <point x="547" y="307"/>
      <point x="575" y="302" type="curve" smooth="yes"/>
      <point x="589" y="300"/>
      <point x="596" y="295"/>
      <point x="596" y="288" type="curve" smooth="yes"/>
      <point x="596" y="283"/>
      <point x="590" y="280"/>
      <point x="577" y="280" type="curve" smooth="yes"/>
      <point x="457" y="280" type="line" smooth="yes"/>
      <point x="444" y="280"/>
      <point x="438" y="283"/>
      <point x="438" y="288" type="curve" smooth="yes"/>
      <point x="438" y="295"/>
      <point x="445" y="300"/>
      <point x="460" y="302" type="curve" smooth="yes"/>
      <point x="488" y="306"/>
      <point x="500" y="328"/>
      <point x="500" y="341" type="curve" smooth="yes"/>
      <point x="500" y="598" type="line" smooth="yes"/>
      <point x="500" y="626"/>
      <point x="488" y="639"/>
      <point x="448" y="650" type="curve"/>
      <point x="442" y="651"/>
      <point x="439" y="656"/>
      <point x="439" y="664" type="curve" smooth="yes"/>
      <point x="439" y="670"/>
      <point x="444" y="673"/>
      <point x="454" y="673" type="curve" smooth="yes"/>
      <point x="556" y="673" type="line" smooth="yes"/>
      <point x="562" y="673"/>
      <point x="574" y="653"/>
      <point x="593" y="612" type="curve" smooth="yes"/>
      <point x="696" y="401" type="line" smooth="yes"/>
      <point x="701" y="390"/>
      <point x="706" y="390"/>
      <point x="711" y="399" type="curve"/>
      <point x="829" y="635" type="line" smooth="yes"/>
      <point x="830" y="637"/>
      <point x="832" y="640"/>
      <point x="834" y="643" type="curve"/>
      <point x="835" y="646"/>
      <point x="837" y="649"/>
      <point x="838" y="651" type="curve" smooth="yes"/>
      <point x="839" y="653"/>
      <point x="841" y="655"/>
      <point x="843" y="658" type="curve"/>
      <point x="846" y="663"/>
      <point x="847" y="665"/>
      <point x="851" y="668" type="curve"/>
      <point x="854" y="671"/>
      <point x="856" y="673"/>
      <point x="859" y="673" type="curve" smooth="yes"/>
      <point x="955" y="673" type="line" smooth="yes"/>
      <point x="966" y="673"/>
      <point x="971" y="670"/>
      <point x="971" y="664" type="curve" smooth="yes"/>
      <point x="971" y="657"/>
      <point x="959" y="650"/>
      <point x="955" y="649" type="curve"/>
      <point x="952" y="648"/>
      <point x="949" y="648"/>
      <point x="945" y="647" type="curve"/>
      <point x="940" y="646"/>
      <point x="937" y="645"/>
      <point x="935" y="644" type="curve" smooth="yes"/>
      <point x="933" y="643"/>
      <point x="930" y="643"/>
      <point x="927" y="642" type="curve" smooth="yes"/>
      <point x="924" y="641"/>
      <point x="921" y="639"/>
      <point x="919" y="638" type="curve" smooth="yes"/>
      <point x="917" y="637"/>
      <point x="915" y="635"/>
      <point x="913" y="634" type="curve"/>
      <point x="910" y="631"/>
      <point x="908" y="626"/>
      <point x="908" y="621" type="curve" smooth="yes"/>
      <point x="908" y="337" type="line" smooth="yes"/>
      <point x="908" y="314"/>
      <point x="922" y="307"/>
      <point x="954" y="303" type="curve"/>
      <point x="970" y="300"/>
      <point x="978" y="295"/>
      <point x="978" y="288" type="curve" smooth="yes"/>
      <point x="978" y="283"/>
      <point x="972" y="280"/>
      <point x="959" y="280" type="curve" smooth="yes"/>
      <point x="808" y="280" type="line" smooth="yes"/>
      <point x="795" y="280"/>
      <point x="789" y="283"/>
      <point x="789" y="288" type="curve" smooth="yes"/>
      <point x="789" y="295"/>
      <point x="796" y="300"/>
      <point x="810" y="302" type="curve"/>
      <point x="838" y="305"/>
      <point x="844" y="311"/>
      <point x="844" y="338" type="curve" smooth="yes"/>
      <point x="844" y="584" type="line" smooth="yes"/>
      <point x="844" y="590"/>
      <point x="843" y="593"/>
      <point x="841" y="593" type="curve" smooth="yes"/>
      <point x="839" y="593"/>
      <point x="837" y="590"/>
      <point x="834" y="584" type="curve" smooth="yes"/>
      <point x="685" y="269" type="line"/>
      <point x="683" y="273"/>
      <point x="674" y="293"/>
      <point x="658" y="328" type="curve" smooth="yes"/>
      <point x="607" y="441"/>
      <point x="567" y="524"/>
      <point x="540" y="578" type="curve"/>
    </contour>
  </outline>
</glyph>
<glyph name="uni2126" format="1">
  <advance width="830"/>
  <unicode hex="2126"/>
  <outline>
    <contour>
      <point x="175" y="0" type="line"/>
      <point x="95" y="-5" type="line"/>
      <point x="88" y="-5"/>
      <point x="84" y="0"/>
      <point x="82" y="9" type="curve" smooth="yes"/>
      <point x="78" y="28"/>
      <point x="71" y="48"/>
      <point x="57" y="85" type="curve" smooth="yes"/>
      <point x="50" y="104"/>
      <point x="44" y="119"/>
      <point x="40" y="130" type="curve"/>
      <point x="40" y="132" type="line"/>
      <point x="39" y="134" type="line"/>
      <point x="39" y="140"/>
      <point x="42" y="143"/>
      <point x="48" y="143" type="curve" smooth="yes"/>
      <point x="57" y="143"/>
      <point x="67" y="134"/>
      <point x="78" y="115" type="curve" smooth="yes"/>
      <point x="99" y="78"/>
      <point x="131" y="70"/>
      <point x="187" y="70" type="curve" smooth="yes"/>
      <point x="208" y="70" type="line" smooth="yes"/>
      <point x="234" y="70"/>
      <point x="252" y="70"/>
      <point x="261" y="71" type="curve" smooth="yes"/>
      <point x="270" y="72"/>
      <point x="276" y="73"/>
      <point x="277" y="76" type="curve" smooth="yes"/>
      <point x="278" y="79"/>
      <point x="278" y="80"/>
      <point x="277" y="81" type="curve"/>
      <point x="172" y="129"/>
      <point x="100" y="229"/>
      <point x="100" y="345" type="curve" smooth="yes"/>
      <point x="100" y="522"/>
      <point x="245" y="664"/>
      <point x="416" y="664" type="curve" smooth="yes"/>
      <point x="587" y="664"/>
      <point x="730" y="529"/>
      <point x="730" y="365" type="curve" smooth="yes"/>
      <point x="730" y="245"/>
      <point x="659" y="138"/>
      <point x="555" y="85" type="curve"/>
      <point x="549" y="81"/>
      <point x="546" y="77"/>
      <point x="547" y="74" type="curve"/>
      <point x="562" y="71"/>
      <point x="586" y="70"/>
      <point x="618" y="70" type="curve" smooth="yes"/>
      <point x="643" y="70" type="line" smooth="yes"/>
      <point x="699" y="70"/>
      <point x="735" y="84"/>
      <point x="751" y="113" type="curve" smooth="yes"/>
      <point x="762" y="133"/>
      <point x="773" y="143"/>
      <point x="782" y="143" type="curve" smooth="yes"/>
      <point x="788" y="143"/>
      <point x="791" y="140"/>
      <point x="791" y="134" type="curve"/>
      <point x="790" y="132" type="line"/>
      <point x="790" y="130" type="line"/>
      <point x="786" y="119"/>
      <point x="781" y="104"/>
      <point x="774" y="85" type="curve" smooth="yes"/>
      <point x="759" y="46"/>
      <point x="751" y="22"/>
      <point x="749" y="11" type="curve"/>
      <point x="746" y="0"/>
      <point x="742" y="-5"/>
      <point x="735" y="-5" type="curve"/>
      <point x="655" y="0" type="line"/>
      <point x="579" y="1" type="line"/>
      <point x="480" y="0" type="line" smooth="yes"/>
      <point x="475" y="0"/>
      <point x="472" y="4"/>
      <point x="472" y="11" type="curve" smooth="yes"/>
      <point x="472" y="25"/>
      <point x="483" y="62"/>
      <point x="503" y="77" type="curve" smooth="yes"/>
      <point x="571" y="128"/>
      <point x="630" y="233"/>
      <point x="630" y="330" type="curve" smooth="yes"/>
      <point x="630" y="426"/>
      <point x="596" y="523"/>
      <point x="526" y="585" type="curve" smooth="yes"/>
      <point x="491" y="616"/>
      <point x="451" y="631"/>
      <point x="408" y="631" type="curve" smooth="yes"/>
      <point x="287" y="631"/>
      <point x="200" y="506"/>
      <point x="200" y="378" type="curve" smooth="yes"/>
      <point x="200" y="249"/>
      <point x="248" y="134"/>
      <point x="333" y="71" type="curve" smooth="yes"/>
      <point x="345" y="62"/>
      <point x="353" y="42"/>
      <point x="358" y="11" type="curve" smooth="yes"/>
      <point x="359" y="4"/>
      <point x="357" y="0"/>
      <point x="350" y="0" type="curve" smooth="yes"/>
      <point x="250" y="1" type="line"/>
    </contour>
  </outline>
</glyph>
<glyph name="arrowup" format="1">
  <advance width="438"/>
  <unicode hex="2191"/>
  <outline>
    <contour>
      <point x="335" y="443"/>
      <point x="286" y="474"/>
      <point x="242" y="517" type="curve"/>
      <point x="242" y="-149" type="line" smooth="yes"/>
      <point x="242" y="-162"/>
      <point x="231" y="-172"/>
      <point x="210" y="-180" type="curve"/>
      <point x="210" y="-180"/>
      <point x="210" y="-180"/>
      <point x="209" y="-180" type="curve" smooth="yes"/>
      <point x="208" y="-180"/>
      <point x="207" y="-180"/>
      <point x="206" y="-180" type="curve"/>
      <point x="202" y="-181"/>
      <point x="196" y="-174"/>
      <point x="196" y="-167" type="curve" smooth="yes"/>
      <point x="196" y="517" type="line"/>
      <point x="149" y="472"/>
      <point x="100" y="440"/>
      <point x="50" y="421" type="curve"/>
      <point x="49" y="420"/>
      <point x="47" y="420"/>
      <point x="46" y="420" type="curve" smooth="yes"/>
      <point x="41" y="420"/>
      <point x="39" y="424"/>
      <point x="39" y="433" type="curve" smooth="yes"/>
      <point x="39" y="442"/>
      <point x="43" y="450"/>
      <point x="50" y="457" type="curve" smooth="yes"/>
      <point x="126" y="530"/>
      <point x="178" y="594"/>
      <point x="206" y="648" type="curve"/>
      <point x="211" y="660"/>
      <point x="212" y="661"/>
      <point x="220" y="661" type="curve" smooth="yes"/>
      <point x="223" y="661"/>
      <point x="227" y="657"/>
      <point x="232" y="649" type="curve"/>
      <point x="260" y="595"/>
      <point x="312" y="531"/>
      <point x="388" y="458" type="curve" smooth="yes"/>
      <point x="395" y="451"/>
      <point x="399" y="443"/>
      <point x="399" y="434" type="curve" smooth="yes"/>
      <point x="399" y="425"/>
      <point x="397" y="421"/>
      <point x="392" y="421" type="curve" smooth="yes"/>
      <point x="391" y="421"/>
      <point x="389" y="421"/>
      <point x="388" y="422" type="curve"/>
    </contour>
  </outline>
</glyph>
<glyph name="arrowdown" format="1">
  <advance width="438"/>
  <unicode hex="2193"/>
  <outline>
    <contour>
      <point x="103" y="39"/>
      <point x="152" y="8"/>
      <point x="196" y="-35" type="curve"/>
      <point x="196" y="631" type="line" smooth="yes"/>
      <point x="196" y="644"/>
      <point x="207" y="654"/>
      <point x="228" y="662" type="curve"/>
      <point x="228" y="662"/>
      <point x="228" y="662"/>
      <point x="229" y="662" type="curve" smooth="yes"/>
      <point x="230" y="662"/>
      <point x="231" y="662"/>
      <point x="233" y="663" type="curve"/>
      <point x="236" y="663"/>
      <point x="242" y="656"/>
      <point x="242" y="649" type="curve" smooth="yes"/>
      <point x="242" y="-35" type="line"/>
      <point x="289" y="10"/>
      <point x="338" y="42"/>
      <point x="388" y="61" type="curve"/>
      <point x="389" y="62"/>
      <point x="391" y="62"/>
      <point x="392" y="62" type="curve" smooth="yes"/>
      <point x="397" y="62"/>
      <point x="399" y="58"/>
      <point x="399" y="49" type="curve" smooth="yes"/>
      <point x="399" y="40"/>
      <point x="395" y="32"/>
      <point x="388" y="25" type="curve" smooth="yes"/>
      <point x="312" y="-48"/>
      <point x="260" y="-112"/>
      <point x="232" y="-166" type="curve"/>
      <point x="227" y="-178"/>
      <point x="226" y="-179"/>
      <point x="219" y="-179" type="curve" smooth="yes"/>
      <point x="215" y="-179"/>
      <point x="211" y="-175"/>
      <point x="206" y="-167" type="curve"/>
      <point x="178" y="-113"/>
      <point x="126" y="-49"/>
      <point x="50" y="24" type="curve" smooth="yes"/>
      <point x="43" y="31"/>
      <point x="39" y="39"/>
      <point x="39" y="48" type="curve" smooth="yes"/>
      <point x="39" y="57"/>
      <point x="41" y="61"/>
      <point x="46" y="61" type="curve" smooth="yes"/>
      <point x="47" y="61"/>
      <point x="49" y="61"/>
      <point x="50" y="60" type="curve"/>
    </contour>
  </outline>
</glyph>
<glyph name="uni2224" format="1">
  <advance width="260"/>
  <unicode hex="2224"/>
  <outline>
    <contour>
      <point x="252" y="589" type="line" smooth="yes"/>
      <point x="257" y="600"/>
      <point x="270" y="606"/>
      <point x="291" y="606" type="curve" smooth="yes"/>
      <point x="298" y="606"/>
      <point x="305" y="600"/>
      <point x="305" y="593" type="curve" smooth="yes"/>
      <point x="305" y="591" type="line"/>
      <point x="7" y="-106" type="line" smooth="yes"/>
      <point x="3" y="-116"/>
      <point x="-7" y="-121"/>
      <point x="-22" y="-121" type="curve" smooth="yes"/>
      <point x="-38" y="-121"/>
      <point x="-46" y="-117"/>
      <point x="-46" y="-109" type="curve"/>
      <point x="-45" y="-108" type="line"/>
      <point x="-45" y="-107"/>
      <point x="-45" y="-107"/>
      <point x="-45" y="-106" type="curve"/>
    </contour>
    <contour>
      <point x="100" y="676" type="line" smooth="yes"/>
      <point x="100" y="695"/>
      <point x="134" y="707"/>
      <point x="144" y="707" type="curve" smooth="yes"/>
      <point x="154" y="707"/>
      <point x="160" y="701"/>
      <point x="160" y="694" type="curve" smooth="yes"/>
      <point x="160" y="-265" type="line" smooth="yes"/>
      <point x="160" y="-282"/>
      <point x="129" y="-289"/>
      <point x="117" y="-289" type="curve" smooth="yes"/>
      <point x="105" y="-289"/>
      <point x="100" y="-282"/>
      <point x="100" y="-275" type="curve" smooth="yes"/>
    </contour>
  </outline>
</glyph>
<glyph name="greaterequal" format="1">
  <advance width="590"/>
  <unicode hex="2265"/>
  <outline>
    <contour>
      <point x="516" y="54" type="line" smooth="yes"/>
      <point x="532" y="54"/>
      <point x="540" y="27"/>
      <point x="540" y="16" type="curve" smooth="yes"/>
      <point x="540" y="4"/>
      <point x="533" y="0"/>
      <point x="526" y="0" type="curve" smooth="yes"/>
      <point x="81" y="0" type="line" smooth="yes"/>
      <point x="62" y="0"/>
      <point x="50" y="23"/>
      <point x="50" y="36" type="curve" smooth="yes"/>
      <point x="50" y="48"/>
      <point x="54" y="54"/>
      <point x="63" y="54" type="curve" smooth="yes"/>
    </contour>
    <contour>
      <point x="457" y="296" type="line"/>
      <point x="460" y="298"/>
      <point x="461" y="300"/>
      <point x="458" y="301" type="curve"/>
      <point x="85" y="455" type="line" smooth="yes"/>
      <point x="65" y="463"/>
      <point x="54" y="490"/>
      <point x="54" y="505" type="curve" smooth="yes"/>
      <point x="54" y="512"/>
      <point x="57" y="516"/>
      <point x="64" y="516" type="curve" smooth="yes"/>
      <point x="65" y="516" type="line" smooth="yes"/>
      <point x="66" y="516"/>
      <point x="66" y="516"/>
      <point x="67" y="515" type="curve"/>
      <point x="504" y="335" type="line" smooth="yes"/>
      <point x="521" y="328"/>
      <point x="537" y="300"/>
      <point x="537" y="292" type="curve" smooth="yes"/>
      <point x="537" y="284"/>
      <point x="523" y="274"/>
      <point x="496" y="262" type="curve" smooth="yes"/>
      <point x="67" y="82" type="line"/>
      <point x="66" y="82" type="line"/>
      <point x="64" y="81" type="line"/>
      <point x="59" y="81"/>
      <point x="53" y="88"/>
      <point x="53" y="98" type="curve" smooth="yes"/>
      <point x="53" y="108"/>
      <point x="61" y="135"/>
      <point x="77" y="142" type="curve" smooth="yes"/>
    </contour>
  </outline>
</glyph>
<glyph name="uni226A" format="1">
  <advance width="836"/>
  <unicode hex="226A"/>
  <outline>
    <contour>
      <point x="779" y="55" type="line" smooth="yes"/>
      <point x="795" y="47"/>
      <point x="803" y="21"/>
      <point x="803" y="11" type="curve" smooth="yes"/>
      <point x="803" y="1"/>
      <point x="797" y="-6"/>
      <point x="792" y="-6" type="curve" smooth="yes"/>
      <point x="791" y="-6" type="line" smooth="yes"/>
      <point x="790" y="-6"/>
      <point x="790" y="-6"/>
      <point x="789" y="-5" type="curve"/>
      <point x="360" y="195" type="line" smooth="yes"/>
      <point x="333" y="208"/>
      <point x="319" y="217"/>
      <point x="319" y="223" type="curve" smooth="yes"/>
      <point x="319" y="234"/>
      <point x="335" y="260"/>
      <point x="352" y="268" type="curve" smooth="yes"/>
      <point x="789" y="468" type="line"/>
      <point x="790" y="468" type="line"/>
      <point x="792" y="469" type="line"/>
      <point x="797" y="469"/>
      <point x="805" y="459"/>
      <point x="802" y="454" type="curve"/>
      <point x="795" y="429"/>
      <point x="784" y="414"/>
      <point x="771" y="408" type="curve" smooth="yes"/>
      <point x="398" y="234" type="line" smooth="yes"/>
      <point x="396" y="233"/>
      <point x="396" y="231"/>
      <point x="399" y="229" type="curve"/>
    </contour>
    <contour>
      <point x="483" y="55" type="line" smooth="yes"/>
      <point x="499" y="47"/>
      <point x="507" y="21"/>
      <point x="507" y="11" type="curve" smooth="yes"/>
      <point x="507" y="1"/>
      <point x="501" y="-6"/>
      <point x="496" y="-6" type="curve" smooth="yes"/>
      <point x="495" y="-6" type="line" smooth="yes"/>
      <point x="494" y="-6"/>
      <point x="494" y="-6"/>
      <point x="493" y="-5" type="curve"/>
      <point x="64" y="195" type="line" smooth="yes"/>
      <point x="37" y="208"/>
      <point x="23" y="217"/>
      <point x="23" y="223" type="curve" smooth="yes"/>
      <point x="23" y="234"/>
      <point x="39" y="260"/>
      <point x="56" y="268" type="curve" smooth="yes"/>
      <point x="493" y="468" type="line"/>
      <point x="494" y="468" type="line"/>
      <point x="496" y="469" type="line"/>
      <point x="501" y="469"/>
      <point x="509" y="459"/>
      <point x="506" y="454" type="curve"/>
      <point x="499" y="429"/>
      <point x="488" y="414"/>
      <point x="475" y="408" type="curve" smooth="yes"/>
      <point x="102" y="234" type="line" smooth="yes"/>
      <point x="100" y="233"/>
      <point x="100" y="231"/>
      <point x="103" y="229" type="curve"/>
    </contour>
  </outline>
</glyph>
<glyph name="uni226B" format="1">
  <advance width="836"/>
  <unicode hex="226B"/>
  <outline>
    <contour>
      <point x="427" y="229" type="line"/>
      <point x="430" y="231"/>
      <point x="431" y="233"/>
      <point x="428" y="234" type="curve"/>
      <point x="55" y="408" type="line" smooth="yes"/>
      <point x="42" y="414"/>
      <point x="31" y="429"/>
      <point x="24" y="454" type="curve"/>
      <point x="21" y="459"/>
      <point x="29" y="469"/>
      <point x="34" y="469" type="curve"/>
      <point x="35" y="468" type="line"/>
      <point x="36" y="468"/>
      <point x="36" y="468"/>
      <point x="37" y="468" type="curve"/>
      <point x="474" y="268" type="line" smooth="yes"/>
      <point x="491" y="260"/>
      <point x="507" y="234"/>
      <point x="507" y="223" type="curve" smooth="yes"/>
      <point x="507" y="217"/>
      <point x="493" y="208"/>
      <point x="466" y="195" type="curve" smooth="yes"/>
      <point x="37" y="-5" type="line"/>
      <point x="36" y="-5"/>
      <point x="35" y="-5"/>
      <point x="33" y="-5" type="curve"/>
      <point x="29" y="-6"/>
      <point x="23" y="1"/>
      <point x="23" y="11" type="curve" smooth="yes"/>
      <point x="23" y="21"/>
      <point x="31" y="47"/>
      <point x="47" y="55" type="curve" smooth="yes"/>
    </contour>
    <contour>
      <point x="723" y="229" type="line"/>
      <point x="726" y="231"/>
      <point x="727" y="233"/>
      <point x="724" y="234" type="curve"/>
      <point x="351" y="408" type="line" smooth="yes"/>
      <point x="338" y="414"/>
      <point x="327" y="429"/>
      <point x="320" y="454" type="curve"/>
      <point x="317" y="459"/>
      <point x="325" y="469"/>
      <point x="330" y="469" type="curve"/>
      <point x="331" y="468" type="line"/>
      <point x="332" y="468"/>
      <point x="332" y="468"/>
      <point x="333" y="468" type="curve"/>
      <point x="770" y="268" type="line" smooth="yes"/>
      <point x="787" y="260"/>
      <point x="803" y="234"/>
      <point x="803" y="223" type="curve" smooth="yes"/>
      <point x="803" y="217"/>
      <point x="789" y="208"/>
      <point x="762" y="195" type="curve" smooth="yes"/>
      <point x="333" y="-5" type="line"/>
      <point x="332" y="-5"/>
      <point x="331" y="-5"/>
      <point x="329" y="-5" type="curve"/>
      <point x="325" y="-6"/>
      <point x="319" y="1"/>
      <point x="319" y="11" type="curve" smooth="yes"/>
      <point x="319" y="21"/>
      <point x="327" y="47"/>
      <point x="343" y="55" type="curve" smooth="yes"/>
    </contour>
  </outline>
</glyph>
<glyph name="uni22EF" format="1">
  <advance width="630"/>
  <unicode hex="22EF"/>
  <outline>
    <contour>
      <point x="493" y="255"/>
      <point x="505" y="260"/>
      <point x="520" y="260" type="curve" smooth="yes"/>
      <point x="549" y="260"/>
      <point x="575" y="236"/>
      <point x="575" y="205" type="curve" smooth="yes"/>
      <point x="575" y="174"/>
      <point x="549" y="150"/>
      <point x="520" y="150" type="curve" smooth="yes"/>
      <point x="491" y="150"/>
      <point x="465" y="174"/>
      <point x="465" y="205" type="curve" smooth="yes"/>
      <point x="465" y="220"/>
      <point x="471" y="233"/>
      <point x="482" y="244" type="curve" smooth="yes"/>
    </contour>
    <contour>
      <point x="283" y="255"/>
      <point x="295" y="260"/>
      <point x="310" y="260" type="curve" smooth="yes"/>
      <point x="339" y="260"/>
      <point x="365" y="236"/>
      <point x="365" y="205" type="curve" smooth="yes"/>
      <point x="365" y="174"/>
      <point x="339" y="150"/>
      <point x="310" y="150" type="curve" smooth="yes"/>
      <point x="281" y="150"/>
      <point x="255" y="174"/>
      <point x="255" y="205" type="curve" smooth="yes"/>
      <point x="255" y="220"/>
      <point x="261" y="233"/>
      <point x="272" y="244" type="curve" smooth="yes"/>
    </contour>
    <contour>
      <point x="73" y="255"/>
      <point x="85" y="260"/>
      <point x="100" y="260" type="curve" smooth="yes"/>
      <point x="129" y="260"/>
      <point x="155" y="236"/>
      <point x="155" y="205" type="curve" smooth="yes"/>
      <point x="155" y="174"/>
      <point x="129" y="150"/>
      <point x="100" y="150" type="curve" smooth="yes"/>
      <point x="71" y="150"/>
      <point x="45" y="174"/>
      <point x="45" y="205" type="curve" smooth="yes"/>
      <point x="45" y="220"/>
      <point x="51" y="233"/>
      <point x="62" y="244" type="curve" smooth="yes"/>
    </contour>
  </outline>
</glyph>
<glyph name="uni249F" format="1">
  <advance width="1157"/>
  <unicode hex="249F"/>
  <outline>
    <contour>
      <point x="1017" y="609"/>
      <point x="1107" y="436"/>
      <point x="1107" y="280" type="curve" smooth="yes"/>
      <point x="1107" y="123"/>
      <point x="1003" y="-128"/>
      <point x="924" y="-207" type="curve" smooth="yes"/>
      <point x="920" y="-211"/>
      <point x="914" y="-213"/>
      <point x="907" y="-213" type="curve" smooth="yes"/>
      <point x="892" y="-213"/>
      <point x="877" y="-204"/>
      <point x="877" y="-196" type="curve" smooth="yes"/>
      <point x="877" y="-193"/>
      <point x="880" y="-188"/>
      <point x="887" y="-181" type="curve" smooth="yes"/>
      <point x="963" y="-105"/>
      <point x="1047" y="106"/>
      <point x="1047" y="266" type="curve" smooth="yes"/>
      <point x="1047" y="425"/>
      <point x="969" y="599"/>
      <point x="889" y="679" type="curve" smooth="yes"/>
      <point x="884" y="684"/>
      <point x="881" y="688"/>
      <point x="881" y="691" type="curve" smooth="yes"/>
      <point x="881" y="700"/>
      <point x="888" y="704"/>
      <point x="902" y="704" type="curve" smooth="yes"/>
      <point x="915" y="704"/>
      <point x="925" y="701"/>
      <point x="932" y="694" type="curve" smooth="yes"/>
    </contour>
    <contour>
      <point x="666" y="51" type="line"/>
      <point x="666" y="57" type="line"/>
      <point x="642" y="20"/>
      <point x="595" y="-14"/>
      <point x="535" y="-14" type="curve" smooth="yes"/>
      <point x="426" y="-14"/>
      <point x="350" y="82"/>
      <point x="350" y="196" type="curve" smooth="yes"/>
      <point x="350" y="310"/>
      <point x="440" y="414"/>
      <point x="575" y="414" type="curve" smooth="yes"/>
      <point x="602" y="414"/>
      <point x="646" y="402"/>
      <point x="654" y="392" type="curve" smooth="yes"/>
      <point x="658" y="387"/>
      <point x="661" y="384"/>
      <point x="664" y="384" type="curve" smooth="yes"/>
      <point x="666" y="384"/>
      <point x="667" y="392"/>
      <point x="667" y="408" type="curve" smooth="yes"/>
      <point x="667" y="566" type="line" smooth="yes"/>
      <point x="667" y="617"/>
      <point x="653" y="631"/>
      <point x="616" y="639" type="curve" smooth="yes"/>
      <point x="611" y="640"/>
      <point x="608" y="645"/>
      <point x="608" y="652" type="curve" smooth="yes"/>
      <point x="608" y="659"/>
      <point x="610" y="663"/>
      <point x="615" y="664" type="curve" smooth="yes"/>
      <point x="641" y="670"/>
      <point x="667" y="678"/>
      <point x="693" y="689" type="curve" smooth="yes"/>
      <point x="719" y="699"/>
      <point x="734" y="704"/>
      <point x="738" y="704" type="curve" smooth="yes"/>
      <point x="741" y="704"/>
      <point x="743" y="703"/>
      <point x="744" y="700" type="curve"/>
      <point x="744" y="697"/>
      <point x="744" y="690"/>
      <point x="743" y="680" type="curve" smooth="yes"/>
      <point x="739" y="642"/>
      <point x="737" y="603"/>
      <point x="737" y="562" type="curve" smooth="yes"/>
      <point x="737" y="110" type="line" smooth="yes"/>
      <point x="737" y="67"/>
      <point x="744" y="45"/>
      <point x="758" y="45" type="curve" smooth="yes"/>
      <point x="779" y="45"/>
      <point x="794" y="46"/>
      <point x="804" y="48" type="curve" smooth="yes"/>
      <point x="814" y="50"/>
      <point x="819" y="46"/>
      <point x="819" y="36" type="curve" smooth="yes"/>
      <point x="819" y="26"/>
      <point x="814" y="21"/>
      <point x="805" y="21" type="curve"/>
      <point x="770" y="16"/>
      <point x="740" y="9"/>
      <point x="715" y="-2" type="curve" smooth="yes"/>
      <point x="689" y="-13"/>
      <point x="674" y="-19"/>
      <point x="669" y="-19" type="curve" smooth="yes"/>
      <point x="664" y="-19"/>
      <point x="661" y="-18"/>
      <point x="661" y="-15" type="curve"/>
    </contour>
    <contour>
      <point x="496" y="379"/>
      <point x="454" y="342"/>
      <point x="437" y="295" type="curve" smooth="yes"/>
      <point x="428" y="272"/>
      <point x="424" y="243"/>
      <point x="424" y="210" type="curve" smooth="yes"/>
      <point x="424" y="143"/>
      <point x="449" y="89"/>
      <point x="482" y="65" type="curve" smooth="yes"/>
      <point x="513" y="42"/>
      <point x="543" y="31"/>
      <point x="571" y="31" type="curve" smooth="yes"/>
      <point x="627" y="31"/>
      <point x="667" y="71"/>
      <point x="667" y="120" type="curve" smooth="yes"/>
      <point x="667" y="255" type="line" smooth="yes"/>
      <point x="667" y="316"/>
      <point x="617" y="379"/>
      <point x="544" y="379" type="curve" smooth="yes"/>
    </contour>
    <contour>
      <point x="264" y="-205"/>
      <point x="252" y="-214"/>
      <point x="238" y="-214" type="curve" smooth="yes"/>
      <point x="231" y="-214"/>
      <point x="225" y="-212"/>
      <point x="220" y="-207" type="curve" smooth="yes"/>
      <point x="141" y="-128"/>
      <point x="40" y="111"/>
      <point x="40" y="268" type="curve" smooth="yes"/>
      <point x="40" y="425"/>
      <point x="132" y="610"/>
      <point x="216" y="694" type="curve" smooth="yes"/>
      <point x="223" y="701"/>
      <point x="231" y="705"/>
      <point x="238" y="705" type="curve" smooth="yes"/>
      <point x="253" y="705"/>
      <point x="265" y="697"/>
      <point x="265" y="689" type="curve" smooth="yes"/>
      <point x="265" y="685"/>
      <point x="261" y="679"/>
      <point x="252" y="670" type="curve" smooth="yes"/>
      <point x="171" y="589"/>
      <point x="100" y="439"/>
      <point x="100" y="278" type="curve" smooth="yes"/>
      <point x="100" y="117"/>
      <point x="175" y="-100"/>
      <point x="248" y="-173" type="curve" smooth="yes"/>
      <point x="259" y="-184"/>
      <point x="264" y="-190"/>
      <point x="264" y="-192" type="curve" smooth="yes"/>
    </contour>
  </outline>
</glyph>
<glyph name="uni24A0" format="1">
  <advance width="1044"/>
  <unicode hex="24A0"/>
  <outline>
    <contour>
      <point x="904" y="609"/>
      <point x="994" y="436"/>
      <point x="994" y="280" type="curve" smooth="yes"/>
      <point x="994" y="123"/>
      <point x="890" y="-128"/>
      <point x="811" y="-207" type="curve" smooth="yes"/>
      <point x="807" y="-211"/>
      <point x="801" y="-213"/>
      <point x="794" y="-213" type="curve" smooth="yes"/>
      <point x="779" y="-213"/>
      <point x="764" y="-204"/>
      <point x="764" y="-196" type="curve" smooth="yes"/>
      <point x="764" y="-193"/>
      <point x="767" y="-188"/>
      <point x="774" y="-181" type="curve" smooth="yes"/>
      <point x="850" y="-105"/>
      <point x="934" y="106"/>
      <point x="934" y="266" type="curve" smooth="yes"/>
      <point x="934" y="425"/>
      <point x="856" y="599"/>
      <point x="776" y="679" type="curve" smooth="yes"/>
      <point x="771" y="684"/>
      <point x="768" y="688"/>
      <point x="768" y="691" type="curve" smooth="yes"/>
      <point x="768" y="700"/>
      <point x="775" y="704"/>
      <point x="789" y="704" type="curve" smooth="yes"/>
      <point x="802" y="704"/>
      <point x="812" y="701"/>
      <point x="819" y="694" type="curve" smooth="yes"/>
    </contour>
    <contour>
      <point x="624" y="414"/>
      <point x="673" y="378"/>
      <point x="673" y="321" type="curve" smooth="yes"/>
      <point x="673" y="264"/>
      <point x="641" y="257"/>
      <point x="596" y="257" type="curve" smooth="yes"/>
      <point x="432" y="257" type="line" smooth="yes"/>
      <point x="413" y="257"/>
      <point x="407" y="252"/>
      <point x="407" y="220" type="curve" smooth="yes"/>
      <point x="407" y="127"/>
      <point x="472" y="46"/>
      <point x="556" y="46" type="curve" smooth="yes"/>
      <point x="597" y="46"/>
      <point x="629" y="61"/>
      <point x="652" y="90" type="curve"/>
      <point x="657" y="95"/>
      <point x="660" y="97"/>
      <point x="663" y="97" type="curve" smooth="yes"/>
      <point x="670" y="97"/>
      <point x="672" y="88"/>
      <point x="667" y="71" type="curve" smooth="yes"/>
      <point x="658" y="36"/>
      <point x="597" y="-14"/>
      <point x="509" y="-14" type="curve" smooth="yes"/>
      <point x="421" y="-14"/>
      <point x="345" y="76"/>
      <point x="345" y="198" type="curve" smooth="yes"/>
      <point x="345" y="320"/>
      <point x="432" y="414"/>
      <point x="544" y="414" type="curve" smooth="yes"/>
    </contour>
    <contour>
      <point x="610" y="358"/>
      <point x="572" y="383"/>
      <point x="525" y="383" type="curve" smooth="yes"/>
      <point x="477" y="383"/>
      <point x="426" y="334"/>
      <point x="426" y="303" type="curve" smooth="yes"/>
      <point x="426" y="293"/>
      <point x="432" y="288"/>
      <point x="445" y="288" type="curve" smooth="yes"/>
      <point x="527" y="288" type="line" smooth="yes"/>
      <point x="558" y="288"/>
      <point x="583" y="290"/>
      <point x="600" y="293" type="curve" smooth="yes"/>
      <point x="607" y="294"/>
      <point x="610" y="303"/>
      <point x="610" y="322" type="curve" smooth="yes"/>
    </contour>
    <contour>
      <point x="264" y="-205"/>
      <point x="252" y="-214"/>
      <point x="238" y="-214" type="curve" smooth="yes"/>
      <point x="231" y="-214"/>
      <point x="225" y="-212"/>
      <point x="220" y="-207" type="curve" smooth="yes"/>
      <point x="141" y="-128"/>
      <point x="40" y="111"/>
      <point x="40" y="268" type="curve" smooth="yes"/>
      <point x="40" y="425"/>
      <point x="132" y="610"/>
      <point x="216" y="694" type="curve" smooth="yes"/>
      <point x="223" y="701"/>
      <point x="231" y="705"/>
      <point x="238" y="705" type="curve" smooth="yes"/>
      <point x="253" y="705"/>
      <point x="265" y="697"/>
      <point x="265" y="689" type="curve" smooth="yes"/>
      <point x="265" y="685"/>
      <point x="261" y="679"/>
      <point x="252" y="670" type="curve" smooth="yes"/>
      <point x="171" y="589"/>
      <point x="100" y="439"/>
      <point x="100" y="278" type="curve" smooth="yes"/>
      <point x="100" y="117"/>
      <point x="175" y="-100"/>
      <point x="248" y="-173" type="curve" smooth="yes"/>
      <point x="259" y="-184"/>
      <point x="264" y="-190"/>
      <point x="264" y="-192" type="curve" smooth="yes"/>
    </contour>
  </outline>
</glyph>
<glyph name="uni24A1" format="1">
  <advance width="938"/>
  <unicode hex="24A1"/>
  <outline>
    <contour>
      <point x="406" y="2" type="line"/>
      <point x="328" y="-3" type="line"/>
      <point x="325" y="-3" type="line" smooth="yes"/>
      <point x="312" y="-3"/>
      <point x="305" y="0"/>
      <point x="305" y="7" type="curve" smooth="yes"/>
      <point x="305" y="13"/>
      <point x="313" y="19"/>
      <point x="328" y="24" type="curve" smooth="yes"/>
      <point x="357" y="33"/>
      <point x="371" y="48"/>
      <point x="371" y="69" type="curve" smooth="yes"/>
      <point x="371" y="350" type="line"/>
      <point x="350" y="350"/>
      <point x="333" y="351"/>
      <point x="319" y="352" type="curve"/>
      <point x="315" y="353"/>
      <point x="306" y="364"/>
      <point x="306" y="369" type="curve" smooth="yes"/>
      <point x="306" y="372"/>
      <point x="308" y="374"/>
      <point x="312" y="376" type="curve"/>
      <point x="325" y="379"/>
      <point x="344" y="388"/>
      <point x="371" y="402" type="curve"/>
      <point x="371" y="472" type="line" smooth="yes"/>
      <point x="371" y="608"/>
      <point x="448" y="706"/>
      <point x="539" y="706" type="curve" smooth="yes"/>
      <point x="592" y="706"/>
      <point x="613" y="677"/>
      <point x="613" y="659" type="curve" smooth="yes"/>
      <point x="613" y="641"/>
      <point x="582" y="625"/>
      <point x="570" y="625" type="curve" smooth="yes"/>
      <point x="563" y="625"/>
      <point x="553" y="632"/>
      <point x="540" y="645" type="curve" smooth="yes"/>
      <point x="527" y="658"/>
      <point x="517" y="665"/>
      <point x="510" y="665" type="curve" smooth="yes"/>
      <point x="496" y="665"/>
      <point x="486" y="662"/>
      <point x="470" y="650" type="curve" smooth="yes"/>
      <point x="453" y="637"/>
      <point x="443" y="611"/>
      <point x="442" y="570" type="curve" smooth="yes"/>
      <point x="441" y="420" type="line" smooth="yes"/>
      <point x="441" y="407"/>
      <point x="449" y="400"/>
      <point x="466" y="400" type="curve" smooth="yes"/>
      <point x="569" y="400" type="line" smooth="yes"/>
      <point x="572" y="400"/>
      <point x="573" y="396"/>
      <point x="573" y="389" type="curve" smooth="yes"/>
      <point x="573" y="373"/>
      <point x="567" y="352"/>
      <point x="560" y="352" type="curve" smooth="yes"/>
      <point x="481" y="352" type="line" smooth="yes"/>
      <point x="464" y="352"/>
      <point x="454" y="351"/>
      <point x="449" y="348" type="curve" smooth="yes"/>
      <point x="444" y="345"/>
      <point x="441" y="341"/>
      <point x="441" y="335" type="curve" smooth="yes"/>
      <point x="441" y="70" type="line" smooth="yes"/>
      <point x="441" y="48"/>
      <point x="455" y="33"/>
      <point x="484" y="24" type="curve" smooth="yes"/>
      <point x="499" y="19"/>
      <point x="507" y="13"/>
      <point x="507" y="7" type="curve" smooth="yes"/>
      <point x="507" y="0"/>
      <point x="500" y="-3"/>
      <point x="487" y="-3" type="curve" smooth="yes"/>
      <point x="484" y="-3" type="line"/>
    </contour>
    <contour>
      <point x="798" y="609"/>
      <point x="888" y="436"/>
      <point x="888" y="280" type="curve" smooth="yes"/>
      <point x="888" y="123"/>
      <point x="784" y="-128"/>
      <point x="705" y="-207" type="curve" smooth="yes"/>
      <point x="701" y="-211"/>
      <point x="695" y="-213"/>
      <point x="688" y="-213" type="curve" smooth="yes"/>
      <point x="673" y="-213"/>
      <point x="658" y="-204"/>
      <point x="658" y="-196" type="curve" smooth="yes"/>
      <point x="658" y="-193"/>
      <point x="661" y="-188"/>
      <point x="668" y="-181" type="curve" smooth="yes"/>
      <point x="744" y="-105"/>
      <point x="828" y="106"/>
      <point x="828" y="266" type="curve" smooth="yes"/>
      <point x="828" y="425"/>
      <point x="750" y="599"/>
      <point x="670" y="679" type="curve" smooth="yes"/>
      <point x="665" y="684"/>
      <point x="662" y="688"/>
      <point x="662" y="691" type="curve" smooth="yes"/>
      <point x="662" y="700"/>
      <point x="669" y="704"/>
      <point x="683" y="704" type="curve" smooth="yes"/>
      <point x="696" y="704"/>
      <point x="706" y="701"/>
      <point x="713" y="694" type="curve" smooth="yes"/>
    </contour>
    <contour>
      <point x="264" y="-205"/>
      <point x="252" y="-214"/>
      <point x="238" y="-214" type="curve" smooth="yes"/>
      <point x="231" y="-214"/>
      <point x="225" y="-212"/>
      <point x="220" y="-207" type="curve" smooth="yes"/>
      <point x="141" y="-128"/>
      <point x="40" y="111"/>
      <point x="40" y="268" type="curve" smooth="yes"/>
      <point x="40" y="425"/>
      <point x="132" y="610"/>
      <point x="216" y="694" type="curve" smooth="yes"/>
      <point x="223" y="701"/>
      <point x="231" y="705"/>
      <point x="238" y="705" type="curve" smooth="yes"/>
      <point x="253" y="705"/>
      <point x="265" y="697"/>
      <point x="265" y="689" type="curve" smooth="yes"/>
      <point x="265" y="685"/>
      <point x="261" y="679"/>
      <point x="252" y="670" type="curve" smooth="yes"/>
      <point x="171" y="589"/>
      <point x="100" y="439"/>
      <point x="100" y="278" type="curve" smooth="yes"/>
      <point x="100" y="117"/>
      <point x="175" y="-100"/>
      <point x="248" y="-173" type="curve" smooth="yes"/>
      <point x="259" y="-184"/>
      <point x="264" y="-190"/>
      <point x="264" y="-192" type="curve" smooth="yes"/>
    </contour>
  </outline>
</glyph>
<glyph name="uni24A4" format="1">
  <advance width="869"/>
  <unicode hex="24A4"/>
  <outline>
    <contour>
      <point x="729" y="609"/>
      <point x="819" y="436"/>
      <point x="819" y="280" type="curve" smooth="yes"/>
      <point x="819" y="123"/>
      <point x="715" y="-128"/>
      <point x="636" y="-207" type="curve" smooth="yes"/>
      <point x="632" y="-211"/>
      <point x="626" y="-213"/>
      <point x="619" y="-213" type="curve" smooth="yes"/>
      <point x="604" y="-213"/>
      <point x="589" y="-204"/>
      <point x="589" y="-196" type="curve" smooth="yes"/>
      <point x="589" y="-193"/>
      <point x="592" y="-188"/>
      <point x="599" y="-181" type="curve" smooth="yes"/>
      <point x="675" y="-105"/>
      <point x="759" y="106"/>
      <point x="759" y="266" type="curve" smooth="yes"/>
      <point x="759" y="425"/>
      <point x="681" y="599"/>
      <point x="601" y="679" type="curve" smooth="yes"/>
      <point x="596" y="684"/>
      <point x="593" y="688"/>
      <point x="593" y="691" type="curve" smooth="yes"/>
      <point x="593" y="700"/>
      <point x="600" y="704"/>
      <point x="614" y="704" type="curve" smooth="yes"/>
      <point x="627" y="704"/>
      <point x="637" y="701"/>
      <point x="644" y="694" type="curve" smooth="yes"/>
    </contour>
    <contour>
      <point x="404" y="514"/>
      <point x="383" y="535"/>
      <point x="383" y="564" type="curve" smooth="yes"/>
      <point x="383" y="593"/>
      <point x="404" y="614"/>
      <point x="433" y="614" type="curve" smooth="yes"/>
      <point x="462" y="614"/>
      <point x="483" y="594"/>
      <point x="484" y="563" type="curve"/>
      <point x="483" y="535"/>
      <point x="462" y="514"/>
      <point x="433" y="513" type="curve"/>
    </contour>
    <contour>
      <point x="440" y="2" type="line"/>
      <point x="359" y="-3" type="line"/>
      <point x="346" y="-3"/>
      <point x="339" y="0"/>
      <point x="339" y="7" type="curve" smooth="yes"/>
      <point x="339" y="13"/>
      <point x="348" y="19"/>
      <point x="367" y="25" type="curve" smooth="yes"/>
      <point x="386" y="31"/>
      <point x="397" y="37"/>
      <point x="400" y="44" type="curve"/>
      <point x="403" y="50"/>
      <point x="405" y="56"/>
      <point x="405" y="62" type="curve" smooth="yes"/>
      <point x="405" y="279" type="line" smooth="yes"/>
      <point x="405" y="321"/>
      <point x="389" y="345"/>
      <point x="358" y="352" type="curve" smooth="yes"/>
      <point x="353" y="353"/>
      <point x="350" y="358"/>
      <point x="350" y="365" type="curve" smooth="yes"/>
      <point x="350" y="372"/>
      <point x="352" y="376"/>
      <point x="357" y="377" type="curve"/>
      <point x="390" y="385"/>
      <point x="424" y="401"/>
      <point x="459" y="424" type="curve" smooth="yes"/>
      <point x="470" y="431"/>
      <point x="476" y="434"/>
      <point x="477" y="434" type="curve" smooth="yes"/>
      <point x="482" y="434"/>
      <point x="484" y="432"/>
      <point x="484" y="429" type="curve"/>
      <point x="478" y="368"/>
      <point x="475" y="323"/>
      <point x="475" y="294" type="curve" smooth="yes"/>
      <point x="475" y="62" type="line" smooth="yes"/>
      <point x="475" y="35"/>
      <point x="493" y="32"/>
      <point x="521" y="23" type="curve"/>
      <point x="534" y="18"/>
      <point x="541" y="13"/>
      <point x="541" y="7" type="curve" smooth="yes"/>
      <point x="541" y="0"/>
      <point x="534" y="-3"/>
      <point x="521" y="-3" type="curve"/>
    </contour>
    <contour>
      <point x="264" y="-205"/>
      <point x="252" y="-214"/>
      <point x="238" y="-214" type="curve" smooth="yes"/>
      <point x="231" y="-214"/>
      <point x="225" y="-212"/>
      <point x="220" y="-207" type="curve" smooth="yes"/>
      <point x="141" y="-128"/>
      <point x="40" y="111"/>
      <point x="40" y="268" type="curve" smooth="yes"/>
      <point x="40" y="425"/>
      <point x="132" y="610"/>
      <point x="216" y="694" type="curve" smooth="yes"/>
      <point x="223" y="701"/>
      <point x="231" y="705"/>
      <point x="238" y="705" type="curve" smooth="yes"/>
      <point x="253" y="705"/>
      <point x="265" y="697"/>
      <point x="265" y="689" type="curve" smooth="yes"/>
      <point x="265" y="685"/>
      <point x="261" y="679"/>
      <point x="252" y="670" type="curve" smooth="yes"/>
      <point x="171" y="589"/>
      <point x="100" y="439"/>
      <point x="100" y="278" type="curve" smooth="yes"/>
      <point x="100" y="117"/>
      <point x="175" y="-100"/>
      <point x="248" y="-173" type="curve" smooth="yes"/>
      <point x="259" y="-184"/>
      <point x="264" y="-190"/>
      <point x="264" y="-192" type="curve" smooth="yes"/>
    </contour>
  </outline>
</glyph>
<glyph name="uni24AA" format="1">
  <advance width="1116"/>
  <unicode hex="24AA"/>
  <outline>
    <contour>
      <point x="976" y="609"/>
      <point x="1066" y="436"/>
      <point x="1066" y="280" type="curve" smooth="yes"/>
      <point x="1066" y="123"/>
      <point x="962" y="-128"/>
      <point x="883" y="-207" type="curve" smooth="yes"/>
      <point x="879" y="-211"/>
      <point x="873" y="-213"/>
      <point x="866" y="-213" type="curve" smooth="yes"/>
      <point x="851" y="-213"/>
      <point x="836" y="-204"/>
      <point x="836" y="-196" type="curve" smooth="yes"/>
      <point x="836" y="-193"/>
      <point x="839" y="-188"/>
      <point x="846" y="-181" type="curve" smooth="yes"/>
      <point x="922" y="-105"/>
      <point x="1006" y="106"/>
      <point x="1006" y="266" type="curve" smooth="yes"/>
      <point x="1006" y="425"/>
      <point x="928" y="599"/>
      <point x="848" y="679" type="curve" smooth="yes"/>
      <point x="843" y="684"/>
      <point x="840" y="688"/>
      <point x="840" y="691" type="curve" smooth="yes"/>
      <point x="840" y="700"/>
      <point x="847" y="704"/>
      <point x="861" y="704" type="curve" smooth="yes"/>
      <point x="874" y="704"/>
      <point x="884" y="701"/>
      <point x="891" y="694" type="curve" smooth="yes"/>
    </contour>
    <contour>
      <point x="472" y="383"/>
      <point x="432" y="325"/>
      <point x="432" y="210" type="curve" smooth="yes"/>
      <point x="432" y="107"/>
      <point x="493" y="16"/>
      <point x="570" y="16" type="curve" smooth="yes"/>
      <point x="670" y="16"/>
      <point x="693" y="84"/>
      <point x="693" y="187" type="curve" smooth="yes"/>
      <point x="693" y="290"/>
      <point x="633" y="383"/>
      <point x="552" y="383" type="curve" smooth="yes"/>
    </contour>
    <contour>
      <point x="350" y="302"/>
      <point x="450" y="414"/>
      <point x="567" y="414" type="curve" smooth="yes"/>
      <point x="684" y="414"/>
      <point x="775" y="324"/>
      <point x="775" y="207" type="curve" smooth="yes"/>
      <point x="775" y="90"/>
      <point x="692" y="-14"/>
      <point x="549" y="-14" type="curve" smooth="yes"/>
      <point x="436" y="-14"/>
      <point x="350" y="71"/>
      <point x="350" y="187" type="curve" smooth="yes"/>
    </contour>
    <contour>
      <point x="264" y="-205"/>
      <point x="252" y="-214"/>
      <point x="238" y="-214" type="curve" smooth="yes"/>
      <point x="231" y="-214"/>
      <point x="225" y="-212"/>
      <point x="220" y="-207" type="curve" smooth="yes"/>
      <point x="141" y="-128"/>
      <point x="40" y="111"/>
      <point x="40" y="268" type="curve" smooth="yes"/>
      <point x="40" y="425"/>
      <point x="132" y="610"/>
      <point x="216" y="694" type="curve" smooth="yes"/>
      <point x="223" y="701"/>
      <point x="231" y="705"/>
      <point x="238" y="705" type="curve" smooth="yes"/>
      <point x="253" y="705"/>
      <point x="265" y="697"/>
      <point x="265" y="689" type="curve" smooth="yes"/>
      <point x="265" y="685"/>
      <point x="261" y="679"/>
      <point x="252" y="670" type="curve" smooth="yes"/>
      <point x="171" y="589"/>
      <point x="100" y="439"/>
      <point x="100" y="278" type="curve" smooth="yes"/>
      <point x="100" y="117"/>
      <point x="175" y="-100"/>
      <point x="248" y="-173" type="curve" smooth="yes"/>
      <point x="259" y="-184"/>
      <point x="264" y="-190"/>
      <point x="264" y="-192" type="curve" smooth="yes"/>
    </contour>
  </outline>
</glyph>
<glyph name="uni24AE" format="1">
  <advance width="939"/>
  <unicode hex="24AE"/>
  <outline>
    <contour>
      <point x="799" y="609"/>
      <point x="889" y="436"/>
      <point x="889" y="280" type="curve" smooth="yes"/>
      <point x="889" y="123"/>
      <point x="785" y="-128"/>
      <point x="706" y="-207" type="curve" smooth="yes"/>
      <point x="702" y="-211"/>
      <point x="696" y="-213"/>
      <point x="689" y="-213" type="curve" smooth="yes"/>
      <point x="674" y="-213"/>
      <point x="659" y="-204"/>
      <point x="659" y="-196" type="curve" smooth="yes"/>
      <point x="659" y="-193"/>
      <point x="662" y="-188"/>
      <point x="669" y="-181" type="curve" smooth="yes"/>
      <point x="745" y="-105"/>
      <point x="829" y="106"/>
      <point x="829" y="266" type="curve" smooth="yes"/>
      <point x="829" y="425"/>
      <point x="751" y="599"/>
      <point x="671" y="679" type="curve" smooth="yes"/>
      <point x="666" y="684"/>
      <point x="663" y="688"/>
      <point x="663" y="691" type="curve" smooth="yes"/>
      <point x="663" y="700"/>
      <point x="670" y="704"/>
      <point x="684" y="704" type="curve" smooth="yes"/>
      <point x="697" y="704"/>
      <point x="707" y="701"/>
      <point x="714" y="694" type="curve" smooth="yes"/>
    </contour>
    <contour>
      <point x="553" y="359"/>
      <point x="524" y="388"/>
      <point x="489" y="388" type="curve" smooth="yes"/>
      <point x="453" y="388"/>
      <point x="428" y="360"/>
      <point x="428" y="328" type="curve" smooth="yes"/>
      <point x="428" y="296"/>
      <point x="458" y="267"/>
      <point x="475" y="256" type="curve"/>
      <point x="483" y="250"/>
      <point x="496" y="242"/>
      <point x="513" y="231" type="curve" smooth="yes"/>
      <point x="547" y="210"/>
      <point x="561" y="203"/>
      <point x="588" y="165" type="curve" smooth="yes"/>
      <point x="601" y="146"/>
      <point x="608" y="126"/>
      <point x="608" y="106" type="curve" smooth="yes"/>
      <point x="608" y="26"/>
      <point x="560" y="-14"/>
      <point x="464" y="-14" type="curve" smooth="yes"/>
      <point x="415" y="-14"/>
      <point x="365" y="7"/>
      <point x="358" y="22" type="curve" smooth="yes"/>
      <point x="351" y="37"/>
      <point x="346" y="58"/>
      <point x="345" y="83" type="curve"/>
      <point x="345" y="89"/>
      <point x="350" y="92"/>
      <point x="361" y="92" type="curve" smooth="yes"/>
      <point x="371" y="92"/>
      <point x="376" y="90"/>
      <point x="377" y="85" type="curve" smooth="yes"/>
      <point x="384" y="50"/>
      <point x="429" y="13"/>
      <point x="473" y="13" type="curve" smooth="yes"/>
      <point x="516" y="13"/>
      <point x="540" y="42"/>
      <point x="540" y="79" type="curve" smooth="yes"/>
      <point x="540" y="116"/>
      <point x="518" y="136"/>
      <point x="462" y="176" type="curve" smooth="yes"/>
      <point x="405" y="216"/>
      <point x="368" y="249"/>
      <point x="368" y="304" type="curve" smooth="yes"/>
      <point x="368" y="359"/>
      <point x="414" y="414"/>
      <point x="494" y="414" type="curve" smooth="yes"/>
      <point x="534" y="414"/>
      <point x="562" y="406"/>
      <point x="577" y="391" type="curve"/>
      <point x="588" y="377"/>
      <point x="594" y="351"/>
      <point x="594" y="313" type="curve" smooth="yes"/>
      <point x="594" y="310"/>
      <point x="592" y="309"/>
      <point x="587" y="309" type="curve" smooth="yes"/>
      <point x="578" y="309"/>
      <point x="554" y="322"/>
      <point x="554" y="330" type="curve"/>
    </contour>
    <contour>
      <point x="264" y="-205"/>
      <point x="252" y="-214"/>
      <point x="238" y="-214" type="curve" smooth="yes"/>
      <point x="231" y="-214"/>
      <point x="225" y="-212"/>
      <point x="220" y="-207" type="curve" smooth="yes"/>
      <point x="141" y="-128"/>
      <point x="40" y="111"/>
      <point x="40" y="268" type="curve" smooth="yes"/>
      <point x="40" y="425"/>
      <point x="132" y="610"/>
      <point x="216" y="694" type="curve" smooth="yes"/>
      <point x="223" y="701"/>
      <point x="231" y="705"/>
      <point x="238" y="705" type="curve" smooth="yes"/>
      <point x="253" y="705"/>
      <point x="265" y="697"/>
      <point x="265" y="689" type="curve" smooth="yes"/>
      <point x="265" y="685"/>
      <point x="261" y="679"/>
      <point x="252" y="670" type="curve" smooth="yes"/>
      <point x="171" y="589"/>
      <point x="100" y="439"/>
      <point x="100" y="278" type="curve" smooth="yes"/>
      <point x="100" y="117"/>
      <point x="175" y="-100"/>
      <point x="248" y="-173" type="curve" smooth="yes"/>
      <point x="259" y="-184"/>
      <point x="264" y="-190"/>
      <point x="264" y="-192" type="curve" smooth="yes"/>
    </contour>
  </outline>
</glyph>
<glyph name="uni24B0" format="1">
  <advance width="1165"/>
  <unicode hex="24B0"/>
  <outline>
    <contour>
      <point x="1025" y="609"/>
      <point x="1115" y="436"/>
      <point x="1115" y="280" type="curve" smooth="yes"/>
      <point x="1115" y="123"/>
      <point x="1011" y="-128"/>
      <point x="932" y="-207" type="curve" smooth="yes"/>
      <point x="928" y="-211"/>
      <point x="922" y="-213"/>
      <point x="915" y="-213" type="curve" smooth="yes"/>
      <point x="900" y="-213"/>
      <point x="885" y="-204"/>
      <point x="885" y="-196" type="curve" smooth="yes"/>
      <point x="885" y="-193"/>
      <point x="888" y="-188"/>
      <point x="895" y="-181" type="curve" smooth="yes"/>
      <point x="971" y="-105"/>
      <point x="1055" y="106"/>
      <point x="1055" y="266" type="curve" smooth="yes"/>
      <point x="1055" y="425"/>
      <point x="977" y="599"/>
      <point x="897" y="679" type="curve" smooth="yes"/>
      <point x="892" y="684"/>
      <point x="889" y="688"/>
      <point x="889" y="691" type="curve" smooth="yes"/>
      <point x="889" y="700"/>
      <point x="896" y="704"/>
      <point x="910" y="704" type="curve" smooth="yes"/>
      <point x="923" y="704"/>
      <point x="933" y="701"/>
      <point x="940" y="694" type="curve" smooth="yes"/>
    </contour>
    <contour>
      <point x="679" y="51" type="line"/>
      <point x="679" y="57" type="line"/>
      <point x="631" y="10"/>
      <point x="576" y="-14"/>
      <point x="514" y="-14" type="curve" smooth="yes"/>
      <point x="446" y="-14"/>
      <point x="400" y="29"/>
      <point x="400" y="105" type="curve" smooth="yes"/>
      <point x="400" y="308" type="line" smooth="yes"/>
      <point x="400" y="335"/>
      <point x="386" y="354"/>
      <point x="357" y="365" type="curve"/>
      <point x="348" y="368"/>
      <point x="344" y="373"/>
      <point x="344" y="382" type="curve" smooth="yes"/>
      <point x="344" y="390"/>
      <point x="349" y="395"/>
      <point x="359" y="397" type="curve"/>
      <point x="382" y="398"/>
      <point x="417" y="403"/>
      <point x="462" y="414" type="curve"/>
      <point x="471" y="415"/>
      <point x="477" y="409"/>
      <point x="476" y="400" type="curve" smooth="yes"/>
      <point x="472" y="369"/>
      <point x="470" y="344"/>
      <point x="470" y="323" type="curve" smooth="yes"/>
      <point x="470" y="128" type="line" smooth="yes"/>
      <point x="470" y="80"/>
      <point x="511" y="37"/>
      <point x="554" y="37" type="curve" smooth="yes"/>
      <point x="631" y="37"/>
      <point x="683" y="76"/>
      <point x="683" y="132" type="curve" smooth="yes"/>
      <point x="683" y="315" type="line" smooth="yes"/>
      <point x="683" y="351"/>
      <point x="649" y="364"/>
      <point x="618" y="365" type="curve" smooth="yes"/>
      <point x="603" y="365"/>
      <point x="595" y="371"/>
      <point x="595" y="382" type="curve" smooth="yes"/>
      <point x="595" y="387"/>
      <point x="598" y="391"/>
      <point x="604" y="394" type="curve"/>
      <point x="609" y="396"/>
      <point x="618" y="397"/>
      <point x="630" y="398" type="curve"/>
      <point x="654" y="398"/>
      <point x="680" y="400"/>
      <point x="697" y="403" type="curve"/>
      <point x="706" y="404"/>
      <point x="712" y="405"/>
      <point x="715" y="406" type="curve"/>
      <point x="719" y="406"/>
      <point x="730" y="409"/>
      <point x="747" y="415" type="curve"/>
      <point x="749" y="415" type="line" smooth="yes"/>
      <point x="758" y="415"/>
      <point x="767" y="406"/>
      <point x="759" y="393" type="curve" smooth="yes"/>
      <point x="755" y="386"/>
      <point x="753" y="364"/>
      <point x="753" y="326" type="curve" smooth="yes"/>
      <point x="753" y="114" type="line" smooth="yes"/>
      <point x="753" y="68"/>
      <point x="759" y="45"/>
      <point x="771" y="45" type="curve" smooth="yes"/>
      <point x="792" y="45"/>
      <point x="807" y="46"/>
      <point x="817" y="48" type="curve" smooth="yes"/>
      <point x="827" y="50"/>
      <point x="832" y="46"/>
      <point x="832" y="36" type="curve" smooth="yes"/>
      <point x="832" y="26"/>
      <point x="827" y="21"/>
      <point x="818" y="21" type="curve"/>
      <point x="783" y="16"/>
      <point x="753" y="9"/>
      <point x="728" y="-2" type="curve" smooth="yes"/>
      <point x="702" y="-13"/>
      <point x="687" y="-19"/>
      <point x="682" y="-19" type="curve" smooth="yes"/>
      <point x="677" y="-19"/>
      <point x="674" y="-18"/>
      <point x="674" y="-15" type="curve"/>
    </contour>
    <contour>
      <point x="264" y="-205"/>
      <point x="252" y="-214"/>
      <point x="238" y="-214" type="curve" smooth="yes"/>
      <point x="231" y="-214"/>
      <point x="225" y="-212"/>
      <point x="220" y="-207" type="curve" smooth="yes"/>
      <point x="141" y="-128"/>
      <point x="40" y="111"/>
      <point x="40" y="268" type="curve" smooth="yes"/>
      <point x="40" y="425"/>
      <point x="132" y="610"/>
      <point x="216" y="694" type="curve" smooth="yes"/>
      <point x="223" y="701"/>
      <point x="231" y="705"/>
      <point x="238" y="705" type="curve" smooth="yes"/>
      <point x="253" y="705"/>
      <point x="265" y="697"/>
      <point x="265" y="689" type="curve" smooth="yes"/>
      <point x="265" y="685"/>
      <point x="261" y="679"/>
      <point x="252" y="670" type="curve" smooth="yes"/>
      <point x="171" y="589"/>
      <point x="100" y="439"/>
      <point x="100" y="278" type="curve" smooth="yes"/>
      <point x="100" y="117"/>
      <point x="175" y="-100"/>
      <point x="248" y="-173" type="curve" smooth="yes"/>
      <point x="259" y="-184"/>
      <point x="264" y="-190"/>
      <point x="264" y="-192" type="curve" smooth="yes"/>
    </contour>
  </outline>
</glyph>
